<svg width="21" height="20" viewBox="0 0 21 20" fill="none" xmlns="http://www.w3.org/2000/svg">
<path d="M15.0416 18.9583C14.1 18.9583 13.1083 18.7333 12.0833 18.3C11.0833 17.875 10.075 17.2916 9.09163 16.5833C8.11663 15.8666 7.17496 15.0666 6.28329 14.1916C5.39996 13.3 4.59996 12.3583 3.89163 11.3916C3.17496 10.3916 2.59996 9.39163 2.19163 8.42496C1.75829 7.39163 1.54163 6.39163 1.54163 5.44996C1.54163 4.79996 1.65829 4.18329 1.88329 3.60829C2.11663 3.01663 2.49163 2.46663 2.99996 1.99163C3.64163 1.35829 4.37496 1.04163 5.15829 1.04163C5.48329 1.04163 5.81663 1.11663 6.09996 1.24996C6.42496 1.39996 6.69996 1.62496 6.89996 1.92496L8.83329 4.64996C9.00829 4.89163 9.14163 5.12496 9.23329 5.35829C9.34163 5.60829 9.39996 5.85829 9.39996 6.09996C9.39996 6.41663 9.30829 6.72496 9.13329 7.01663C9.00829 7.24163 8.81663 7.48329 8.57496 7.72496L8.00829 8.31663C8.01663 8.34163 8.02496 8.35829 8.03329 8.37496C8.13329 8.54996 8.33329 8.84996 8.71663 9.29996C9.12496 9.76663 9.50829 10.1916 9.89163 10.5833C10.3833 11.0666 10.7916 11.45 11.175 11.7666C11.65 12.1666 11.9583 12.3666 12.1416 12.4583L12.125 12.5L12.7333 11.9C12.9916 11.6416 13.2416 11.45 13.4833 11.325C13.9416 11.0416 14.525 10.9916 15.1083 11.2333C15.325 11.325 15.5583 11.45 15.8083 11.625L18.575 13.5916C18.8833 13.8 19.1083 14.0666 19.2416 14.3833C19.3666 14.7 19.425 14.9916 19.425 15.2833C19.425 15.6833 19.3333 16.0833 19.1583 16.4583C18.9833 16.8333 18.7666 17.1583 18.4916 17.4583C18.0166 17.9833 17.5 18.3583 16.9 18.6C16.325 18.8333 15.7 18.9583 15.0416 18.9583ZM5.15829 2.29163C4.69996 2.29163 4.27496 2.49163 3.86663 2.89163C3.48329 3.24996 3.21663 3.64163 3.04996 4.06663C2.87496 4.49996 2.79163 4.95829 2.79163 5.44996C2.79163 6.22496 2.97496 7.06663 3.34163 7.93329C3.71663 8.81663 4.24163 9.73329 4.90829 10.65C5.57496 11.5666 6.33329 12.4583 7.16663 13.3C7.99996 14.125 8.89996 14.8916 9.82496 15.5666C10.725 16.225 11.65 16.7583 12.5666 17.1416C13.9916 17.75 15.325 17.8916 16.425 17.4333C16.85 17.2583 17.225 16.9916 17.5666 16.6083C17.7583 16.4 17.9083 16.175 18.0333 15.9083C18.1333 15.7 18.1833 15.4833 18.1833 15.2666C18.1833 15.1333 18.1583 15 18.0916 14.85C18.0666 14.8 18.0166 14.7083 17.8583 14.6L15.0916 12.6333C14.925 12.5166 14.775 12.4333 14.6333 12.375C14.45 12.3 14.375 12.225 14.0916 12.4C13.925 12.4833 13.775 12.6083 13.6083 12.775L12.975 13.4C12.65 13.7166 12.15 13.7916 11.7666 13.65L11.5416 13.55C11.2 13.3666 10.8 13.0833 10.3583 12.7083C9.95829 12.3666 9.52496 11.9666 8.99996 11.45C8.59163 11.0333 8.18329 10.5916 7.75829 10.1C7.36663 9.64163 7.08329 9.24996 6.90829 8.92496L6.80829 8.67496C6.75829 8.48329 6.74163 8.37496 6.74163 8.25829C6.74163 7.95829 6.84996 7.69163 7.05829 7.48329L7.68329 6.83329C7.84996 6.66663 7.97496 6.50829 8.05829 6.36663C8.12496 6.25829 8.14996 6.16663 8.14996 6.08329C8.14996 6.01663 8.12496 5.91663 8.08329 5.81663C8.02496 5.68329 7.93329 5.53329 7.81663 5.37496L5.88329 2.64163C5.79996 2.52496 5.69996 2.44163 5.57496 2.38329C5.44163 2.32496 5.29996 2.29163 5.15829 2.29163ZM12.125 12.5083L11.9916 13.075L12.2166 12.4916C12.175 12.4833 12.1416 12.4916 12.125 12.5083Z" fill="#FF9160"/>
<path d="M15.9167 8.12504C15.575 8.12504 15.2917 7.84171 15.2917 7.50004C15.2917 7.20004 14.9917 6.57504 14.4917 6.04171C14 5.51671 13.4583 5.20837 13 5.20837C12.6583 5.20837 12.375 4.92504 12.375 4.58337C12.375 4.24171 12.6583 3.95837 13 3.95837C13.8083 3.95837 14.6583 4.39171 15.4 5.18337C16.0917 5.92504 16.5417 6.83337 16.5417 7.50004C16.5417 7.84171 16.2583 8.12504 15.9167 8.12504Z" fill="#FF9160"/>
<path d="M18.8333 8.12496C18.4917 8.12496 18.2083 7.84163 18.2083 7.49996C18.2083 4.62496 15.875 2.29163 13 2.29163C12.6583 2.29163 12.375 2.00829 12.375 1.66663C12.375 1.32496 12.6583 1.04163 13 1.04163C16.5583 1.04163 19.4583 3.94163 19.4583 7.49996C19.4583 7.84163 19.175 8.12496 18.8333 8.12496Z" fill="#FF9160"/>
</svg>
