<svg width="49" height="48" viewBox="0 0 49 48" fill="none" xmlns="http://www.w3.org/2000/svg">
<rect x="0.5" width="48" height="48" rx="24" fill="#FF9160" fill-opacity="0.2"/>
<path d="M27.9999 36.5413H20.9999C14.6649 36.5413 11.9583 33.8347 11.9583 27.4997V20.4997C11.9583 14.1647 14.6649 11.458 20.9999 11.458H27.9999C34.3349 11.458 37.0416 14.1647 37.0416 20.4997V27.4997C37.0416 33.8347 34.3349 36.5413 27.9999 36.5413ZM20.9999 13.208C15.6216 13.208 13.7083 15.1213 13.7083 20.4997V27.4997C13.7083 32.878 15.6216 34.7913 20.9999 34.7913H27.9999C33.3783 34.7913 35.2916 32.878 35.2916 27.4997V20.4997C35.2916 15.1213 33.3783 13.208 27.9999 13.208H20.9999Z" fill="#0C0804"/>
<path d="M21.0001 22.5417C19.2267 22.5417 17.7917 21.1067 17.7917 19.3333C17.7917 17.56 19.2267 16.125 21.0001 16.125C22.7734 16.125 24.2084 17.56 24.2084 19.3333C24.2084 21.1067 22.7734 22.5417 21.0001 22.5417ZM21.0001 17.875C20.1951 17.875 19.5417 18.5283 19.5417 19.3333C19.5417 20.1383 20.1951 20.7917 21.0001 20.7917C21.8051 20.7917 22.4584 20.1383 22.4584 19.3333C22.4584 18.5283 21.8051 17.875 21.0001 17.875Z" fill="#0C0804"/>
<path d="M13.6148 32.9833C13.3348 32.9833 13.0548 32.8433 12.8915 32.5983C12.6231 32.2017 12.7281 31.6533 13.1365 31.385L18.8881 27.5233C20.1481 26.6717 21.8865 26.7767 23.0298 27.745L23.4148 28.0833C23.9981 28.585 24.9898 28.585 25.5615 28.0833L30.4148 23.9183C31.6515 22.8567 33.5998 22.8567 34.8481 23.9183L36.7498 25.5517C37.1115 25.8667 37.1581 26.415 36.8431 26.7883C36.5281 27.15 35.9798 27.1967 35.6065 26.8817L33.7048 25.2483C33.1215 24.7467 32.1298 24.7467 31.5465 25.2483L26.6931 29.4133C25.4565 30.475 23.5081 30.475 22.2598 29.4133L21.8748 29.075C21.3381 28.62 20.4515 28.5733 19.8565 28.9817L14.1048 32.8433C13.9531 32.9367 13.7781 32.9833 13.6148 32.9833Z" fill="#0C0804"/>
</svg>
