<svg width="49" height="48" viewBox="0 0 49 48" fill="none" xmlns="http://www.w3.org/2000/svg">
<rect x="0.5" width="48" height="48" rx="24" fill="#FF9160" fill-opacity="0.2"/>
<path d="M35 24.1H35.1V24V19C35.1 17.6474 34.5627 16.3502 33.6062 15.3938C32.6498 14.4373 31.3526 13.9 30 13.9H20C18.6474 13.9 17.3502 14.4373 16.3938 15.3938C15.4373 16.3502 14.9 17.6474 14.9 19V29C14.9 30.3526 15.4373 31.6498 16.3938 32.6062C17.3502 33.5627 18.6474 34.1 20 34.1H25H25.1V34V31.0001C25.102 29.1707 25.8296 27.4168 27.1232 26.1232C28.4168 24.8296 30.1707 24.102 32.0001 24.1H35ZM26.9 33.3925V33.5726L27.0529 33.4774C28.2805 32.7131 29.7553 31.4687 31.112 30.112C32.4687 28.7553 33.7131 27.2805 34.4774 26.0529L34.5726 25.9H34.3925H32C30.6474 25.9 29.3502 26.4373 28.3938 27.3938C27.4373 28.3502 26.9 29.6474 26.9 31V33.3925ZM15.1232 14.1232C16.4168 12.8296 18.1707 12.102 20.0001 12.1L29.9999 12.1C31.8293 12.102 33.5833 12.8296 34.8768 14.1232C36.1704 15.4168 36.898 17.1707 36.9 19.0001V25C36.9 25.0967 36.8844 25.1928 36.8539 25.2846C36.5854 26.0893 35.9965 27.0853 35.2068 28.1473C34.4183 29.2078 33.4341 30.3282 32.3812 31.3812C31.3282 32.4341 30.2078 33.4183 29.1473 34.2068C28.0853 34.9965 27.0893 35.5854 26.2846 35.8539C26.1928 35.8844 26.0967 35.9 26 35.9H20.0001C18.1707 35.898 16.4168 35.1704 15.1232 33.8768C13.8296 32.5832 13.102 30.8293 13.1 28.9999L13.1 19.0001C13.102 17.1707 13.8296 15.4167 15.1232 14.1232Z" fill="black" stroke="#FFE9DF" stroke-width="0.2"/>
</svg>
