<svg width="49" height="48" viewBox="0 0 49 48" fill="none" xmlns="http://www.w3.org/2000/svg">
<rect x="0.5" width="48" height="48" rx="24" fill="#FF9160" fill-opacity="0.2"/>
<path d="M28.0002 36.5413H21.0002C14.6652 36.5413 11.9585 33.8347 11.9585 27.4997V20.4997C11.9585 14.1647 14.6652 11.458 21.0002 11.458H28.0002C34.3352 11.458 37.0418 14.1647 37.0418 20.4997V27.4997C37.0418 33.8347 34.3352 36.5413 28.0002 36.5413ZM21.0002 13.208C15.6218 13.208 13.7085 15.1213 13.7085 20.4997V27.4997C13.7085 32.878 15.6218 34.7913 21.0002 34.7913H28.0002C33.3785 34.7913 35.2918 32.878 35.2918 27.4997V20.4997C35.2918 15.1213 33.3785 13.208 28.0002 13.208H21.0002Z" fill="#0C0804"/>
<path d="M23.0533 29.0984C22.5633 29.0984 22.1083 28.9817 21.7 28.7484C20.7666 28.2117 20.23 27.115 20.23 25.7267V22.2734C20.23 20.8967 20.7666 19.7883 21.7 19.2517C22.6333 18.715 23.8466 18.7967 25.0483 19.4967L28.0466 21.2233C29.2366 21.9117 29.925 22.9267 29.925 24C29.925 25.0733 29.2366 26.0883 28.0466 26.7767L25.0483 28.5033C24.3716 28.9 23.6833 29.0984 23.0533 29.0984ZM23.065 20.6517C22.8783 20.6517 22.715 20.6867 22.5866 20.7683C22.2133 20.99 21.9916 21.5384 21.9916 22.2734V25.7267C21.9916 26.4617 22.2016 27.01 22.5866 27.2317C22.96 27.4534 23.5433 27.36 24.185 26.9867L27.1833 25.26C27.825 24.8867 28.1866 24.4317 28.1866 24C28.1866 23.5683 27.825 23.1017 27.1833 22.74L24.185 21.0133C23.765 20.7683 23.38 20.6517 23.065 20.6517Z" fill="#0C0804"/>
</svg>
