<svg width="49" height="48" viewBox="0 0 49 48" fill="none" xmlns="http://www.w3.org/2000/svg">
<rect x="0.5" width="48" height="48" rx="24" fill="#FF9160" fill-opacity="0.2"/>
<path d="M26.6931 34.0214C25.7714 34.0214 24.7564 33.6947 23.7414 33.053L20.3348 30.918C20.1014 30.778 19.8331 30.6964 19.5648 30.6964H17.8848C15.0614 30.6964 13.5098 29.1447 13.5098 26.3214V21.6547C13.5098 18.8314 15.0614 17.2797 17.8848 17.2797H19.5531C19.8214 17.2797 20.0898 17.198 20.3231 17.058L23.7298 14.923C25.4331 13.8614 27.0898 13.663 28.3964 14.3864C29.7031 15.1097 30.4148 16.6147 30.4148 18.633V29.3314C30.4148 31.338 29.6914 32.8547 28.3964 33.578C27.8831 33.8814 27.3114 34.0214 26.6931 34.0214ZM17.8848 19.0414C16.0414 19.0414 15.2598 19.823 15.2598 21.6664V26.333C15.2598 28.1764 16.0414 28.958 17.8848 28.958H19.5531C20.1598 28.958 20.7431 29.1214 21.2564 29.448L24.6631 31.583C25.7948 32.283 26.8448 32.4697 27.5564 32.073C28.2681 31.6764 28.6764 30.6847 28.6764 29.3664V18.6447C28.6764 17.3147 28.2681 16.323 27.5564 15.938C26.8448 15.5414 25.7948 15.7164 24.6631 16.428L21.2564 18.5514C20.7431 18.878 20.1598 19.0414 19.5531 19.0414H17.8848Z" fill="#0C0804"/>
<path d="M33.0516 29.5417C32.8649 29.5417 32.6899 29.4833 32.5266 29.3667C32.1416 29.075 32.0599 28.5267 32.3516 28.1417C34.1833 25.7033 34.1833 22.2967 32.3516 19.8583C32.0599 19.4733 32.1416 18.925 32.5266 18.6333C32.9116 18.3417 33.4599 18.4233 33.7516 18.8083C36.0499 21.865 36.0499 26.135 33.7516 29.1917C33.5883 29.425 33.3199 29.5417 33.0516 29.5417Z" fill="#0C0804"/>
</svg>
