<svg width="49" height="48" viewBox="0 0 49 48" fill="none" xmlns="http://www.w3.org/2000/svg">
<rect x="0.5" width="48" height="48" rx="24" fill="#FF9160" fill-opacity="0.2"/>
<rect x="13.25" y="12.75" width="22.5" height="22.5" rx="3.25" stroke="#0C0804" stroke-width="1.5"/>
<path fill-rule="evenodd" clip-rule="evenodd" d="M25.3 29.5998H26.9C27.3416 29.5998 27.7 29.9582 27.7 30.3998C27.7 30.8414 27.3416 31.1998 26.9 31.1998H22.1C21.6584 31.1998 21.3 30.8414 21.3 30.3998C21.3 29.9582 21.6584 29.5998 22.1 29.5998H23.7V18.3998H18.9V19.9998C18.9 20.4414 18.5416 20.7998 18.1 20.7998C17.6584 20.7998 17.3 20.4414 17.3 19.9998V17.5998C17.3 17.1582 17.6584 16.7998 18.1 16.7998H30.9C31.3416 16.7998 31.7 17.1582 31.7 17.5998V19.9998C31.7 20.4414 31.3416 20.7998 30.9 20.7998C30.4584 20.7998 30.1 20.4414 30.1 19.9998V18.3998H25.3V29.5998Z" fill="#0C0804"/>
</svg>
