<svg width="64" height="65" viewBox="0 0 64 65" fill="none" xmlns="http://www.w3.org/2000/svg">
<g clip-path="url(#clip0_41_2)">
<path d="M39.8029 34.2066C41.4618 34.3088 43.1201 34.4148 44.7796 34.5119C46.616 34.6175 48.4565 34.3932 50.2145 33.8495C51.2877 33.5217 52.3794 33.3552 53.4992 33.4579C53.876 33.4923 54.2668 33.5493 54.6161 33.6864C56.1773 34.2992 57.7677 34.3607 59.3985 34.0571C60.1516 33.9166 60.9147 33.8117 61.6768 33.7434C62.8044 33.6424 63.3941 34.1587 63.3756 35.2843C63.3542 36.6114 63.243 37.9362 63.1908 39.2632C63.1655 39.9059 63.1459 40.5536 63.1908 41.194C63.32 42.9865 63.4772 44.7768 63.6401 46.5665C63.7047 47.2899 63.7574 48.02 63.899 48.7303C64.2921 50.7051 63.9063 52.6393 63.7052 54.5983C63.5367 56.2142 63.6305 57.8578 63.617 59.4895C63.6103 60.2619 63.6384 61.0355 63.6266 61.8079C63.6092 62.9612 63.165 63.4594 62.0205 63.5102C61.1668 63.5433 60.3119 63.5261 59.4603 63.4588C57.8469 63.3398 56.2385 63.0825 54.6251 63.0565C53.1345 63.0399 51.645 63.1411 50.1701 63.359C47.7554 63.7043 45.335 63.9034 42.9028 63.7652C41.8487 63.7054 40.8104 63.3928 39.758 63.2574C38.7882 63.1338 37.8076 63.0938 36.8311 63.021C36.5756 63.0018 36.3167 63.021 36.0634 62.986C34.797 62.8167 34.2972 62.2576 34.2169 60.9486C34.0951 58.9687 34.3034 57.0081 34.5859 55.0564C34.8049 53.542 34.7583 52.075 34.1928 50.6323C34.0169 50.1972 33.9307 49.7308 33.9395 49.2613C34.0058 47.5505 34.0479 45.8313 34.2619 44.1364C34.5303 42.0076 34.8173 39.8997 34.1934 37.7895L34.1692 37.8137C34.9599 38.5816 35.7197 39.3857 36.5503 40.1073C37.4168 40.8594 38.3743 41.506 39.2492 42.2513C39.8838 42.7902 40.4482 43.4114 41.0732 44.0253C41.7061 43.0255 41.1619 41.774 41.5174 40.4904C43.0039 40.4007 44.555 40.4904 46.3986 40.4436C43.9968 38.3204 41.5062 36.6695 39.8321 34.1852L39.8029 34.2066Z" fill="#D0C801"/>
<path d="M25.1767 34.128C24.2782 36.5542 22.735 38.4449 20.2596 39.2833C17.5983 40.1861 16 42.1569 14.3277 44.4296C15.7799 44.6384 16.9502 43.8998 18.3401 43.9884C18.631 45.8537 18.4193 47.7348 18.6142 49.7751C19.0892 49.045 19.4896 48.4328 19.8872 47.8183C20.4134 47.0053 21.1087 46.4687 22.0212 46.0732C22.8369 45.7099 23.56 45.1655 24.1361 44.481C25.1183 43.3023 25.9275 41.9781 26.8143 40.7187C27.7502 39.3886 28.6918 38.0623 29.639 36.7398C29.7513 36.5818 29.9248 36.4673 30.2567 36.1592C30.0574 38.1904 29.9091 39.9773 29.7008 41.7557C29.3992 44.3326 29.3273 46.8902 30.0675 49.4145C30.2359 49.9906 30.41 50.5717 30.4965 51.1636C30.665 52.3169 30.711 53.4769 30.2854 54.5969C29.7356 56.0442 29.7137 57.5269 29.9596 59.0345C30.0836 59.7955 30.1878 60.5602 30.2724 61.3287C30.4252 62.7392 29.8793 63.3599 28.4906 63.326C27.3377 63.2967 26.1881 63.1365 25.0346 63.1568C22.9007 63.1974 20.7667 63.2837 18.6361 63.4389C16.8059 63.5709 14.9858 63.8688 13.1585 64.0031C12.3593 64.0595 11.5451 63.8581 10.7358 63.8259C8.17617 63.7238 5.61651 63.6002 3.0563 63.5749C0.758896 63.5545 0.276503 63.1348 0.351754 60.7791C0.389941 59.579 0.447222 58.3727 0.611763 57.185C0.992511 54.435 0.784728 51.7228 0.430374 48.9818C0.118139 46.568 -0.267662 44.1131 0.270887 41.6785C0.65332 39.9491 0.814491 38.2152 0.860541 36.4492C0.911644 34.506 1.12729 33.7201 3.63528 33.7071C5.20769 33.6986 6.78908 33.8583 8.35587 34.0377C10.1597 34.2442 11.8741 34.1506 13.6588 33.6332C14.9594 33.2574 16.4493 33.4318 17.8437 33.5249C19.502 33.6349 21.1452 33.9491 22.8007 34.1173C23.5481 34.1912 24.3074 34.128 25.1767 34.128Z" fill="#D0C801"/>
<path d="M41.8858 29.719C43.6329 28.4602 44.9705 27.0107 45.2081 24.8441C45.3524 23.5277 45.1811 22.2724 44.3764 21.1693C43.2291 19.5957 41.678 18.7223 39.7653 18.4447C37.8307 18.1625 36.3088 19.1008 34.6493 20.3292C35.0155 17.6418 34.3629 15.3273 33.7974 12.9943C33.4998 11.7654 33.5262 10.5213 33.9715 9.32003C34.4944 7.90947 34.5112 6.47183 34.2927 5.00936C34.1804 4.24653 34.0844 3.48144 33.9794 2.71748C33.7772 1.24711 34.3219 0.62026 35.7955 0.643957C37.2904 0.668219 38.7859 0.69135 40.2803 0.735924C43.4941 0.831842 46.676 0.439708 49.8506 0.0458794C51.1939 -0.120567 52.4844 0.102302 53.8007 0.165495C56.1863 0.284546 58.5741 0.340969 60.9625 0.41996C61.1759 0.427295 61.3898 0.412061 61.6032 0.410932C63.3902 0.401905 63.9057 0.865696 63.881 2.69547C63.8619 4.19405 63.7984 5.70392 63.5906 7.18557C63.2397 9.68226 63.4677 12.1389 63.744 14.6181C63.9759 16.7012 64.0495 18.8035 64.1567 20.8996C64.1803 21.3617 64.1006 21.8447 63.9815 22.2966C63.5485 23.9695 63.4312 25.6684 63.3778 27.3904C63.3059 29.7167 63.0633 30.1484 60.4649 30.264C59.0689 30.3261 57.6531 30.1461 56.2587 29.9746C54.2932 29.7331 52.3558 29.5965 50.4622 30.4062C50.0494 30.5822 49.5361 30.6172 49.0807 30.58C46.872 30.3977 44.6667 30.1721 42.4614 29.9503C42.3036 29.9351 42.1542 29.8301 41.8858 29.719Z" fill="#D0C801"/>
<path d="M29.6918 21.0988C29.0252 20.591 28.412 20.0562 27.7342 19.6228C25.5519 18.2286 22.7361 18.2687 20.7482 19.7791C18.8388 21.228 18.1088 22.9783 19.0135 25.4462C19.5346 26.8624 20.4859 28.1195 21.2598 29.4815C20.943 29.4815 20.5235 29.5425 20.1276 29.4708C18.0015 29.0871 15.972 29.5887 13.9632 30.1552C12.2257 30.6455 10.559 30.6275 8.8164 30.0582C7.8359 29.7382 6.71219 29.7806 5.65586 29.802C4.7259 29.8206 3.79705 30.017 2.87382 30.1693C1.49291 30.395 0.815653 29.8708 0.848224 28.4857C0.878549 27.2015 1.05488 25.9179 1.02961 24.6365C0.990865 22.6251 0.879672 20.6125 0.718501 18.6067C0.570806 16.7741 0.26194 14.9539 0.132217 13.1207C0.0726898 12.2795 0.300689 11.4213 0.348423 10.5676C0.453625 8.68685 0.539358 6.8046 0.605623 4.92085C0.639318 3.93458 0.581476 2.94606 0.608993 1.95811C0.635387 1.01529 1.08914 0.500716 2.01293 0.487174C3.20403 0.469683 4.3985 0.538519 5.58847 0.616382C8.47384 0.804268 11.3334 1.16537 14.244 0.580271C16.7088 0.0848822 19.2527 0.0611864 21.7691 0.231018C22.5256 0.281798 23.2612 0.606789 24.0188 0.691423C25.2885 0.833043 26.5672 0.90583 27.8442 0.964509C29.3813 1.0356 29.9406 1.60152 30.017 3.18078C30.1079 5.07544 29.8794 6.94303 29.6239 8.8123C29.4116 10.3577 29.4279 11.8896 30.0507 13.3639C30.1716 13.6365 30.2475 13.9272 30.2753 14.2243C30.4219 16.3317 30.1899 18.4193 29.8985 20.5013C29.876 20.7039 29.7676 20.8946 29.6918 21.0988Z" fill="#D0C801"/>
</g>
<defs>
<clipPath id="clip0_41_2">
<rect width="64" height="65" fill="white"/>
</clipPath>
</defs>
</svg>
