<svg width="177" height="148" viewBox="0 0 177 148" fill="none" xmlns="http://www.w3.org/2000/svg">
<path d="M167.121 25.0058C170.401 27.6508 173.43 30.6067 176.155 33.8218C173.44 22.9379 165.108 13.7641 154.781 9.38378C151.095 7.82085 147.051 6.81827 143.089 7.39548C136.817 8.3113 131.734 13.0169 128.098 18.2082C124.463 23.4007 121.842 29.268 117.976 34.2905C111.876 42.216 102.705 47.7121 92.8391 49.3546C92.6462 49.3871 92.3559 49.4004 92.0052 49.4064C95.4733 47.7001 98.7365 45.4997 99.8403 44.6935C105.034 40.8989 110.072 36.7331 113.791 31.484C117.511 26.2349 119.827 19.7567 119.052 13.37C118.789 11.2082 117.854 8.74873 115.748 8.19562C113.884 7.70638 112.03 8.97045 110.654 10.3189C108.232 12.6916 106.327 15.5294 104.441 18.3456C100.796 23.7863 97.1506 29.227 93.5042 34.6665C91.4882 37.6742 89.4421 40.6989 86.9899 43.374C86.8465 43.2053 86.6994 43.039 86.5392 42.8812C85.9909 42.3365 85.3775 41.84 84.6654 41.5388C83.1687 40.9049 81.4539 41.1989 79.8766 41.5918C78.8354 41.8509 77.7605 42.1847 76.8917 42.7848C74.3901 39.4492 71.1992 36.2415 68.7915 33.3144C64.9571 28.6522 61.007 24.0851 56.9473 19.6181C54.6312 17.0694 52.1284 14.4557 48.8483 13.4074C47.636 13.0206 46.2864 12.8723 45.1115 13.3592C42.7484 14.3401 42.0555 17.3695 42.1808 19.9254C42.6617 29.803 50.2292 37.8863 58.3162 43.5777C62.6603 46.6348 67.5503 49.416 72.8283 50.4126C73.3393 50.509 73.9394 50.5994 74.5672 50.6632C74.625 50.8585 74.6998 51.0452 74.7865 51.2272H45.2983C44.9006 51.2007 44.5029 51.1645 44.1041 51.1489C29.6654 50.5897 15.1726 58.0428 7.229 70.1124C11.4249 67.812 16.1402 66.466 20.9181 66.2069C16.2511 70.2064 12.9685 75.7905 11.7442 81.8132C14.94 75.9291 19.8083 70.9644 25.631 67.6565C28.6544 65.9394 31.9863 64.6476 35.4568 64.4379C35.5544 64.4319 35.6532 64.4331 35.7508 64.4295L34.3735 67.753L41.2253 67.6349V107.654V121.76V168.501C41.2253 168.501 63.4918 169.161 77.9027 169.319C97.0024 169.528 124.657 169.319 124.657 169.319C124.281 149.703 123.905 128.197 123.529 106.914V104.427L123.485 104.428C123.255 91.4173 123.025 78.5283 122.796 66.2322L128.285 66.1382L123.53 51.226H109.599C109.717 51.1621 109.841 51.1127 109.959 51.0464C121.442 44.6562 127.028 30.9249 137.889 23.5272C140.527 21.7305 143.503 20.323 146.675 19.9627C152.27 19.3277 157.93 22.1426 161.499 26.4988C165.067 30.855 166.707 36.5596 166.916 42.1871C168.165 36.5596 168.236 30.667 167.121 25.0058ZM59.9707 41.4424C56.0845 38.3647 52.808 34.5074 50.4775 30.1283C49.7364 28.7365 49.07 27.1796 49.3472 25.6276C49.4122 25.2661 49.5496 24.8829 49.8617 24.6888C50.3076 24.4117 50.8884 24.6334 51.3487 24.8889C54.2866 26.5229 56.3749 29.3029 58.4777 31.925C60.7997 34.8195 63.246 37.6152 65.8079 40.2988C67.4792 42.0497 72.4921 45.3647 72.6235 47.7591C68.6071 47.9314 63.0363 43.8705 59.9707 41.4424ZM97.9869 35.6618C100.539 31.1321 102.323 25.6252 106.914 23.185C107.325 22.9669 107.805 22.7753 108.243 22.9331C108.998 23.2055 109.061 24.2406 108.936 25.0335C108.118 30.2043 105.077 34.8316 101.225 38.3756C99.1835 40.253 92.727 46.1155 89.9313 45.2454C92.8053 42.1099 95.8384 39.4745 97.9869 35.6618Z" fill="#E3E3D5"/>
<path d="M33.9963 50.8516V161.274C33.9963 161.274 56.2629 161.935 70.6738 162.093C89.7735 162.302 117.428 162.093 117.428 162.093C116.755 127.027 116.084 85.9167 115.413 50.8516H33.9963Z" fill="#706519"/>
<path d="M33.9963 100.426L116.3 97.1992V109.293L33.9963 114.532V100.426Z" fill="#CAC131"/>
<path d="M69.0615 50.8516L70.6727 162.093L82.794 161.785V53.2616L69.0615 50.8516Z" fill="#CAC131"/>
<path d="M33.9963 43.999L27.1445 60.5236L121.054 58.9113L116.3 43.999H33.9963Z" fill="#5C520D"/>
<path d="M56.3086 46.2301C49.7882 45.9349 43.3967 44.1744 36.8751 43.9213C22.4364 43.3622 7.94355 50.8153 0 62.8848C4.19591 60.5844 8.91119 59.2384 13.6891 58.9794C9.02205 62.9788 5.73956 68.5629 4.51525 74.5857C7.71099 68.7015 12.5793 63.7368 18.402 60.429C21.4254 58.7118 24.7573 57.42 28.2278 57.2104C31.1211 57.0344 33.9975 57.6116 36.8667 58.025C44.2197 59.0854 51.903 59.0517 58.862 56.4548C63.2242 54.8268 72.168 49.7994 72.8018 44.4383C73.2814 40.387 68.5613 44.2973 66.6586 44.942C63.352 46.0639 59.7827 46.3868 56.3086 46.2301Z" fill="#CAC131"/>
<path d="M85.6101 42.1247C95.4757 40.4822 104.647 34.9861 110.747 27.0606C114.613 22.0381 117.234 16.1696 120.869 10.9783C124.505 5.78583 129.588 1.0802 135.86 0.165579C139.822 -0.412835 143.867 0.589749 147.552 2.15388C157.879 6.53536 166.21 15.708 168.926 26.5919C166.201 23.3768 163.172 20.4209 159.892 17.7759C161.008 23.4371 160.937 29.3297 159.684 34.962C159.477 29.3345 157.837 23.6299 154.269 19.2737C150.701 14.9175 145.041 12.1026 139.445 12.7376C136.273 13.0979 133.297 14.5054 130.659 16.3021C119.798 23.6998 114.21 37.4311 102.729 43.8214C97.0748 46.9677 90.2808 47.9775 83.9436 46.7134C82.6205 46.4495 76.6905 45.3168 77.2894 43.4586C77.8654 41.6716 84.2063 42.3572 85.6101 42.1247Z" fill="#CAC131"/>
<path d="M72.3898 39.908C70.075 35.0168 65.003 30.269 61.5627 26.0851C57.7283 21.4229 53.7782 16.8558 49.7184 12.3888C47.4024 9.84014 44.8995 7.22643 41.6194 6.17806C40.4072 5.79124 39.0575 5.64302 37.8826 6.12985C35.5196 7.11075 34.8267 10.1402 34.9508 12.6961C35.4316 22.5737 42.9992 30.657 51.0861 36.3484C55.4303 39.4055 60.3203 42.1867 65.5983 43.1833C68.5578 43.7436 74.3914 44.1377 72.3898 39.908ZM52.7406 34.2118C48.8544 31.1342 45.578 27.2769 43.2474 22.8978C42.5063 21.506 41.84 19.9491 42.1171 18.397C42.1822 18.0355 42.3196 17.6523 42.6317 17.4583C43.0775 17.1812 43.6583 17.4029 44.1187 17.6584C47.0565 19.2924 49.1448 22.0724 51.2476 24.6945C53.5697 27.589 56.0159 30.3847 58.579 33.0683C60.2504 34.8192 65.2633 38.1342 65.3947 40.5286C61.3771 40.7009 55.8062 36.64 52.7406 34.2118Z" fill="#CAC131"/>
<path d="M111.823 6.14023C111.56 3.97841 110.625 1.51895 108.519 0.965841C106.655 0.4766 104.801 1.74067 103.425 3.0891C101.003 5.4618 99.0979 8.29965 97.2108 11.1158C93.5656 16.5565 89.9204 21.9972 86.2752 27.4367C84.2423 30.4698 82.1817 33.5209 79.7018 36.2129C78.3413 37.6891 73.6718 40.2474 74.643 42.6442C76.8422 48.0716 90.1385 39.2701 92.6112 37.4625C97.8049 33.6679 102.843 29.5021 106.562 24.253C110.282 19.0051 112.598 12.5269 111.823 6.14023ZM101.706 17.8049C100.887 22.9757 97.8471 27.603 93.9946 31.147C91.9533 33.0244 85.4967 38.8869 82.7011 38.0169C85.5751 34.8814 88.6093 32.2472 90.7567 28.4345C93.3089 23.9048 95.0924 18.3978 99.6835 15.9576C100.094 15.7395 100.575 15.5479 101.013 15.7058C101.767 15.9757 101.831 17.012 101.706 17.8049Z" fill="#CAC131"/>
<path d="M68.2154 44.9575C66.6875 43.4644 67.0478 40.9496 67.637 38.8974C67.8961 37.9948 68.1901 37.0754 68.783 36.3476C69.7133 35.204 71.216 34.7196 72.6475 34.3641C74.2249 33.9724 75.9397 33.6772 77.4363 34.3111C78.1485 34.6123 78.7619 35.1076 79.3101 35.6535C82.2335 38.5588 82.4733 43.3006 78.3003 45.1925C75.8095 46.3204 70.2821 46.9759 68.2154 44.9575Z" fill="#CAC131"/>
</svg>
