<svg width="133" height="134" viewBox="0 0 133 134" fill="none" xmlns="http://www.w3.org/2000/svg">
<path d="M2.23231 125.911V40.1875H130.773V125.911C130.773 129.351 128.022 132.138 124.629 132.138H8.37668C4.98384 132.138 2.23231 129.351 2.23231 125.911Z" fill="white" stroke="#0C0804" stroke-width="0.0566667"/>
<path d="M37.1903 125.902C37.1903 129.091 39.5198 131.716 42.5527 132.13H8.37167C4.99283 132.13 2.22731 129.348 2.22731 125.902V40.1875H37.1903V125.902Z" fill="#F4F4F4" stroke="#0C0804" stroke-width="0.0566667"/>
<path d="M2.20398 40.1592V125.911C2.20398 129.366 4.96784 132.167 8.37668 132.167H124.629C128.038 132.167 130.801 129.366 130.801 125.911V40.1592H2.20398Z" stroke="#0C0804" stroke-width="3.107" stroke-miterlimit="10" stroke-linecap="round" stroke-linejoin="round"/>
<path d="M130.773 19.1306V40.126L2.23231 40.1261V19.1306C2.23231 15.691 4.98384 12.9033 8.37668 12.9033H124.629C128.022 12.9033 130.773 15.691 130.773 19.1306Z" fill="#706519" stroke="#0C0804" stroke-width="0.0566667"/>
<path d="M8.37167 12.9131H42.5527C39.5198 13.3265 37.1903 15.9518 37.1903 19.1404V40.1308H2.22731V19.1404C2.22731 15.6942 4.99283 12.9131 8.37167 12.9131Z" fill="white" stroke="#0C0804" stroke-width="0.0566667"/>
<path d="M130.801 40.1543V19.1306C130.801 15.6757 128.038 12.875 124.629 12.875H8.37668C4.96784 12.875 2.20398 15.6757 2.20398 19.1306V40.1544L130.801 40.1543Z" stroke="#0C0804" stroke-width="3.107" stroke-miterlimit="10" stroke-linecap="round" stroke-linejoin="round"/>
<path d="M56.8292 6.5793V26.5146H47.4797V6.5793C47.4797 3.96283 49.5727 1.8418 52.1545 1.8418C54.7363 1.8418 56.8292 3.96283 56.8292 6.5793Z" stroke="#0C0804" stroke-width="3.107" stroke-miterlimit="10" stroke-linecap="round" stroke-linejoin="round"/>
<path d="M44.121 26.5146H60.1879" stroke="#0C0804" stroke-width="3.107" stroke-miterlimit="10" stroke-linecap="round" stroke-linejoin="round"/>
<path d="M85.5255 6.5793V26.5146H76.176V6.5793C76.176 3.96283 78.269 1.8418 80.8507 1.8418C83.4326 1.8418 85.5255 3.96283 85.5255 6.5793Z" stroke="#0C0804" stroke-width="3.107" stroke-miterlimit="10" stroke-linecap="round" stroke-linejoin="round"/>
<path d="M72.8173 26.5146H88.8842" stroke="#0C0804" stroke-width="3.107" stroke-miterlimit="10" stroke-linecap="round" stroke-linejoin="round"/>
<path d="M114.222 6.5793V26.5146H104.872V6.5793C104.872 3.96283 106.965 1.8418 109.547 1.8418C112.129 1.8418 114.222 3.96283 114.222 6.5793Z" stroke="#0C0804" stroke-width="3.107" stroke-miterlimit="10" stroke-linecap="round" stroke-linejoin="round"/>
<path d="M101.514 26.5146H117.581" stroke="#0C0804" stroke-width="3.107" stroke-miterlimit="10" stroke-linecap="round" stroke-linejoin="round"/>
<path d="M28.1331 6.5793V26.5146H18.7836V6.5793C18.7836 3.96283 20.8765 1.8418 23.4583 1.8418C26.0401 1.8418 28.1331 3.96283 28.1331 6.5793Z" stroke="#0C0804" stroke-width="3.107" stroke-miterlimit="10" stroke-linecap="round" stroke-linejoin="round"/>
<path d="M15.4248 26.5146H31.4918" stroke="#0C0804" stroke-width="3.107" stroke-miterlimit="10" stroke-linecap="round" stroke-linejoin="round"/>
<path d="M71.5769 58.8091C71.5769 61.6538 69.2989 63.962 66.492 63.962C63.7011 63.962 61.4236 61.6538 61.4236 58.8091C61.4236 55.9807 63.7011 53.6724 66.492 53.6724C69.299 53.6724 71.5769 55.9807 71.5769 58.8091Z" stroke="#0C0804" stroke-width="3.107" stroke-miterlimit="10" stroke-linecap="round" stroke-linejoin="round"/>
<path d="M85.194 82.9359V104.042H47.8062V82.9359C47.8062 72.4722 56.1761 63.9905 66.5 63.9905C76.8241 63.9905 85.194 72.4723 85.194 82.9359Z" fill="white" stroke="#0C0804" stroke-width="0.0566667"/>
<path d="M66.4919 63.9907C68.4552 63.9907 70.3625 64.2922 72.1409 64.8765C64.6472 67.3563 59.2273 74.5041 59.2273 82.9282V104.044H47.8058V82.9282C47.8058 72.4783 56.1816 63.9907 66.4919 63.9907Z" fill="#706519" stroke="#0C0804" stroke-width="0.0566667"/>
<path d="M85.2223 82.9359V104.07H47.7778V82.9359C47.7778 72.4569 56.1601 63.9622 66.5 63.9622C76.8401 63.9622 85.2223 72.457 85.2223 82.9359Z" stroke="#0C0804" stroke-width="3.107" stroke-miterlimit="10" stroke-linecap="round" stroke-linejoin="round"/>
<path d="M89.5022 101.533V108.08C89.5022 109.216 88.5933 110.136 87.4729 110.136H45.5277C44.4073 110.136 43.4984 109.216 43.4984 108.08V101.533C43.4984 100.397 44.4073 99.4766 45.5277 99.4766H87.4729C88.5933 99.4766 89.5022 100.397 89.5022 101.533Z" fill="white" stroke="#0C0804" stroke-width="0.0566667"/>
<path d="M59.2275 99.4766V110.136H45.5277C44.4073 110.136 43.4984 109.216 43.4984 108.08V101.533C43.4984 100.397 44.4073 99.4766 45.5277 99.4766L59.2275 99.4766Z" fill="#706519" stroke="#0C0804" stroke-width="0.0566667"/>
<path d="M89.5278 101.53V108.073C89.5278 109.225 88.6066 110.159 87.4702 110.159H45.5301C44.3938 110.159 43.4725 109.225 43.4725 108.073V101.53C43.4725 100.378 44.3937 99.4448 45.5301 99.4448H87.4702C88.6066 99.4449 89.5278 100.378 89.5278 101.53Z" stroke="#0C0804" stroke-width="3.107" stroke-miterlimit="10" stroke-linecap="round" stroke-linejoin="round"/>
<path d="M74.877 110.187C74.8619 114.856 71.1252 118.634 66.489 118.634C61.8787 118.634 58.1426 114.856 58.1275 110.187H74.877Z" fill="#706519" stroke="#0C0804" stroke-width="0.0566667"/>
<path d="M74.9054 110.159C74.9054 114.856 71.1505 118.662 66.489 118.662C61.8534 118.662 58.0991 114.856 58.0991 110.159H74.9054Z" stroke="#0C0804" stroke-width="3.107" stroke-miterlimit="10" stroke-linecap="round" stroke-linejoin="round"/>
</svg>
