<svg width="22" height="22" viewBox="0 0 22 22" fill="none" xmlns="http://www.w3.org/2000/svg">
<path d="M16.89 3.93108L16.23 3.86107V1.64108C16.22 1.46108 16.13 1.30108 16 1.17108C15.86 1.05108 15.66 0.991075 15.46 1.00108L4.44 2.40108L4.12 2.50108V2.59108L4 2.69108V17.4311C4 17.7211 4.19 17.9911 4.47 18.0811L13.96 21.4911C14 21.5011 14.05 21.5011 14.09 21.5011C14.12 21.5011 14.15 21.5011 14.16 21.4911C14.54 21.4911 14.85 21.1811 14.85 20.8111V19.3911L16.73 19.6311H16.82C17.2 19.6311 17.51 19.3211 17.51 18.9411V4.63108C17.52 4.27108 17.26 3.98108 16.89 3.93108ZM14.27 5.86108L10.63 4.54107L15.98 5.23108L15.99 18.1911L14.7 18.0311V6.49108C14.7 6.22108 14.54 5.97108 14.27 5.86108ZM10.06 3.05107L14.83 2.46108V3.64108L10.06 3.05107ZM13.32 6.98108V19.8611L5.26 16.9511V4.06107L13.32 6.98108Z" fill="black"/>
</svg>
