<svg width="24" height="24" viewBox="0 0 24 24" fill="none" xmlns="http://www.w3.org/2000/svg">
<path d="M22.15 6.0909V6.09085C22.1499 5.93031 22.0862 5.77675 21.9729 5.66345L18.3365 2.0271C18.2232 1.9138 18.0697 1.85 17.9091 1.85H3.81819C2.73306 1.85 1.85 2.73254 1.85 3.81819V20.1818C1.85 21.2674 2.73306 22.15 3.81819 22.15H20.1818C21.2669 22.15 22.15 21.2675 22.15 20.1818V6.0909ZM6.69546 3.05908H16.3955V6.45885C16.3955 6.87719 16.0551 7.21793 15.6364 7.21793H7.45454C7.03583 7.21793 6.69546 6.87719 6.69546 6.45885V3.05908ZM18.2136 20.9409H5.78634V13.0591H18.2136V20.9409ZM20.9409 20.1818C20.9409 20.6001 20.6005 20.9409 20.1818 20.9409H19.4227V12.4545C19.4227 12.1204 19.1523 11.85 18.8182 11.85H5.18183C4.84774 11.85 4.57727 12.1204 4.57727 12.4545V20.9409H3.81819C3.39948 20.9409 3.05912 20.6001 3.05912 20.1818V3.81819C3.05912 3.39985 3.39952 3.05912 3.81819 3.05912H5.48639V6.45889C5.48634 7.5445 6.36941 8.42704 7.45454 8.42704H15.6363C16.7215 8.42704 17.6045 7.5445 17.6045 6.45885V3.05908H17.6587L20.9409 6.34126V20.1818Z" fill="#706519" stroke="#706519" stroke-width="0.3"/>
</svg>
