<svg width="20" height="18" viewBox="0 0 20 18" fill="none" xmlns="http://www.w3.org/2000/svg">
<path d="M7.91236 5.69947L7.22427 5.40109L7.91236 5.69947L9.86238 1.20254C9.87935 1.16341 9.89955 1.14516 9.91694 1.13433C9.93762 1.12145 9.96643 1.11221 10 1.11221C10.0336 1.11221 10.0624 1.12145 10.0831 1.13433C10.1004 1.14516 10.1207 1.16341 10.1376 1.20254L12.0876 5.69947L12.7757 5.40109L12.0876 5.69947C12.3267 6.25083 12.8467 6.62859 13.4449 6.6856L18.3244 7.15055C18.3668 7.1546 18.3904 7.16817 18.4061 7.18137C18.4247 7.19705 18.4424 7.2216 18.4528 7.25352C18.4632 7.28545 18.4633 7.3157 18.4574 7.33935C18.4525 7.35923 18.4414 7.38409 18.4094 7.41232L14.7352 10.6565L15.2316 11.2187L14.7352 10.6565C14.2847 11.0543 14.0861 11.6655 14.2167 12.2521L15.2824 17.0364C15.2916 17.078 15.286 17.1047 15.2783 17.1237C15.2691 17.1462 15.2513 17.1706 15.2241 17.1904C15.1969 17.2101 15.1682 17.2196 15.1439 17.2213C15.1235 17.2228 15.0964 17.2199 15.0597 17.1982L10.8388 14.7063C10.3213 14.4008 9.67866 14.4008 9.16115 14.7063L4.94032 17.1982C4.90359 17.2199 4.87652 17.2228 4.85608 17.2213C4.83178 17.2196 4.80305 17.2101 4.77589 17.1904C4.74873 17.1706 4.73085 17.1462 4.7217 17.1237C4.71399 17.1047 4.70837 17.078 4.71765 17.0364L5.78327 12.2521C5.91393 11.6655 5.71532 11.0543 5.26484 10.6565L1.59059 7.41232C1.55862 7.38409 1.54751 7.35923 1.54258 7.33935C1.53672 7.3157 1.53684 7.28545 1.54721 7.25352C1.55759 7.2216 1.57527 7.19705 1.59391 7.18137C1.60959 7.16817 1.63319 7.1546 1.67564 7.15055L6.55507 6.6856C7.15333 6.62859 7.67327 6.25083 7.91236 5.69947Z" stroke="#0C0804" stroke-width="1.5"/>
</svg>
