<svg width="24" height="25" viewBox="0 0 24 25" fill="none" xmlns="http://www.w3.org/2000/svg">
<g clip-path="url(#clip0_353_5128)">
<path d="M18.8473 23.5371C17.5408 24.8036 16.1143 24.6036 14.7412 24.0037C13.288 23.3904 11.9548 23.3638 10.4217 24.0037C8.50195 24.8303 7.48874 24.5903 6.34222 23.5371C-0.163623 16.8313 0.796256 6.61923 8.18199 6.24594C9.98176 6.33926 11.2349 7.23248 12.2881 7.31247C13.8613 6.99251 15.3678 6.07263 17.0475 6.19261C19.0606 6.35259 20.5804 7.15249 21.5803 8.59231C17.4208 11.0853 18.4074 16.5646 22.2202 18.0978C21.4603 20.0975 20.4738 22.0839 18.834 23.5504L18.8473 23.5371ZM12.1548 6.16595C11.9548 3.19299 14.3679 0.73997 17.1409 0.5C17.5275 3.93957 14.0213 6.49924 12.1548 6.16595Z" fill="black"/>
</g>
<defs>
<clipPath id="clip0_353_5128">
<rect width="24" height="24" fill="white" transform="translate(0 0.5)"/>
</clipPath>
</defs>
</svg>
