<svg width="24" height="24" viewBox="0 0 24 24" fill="none" xmlns="http://www.w3.org/2000/svg">
<circle opacity="0.1" cx="12" cy="12" r="12" fill="#1E1515"/>
<path d="M9.9336 14.5892L7.69677 12.2712C7.57624 12.1463 7.41276 12.0761 7.24231 12.0761C7.07185 12.0761 6.90838 12.1463 6.78785 12.2712C6.66732 12.3961 6.59961 12.5655 6.59961 12.7421C6.59961 12.8296 6.61623 12.9162 6.64853 12.997C6.68083 13.0778 6.72817 13.1512 6.78785 13.2131L9.48237 16.0054C9.73377 16.2659 10.1399 16.2659 10.3913 16.0054L17.2114 8.93776C17.3319 8.81286 17.3996 8.64345 17.3996 8.46681C17.3996 8.29017 17.3319 8.12076 17.2114 7.99586C17.0908 7.87095 16.9274 7.80078 16.7569 7.80078C16.5865 7.80078 16.423 7.87095 16.3025 7.99586L9.9336 14.5892Z" fill="#1E1515"/>
</svg>
