<svg width="22" height="22" viewBox="0 0 22 22" fill="none" xmlns="http://www.w3.org/2000/svg">
<path d="M5.5 9.16665V7.33331C5.5 4.29915 6.41667 1.83331 11 1.83331C15.5833 1.83331 16.5 4.29915 16.5 7.33331V9.16665" stroke="#0C0804" stroke-width="1.5" stroke-linecap="round" stroke-linejoin="round"/>
<path d="M11 16.9583C12.2657 16.9583 13.2917 15.9323 13.2917 14.6667C13.2917 13.401 12.2657 12.375 11 12.375C9.73436 12.375 8.70834 13.401 8.70834 14.6667C8.70834 15.9323 9.73436 16.9583 11 16.9583Z" stroke="#0C0804" stroke-width="1.5" stroke-linecap="round" stroke-linejoin="round"/>
<path d="M15.5833 20.1667H6.41668C2.75001 20.1667 1.83334 19.25 1.83334 15.5834V13.75C1.83334 10.0834 2.75001 9.16669 6.41668 9.16669H15.5833C19.25 9.16669 20.1667 10.0834 20.1667 13.75V15.5834C20.1667 19.25 19.25 20.1667 15.5833 20.1667Z" stroke="#0C0804" stroke-width="1.5" stroke-linecap="round" stroke-linejoin="round"/>
</svg>
