<svg width="56" height="56" viewBox="0 0 56 56" fill="none" xmlns="http://www.w3.org/2000/svg">
<path d="M0 10C0 4.47715 4.47715 0 10 0H46C51.5229 0 56 4.47715 56 10V46C56 51.5229 51.5228 56 46 56H10C4.47715 56 0 51.5228 0 46V10Z" fill="#FADCDA"/>
<path d="M28 22.3335V29.3335" stroke="#E45244" stroke-width="2" stroke-linecap="round" stroke-linejoin="round"/>
<path d="M40.1071 23.4399V32.5598C40.1071 34.0532 39.3071 35.4399 38.0138 36.1999L30.0937 40.7732C28.8004 41.5199 27.2004 41.5199 25.8937 40.7732L17.9737 36.1999C16.6804 35.4532 15.8804 34.0665 15.8804 32.5598V23.4399C15.8804 21.9465 16.6804 20.5598 17.9737 19.7998L25.8937 15.2265C27.1871 14.4798 28.7871 14.4798 30.0937 15.2265L38.0138 19.7998C39.3071 20.5598 40.1071 21.9332 40.1071 23.4399Z" stroke="#E45244" stroke-width="2" stroke-linecap="round" stroke-linejoin="round"/>
<path d="M28 33.6001V33.7334" stroke="#E45244" stroke-width="2" stroke-linecap="round" stroke-linejoin="round"/>
</svg>
