<svg width="25" height="24" viewBox="0 0 25 24" fill="none" xmlns="http://www.w3.org/2000/svg">
<g clip-path="url(#clip0_1196_6218)">
<path d="M18.525 4.52029H16.5714V2.21114C16.5714 1.43999 16.1798 0.737479 15.5232 0.331448C14.8667 -0.0734582 14.0633 -0.109552 13.3739 0.23512C10.1932 1.82549 4.65431 4.59454 4.65431 4.59454C4.41609 4.7136 4.26562 4.95707 4.26562 5.22337V23.2969C4.26562 23.6852 4.58044 23.9999 4.96875 23.9999H18.525C19.7432 23.9999 20.7343 23.0089 20.7343 21.7908V6.72951C20.7343 5.51132 19.7432 4.52029 18.525 4.52029ZM14.0029 1.4909C14.2535 1.36565 14.5458 1.37887 14.7842 1.52592C15.0193 1.67128 15.1652 1.93312 15.1652 2.20935V4.5187H7.94733C9.80733 3.58875 12.2593 2.36278 14.0029 1.4909ZM19.3281 21.7906C19.3281 22.2334 18.9678 22.5937 18.525 22.5937H5.67187V5.92495H18.525C18.9678 5.92495 19.3281 6.28523 19.3281 6.72806V21.7906Z" fill="#706519"/>
<path d="M14.7595 9.60205C13.7137 9.60205 12.9793 10.0839 12.5001 10.6498C10.8116 8.59222 7.29538 9.75158 7.27832 12.5646C7.27832 15.8592 11.5426 18.9161 12.5001 18.9161C13.4599 18.9161 17.722 15.855 17.722 12.5646C17.722 10.9311 16.3931 9.60205 14.7595 9.60205ZM12.5001 17.4856C11.5307 17.0504 8.68457 14.7163 8.68457 12.5646C8.68457 11.7064 9.38273 11.0083 10.2408 11.0083C11.3576 11.0083 11.7446 12.0225 11.8186 12.2859C11.9963 13.0026 13.0042 13.0022 13.1817 12.2859C13.2563 12.0203 13.644 11.0083 14.7595 11.0083C15.6176 11.0083 16.3157 11.7065 16.3157 12.5646C16.3157 14.7147 13.4701 17.0502 12.5001 17.4856Z" fill="#706519"/>
</g>
<defs>
<clipPath id="clip0_1196_6218">
<rect width="24" height="24" fill="white" transform="translate(0.5)"/>
</clipPath>
</defs>
</svg>
