<svg width="24" height="25" viewBox="0 0 24 25" fill="none" xmlns="http://www.w3.org/2000/svg">
<path d="M15.023 10.813C15.023 10.4403 14.7208 10.138 14.348 10.138H6.92305C6.5503 10.138 6.24805 10.4403 6.24805 10.813C6.24805 11.1858 6.5503 11.488 6.92305 11.488H14.348C14.7208 11.488 15.023 11.1858 15.023 10.813Z" fill="#0C0804"/>
<path d="M6.92109 13.5468C6.54834 13.5468 6.24609 13.849 6.24609 14.2218C6.24609 14.5945 6.54834 14.8968 6.92109 14.8968H10.8578C11.2306 14.8968 11.5328 14.5945 11.5328 14.2218C11.5328 13.849 11.2306 13.5468 10.8578 13.5468H6.92109Z" fill="#0C0804"/>
<path d="M19.4702 10.8505C19.0974 10.8505 18.7952 11.1528 18.7952 11.5255V16.9848C18.7952 18.0063 17.9642 18.8373 16.9427 18.8373H12.4277C12.2814 18.8373 12.1389 18.8845 12.0219 18.973L8.12345 21.9048C8.02445 21.979 7.93144 21.9483 7.88494 21.9228C7.83769 21.8988 7.7597 21.8395 7.7627 21.7188L7.8377 19.5363C7.84369 19.3533 7.77544 19.1755 7.64869 19.0443C7.52194 18.9123 7.34644 18.838 7.16344 18.838H4.0277C3.0062 18.838 2.1752 18.0078 2.1752 16.9855V8.06051C2.1752 7.03526 3.0062 6.20126 4.0277 6.20126H12.3452C12.7179 6.20126 13.0202 5.89901 13.0202 5.52626C13.0202 5.15351 12.7179 4.85126 12.3452 4.85126H4.0277C2.2622 4.85126 0.825195 6.29126 0.825195 8.06126V16.9855C0.825195 18.751 2.2622 20.1888 4.0277 20.1888H6.46445L6.41344 21.6753C6.39545 22.2858 6.72019 22.8408 7.26244 23.122C7.49419 23.2428 7.74394 23.302 7.99144 23.302C8.32369 23.302 8.65295 23.1948 8.93344 22.9855L12.6527 20.1888H16.9419C18.7074 20.1888 20.1444 18.7518 20.1444 16.9855V11.5263C20.1452 11.1528 19.8429 10.8505 19.4702 10.8505Z" fill="#0C0804"/>
<path d="M23.1193 4.42076C22.997 4.04576 22.6963 3.76526 22.3145 3.67076L20.5895 3.24101L19.6475 1.73351C19.2298 1.06301 18.1393 1.06451 17.7223 1.73351L16.7803 3.24101L15.0553 3.67076C14.6735 3.76526 14.372 4.04576 14.2505 4.42076C14.129 4.79576 14.207 5.20001 14.4605 5.50226L15.6035 6.86276L15.479 8.63576C15.4513 9.02876 15.6253 9.40151 15.944 9.63326C16.142 9.77726 16.3745 9.85151 16.61 9.85151C16.7533 9.85151 16.898 9.82376 17.0368 9.76751L18.6853 9.10151L20.333 9.76751C20.6983 9.91601 21.1063 9.86501 21.4258 9.63401C21.7445 9.40226 21.9185 9.02951 21.8915 8.63576L21.767 6.86276L22.91 5.50151C23.1628 5.20001 23.2415 4.79576 23.1193 4.42076ZM20.5573 6.20351C20.4448 6.33776 20.3885 6.51026 20.4013 6.68576L20.5213 8.38826L18.9388 7.74851C18.8578 7.71551 18.7715 7.69901 18.686 7.69901C18.6005 7.69901 18.5143 7.71551 18.4333 7.74851L16.8515 8.38826L16.9708 6.68576C16.9828 6.51101 16.9265 6.33776 16.8148 6.20351L15.7175 4.89701L17.3735 4.48376C17.543 4.44101 17.69 4.33526 17.7823 4.18676L18.6868 2.74001L19.5913 4.18676C19.6843 4.33526 19.8305 4.44176 20 4.48376L21.656 4.89701L20.5573 6.20351Z" fill="#0C0804"/>
</svg>
