<svg width="18" height="19" viewBox="0 0 18 19" fill="none" xmlns="http://www.w3.org/2000/svg">
<path d="M7.71607 1.20152C8.1202 -0.0422499 9.8798 -0.0422516 10.2839 1.20152L11.3911 4.60897C11.5718 5.1652 12.0901 5.5418 12.675 5.5418H16.2578C17.5656 5.5418 18.1093 7.21528 17.0513 7.98397L14.1528 10.0899C13.6796 10.4337 13.4816 11.043 13.6623 11.5992L14.7695 15.0067C15.1736 16.2505 13.7501 17.2847 12.6921 16.516L9.79351 14.4101C9.32035 14.0663 8.67965 14.0663 8.20649 14.4101L5.30794 16.516C4.24993 17.2847 2.82638 16.2505 3.2305 15.0067L4.33765 11.5992C4.51838 11.043 4.32039 10.4337 3.84723 10.0899L0.948685 7.98397C-0.109328 7.21528 0.434418 5.5418 1.74219 5.5418H5.325C5.90985 5.5418 6.4282 5.1652 6.60893 4.60897L7.71607 1.20152Z" fill="#9B9B9B"/>
</svg>
