<svg width="25" height="24" viewBox="0 0 25 24" fill="none" xmlns="http://www.w3.org/2000/svg">
<path fill-rule="evenodd" clip-rule="evenodd" d="M4.25 1.5C3.01647 1.5 2 2.51648 2 3.75V14.25C2 15.4835 3.01647 16.5 4.25 16.5H5V17.25C5 18.4835 6.01647 19.5 7.25 19.5H8V20.25C8 21.4835 9.01647 22.5 10.25 22.5H20.75C21.9835 22.5 23 21.4835 23 20.25V9.75C23 8.51648 21.9835 7.5 20.75 7.5H20V6.75C20 5.51648 18.9835 4.5 17.75 4.5H17V3.75C17 2.51648 15.9835 1.5 14.75 1.5H4.25ZM4.25 3H14.75C15.1785 3 15.5 3.32153 15.5 3.75V4.5H7.25C6.01647 4.5 5 5.51648 5 6.75V15H4.25C3.82153 15 3.5 14.6785 3.5 14.25V3.75C3.5 3.32153 3.82153 3 4.25 3ZM7.25 6H17.75C18.1785 6 18.5 6.32153 18.5 6.75V7.5H10.25C9.01647 7.5 8 8.51648 8 9.75V18H7.25C6.82153 18 6.5 17.6785 6.5 17.25V6.75C6.5 6.32153 6.82153 6 7.25 6ZM10.25 9H20.75C21.1785 9 21.5 9.32153 21.5 9.75V20.25C21.5 20.6785 21.1785 21 20.75 21H10.25C9.82153 21 9.5 20.6785 9.5 20.25C9.5 16.75 9.5 13.25 9.5 9.75C9.5 9.32153 9.82153 9 10.25 9Z" fill="#706519"/>
<path fill-rule="evenodd" clip-rule="evenodd" d="M15.5 10.5C15.3011 10.5 15.1103 10.579 14.9697 10.7197C14.829 10.8603 14.75 11.0511 14.75 11.25V14.25H11.75C11.5511 14.25 11.3603 14.329 11.2197 14.4697C11.079 14.6103 11 14.8011 11 15C11 15.1989 11.079 15.3897 11.2197 15.5303C11.3603 15.671 11.5511 15.75 11.75 15.75H14.75V18.75C14.75 18.9489 14.829 19.1397 14.9697 19.2803C15.1103 19.421 15.3011 19.5 15.5 19.5C15.6989 19.5 15.8897 19.421 16.0303 19.2803C16.171 19.1397 16.25 18.9489 16.25 18.75V15.75H19.25C19.4489 15.75 19.6397 15.671 19.7803 15.5303C19.921 15.3897 20 15.1989 20 15C20 14.8011 19.921 14.6103 19.7803 14.4697C19.6397 14.329 19.4489 14.25 19.25 14.25H16.25V11.25C16.25 11.0511 16.171 10.8603 16.0303 10.7197C15.8897 10.579 15.6989 10.5 15.5 10.5Z" fill="#706519"/>
</svg>
