<svg width="137" height="136" viewBox="0 0 137 136" fill="none" xmlns="http://www.w3.org/2000/svg">
<g clip-path="url(#clip0_214_2254)">
<path d="M124.91 122.239C125.253 121.706 125.346 121.053 125.147 120.456L96.8018 33.3289C96.4939 32.3597 95.5248 31.7688 94.533 31.8869L86.177 32.8813L85.0394 23.3225C83.49 10.3031 71.6577 0.968526 58.6383 2.51796C45.6189 4.06739 36.3079 15.9183 37.8574 28.9376L38.995 38.4964L25.9967 40.0434C25.7013 40.0785 25.4345 40.1745 25.1963 40.3312C25.1355 40.3599 25.0773 40.4096 24.9979 40.4618C24.8416 40.5874 24.6879 40.7341 24.5789 40.8969C24.5417 40.9441 24.4995 40.9491 24.4623 40.9964C24.4462 41.0411 24.4512 41.0833 24.4116 41.1094C24.3075 41.3144 24.2457 41.5143 24.2076 41.7329C24.194 41.7987 24.1568 41.8459 24.1457 41.9328C24.1483 41.9539 24.1272 41.9565 24.1297 41.9776L17.0248 133.324C16.971 133.951 17.2151 134.563 17.6738 135.001C18.135 135.46 18.7585 135.664 19.3915 135.588L123.378 123.213C124.011 123.138 124.569 122.793 124.91 122.239ZM42.0776 28.4354C40.8044 17.7371 48.4634 8.00887 59.1406 6.73818C69.8177 5.46749 79.546 13.1265 80.8192 23.8248L83.1647 43.5332C83.3003 44.6727 82.4823 45.7116 81.3429 45.8472C80.1823 45.9853 79.1434 45.1674 79.0078 44.0279L76.6623 24.3195C75.6628 15.9212 68.0335 9.89562 59.6353 10.8951C51.237 11.8946 45.235 19.5425 46.2345 27.9407L48.58 47.6491C48.7156 48.7886 47.8976 49.8275 46.7582 49.9631C45.5976 50.1012 44.5587 49.2833 44.4231 48.1438L42.0776 28.4354ZM72.4421 24.8217L73.5796 34.3805L51.5923 36.9972L50.4547 27.4384C49.7315 21.3613 54.0815 15.836 60.1375 15.1153C66.1935 14.3946 71.7188 18.7446 72.4421 24.8217ZM56.0694 126.943L29.0733 43.9572L39.4972 42.7167L40.2029 48.6461C40.6147 52.1067 43.7788 54.5977 47.2604 54.1833C50.721 53.7715 53.2121 50.6074 52.8002 47.1469L52.0946 41.2175L74.0819 38.6007L74.7876 44.5302C75.1994 47.9907 78.3634 50.4818 81.8451 50.0674C85.3057 49.6556 87.7968 46.4915 87.3849 43.0309L86.6792 37.1015L93.305 36.313L115.685 105.147L79.859 114.139C78.6984 114.277 77.8619 115.339 78 116.5C78.1381 117.661 79.2007 118.497 80.3612 118.359L117.031 109.267L120.301 119.299L56.0694 126.943Z" fill="#231F20"/>
<path d="M59 6.5C48.3228 7.77069 40.7571 18.0269 42.0303 28.7251L44.3758 48.4335C44.5114 49.573 45.5503 50.3909 46.7109 50.2528C47.8504 50.1172 48.6683 49.0783 48.5327 47.9388L46.5 28.5C45.5005 20.1018 51.1897 12.1843 59.588 11.1848C67.9862 10.1853 75.6155 16.211 76.615 24.6092L78.9605 44.3176C79.0961 45.4571 80.135 46.275 81.2956 46.1369C82.4351 46.0013 83.253 44.9624 83.1174 43.8229L81 23.5C79.7268 12.8017 69.6772 5.22931 59 6.5Z" fill="#706519"/>
<path d="M34.3572 109.722L32.4274 110.239C28.8774 111.191 26.7706 114.84 27.7219 118.39C28.8169 122.476 33.027 124.907 37.0994 123.816C41.1718 122.725 43.6025 118.515 42.5075 114.428C41.5563 110.878 37.9073 108.771 34.3572 109.722Z" fill="#706519"/>
<path d="M52.7793 117.028L116.779 109.028L120.279 119.528L55.7793 127.028L52.7793 117.028Z" fill="#706519"/>
</g>
<defs>
<clipPath id="clip0_214_2254">
<rect width="136" height="136" fill="white" transform="translate(0.5)"/>
</clipPath>
</defs>
</svg>
