<svg width="56" height="56" viewBox="0 0 56 56" fill="none" xmlns="http://www.w3.org/2000/svg">
<rect width="56" height="56" rx="10" fill="#DBEDF7"/>
<path d="M18.2935 25.8345H17.7935V26.3345V36.0011C17.7935 37.7215 18.0055 39.0003 18.8166 39.8114C19.6277 40.6225 20.9065 40.8345 22.6268 40.8345H33.2935C35.0138 40.8345 36.2926 40.6225 37.1037 39.8114C37.9148 39.0003 38.1268 37.7215 38.1268 36.0011V26.3345V25.8345H37.6268H18.2935ZM33.2935 41.8345H22.6268C20.3927 41.8345 18.9759 41.3965 18.1037 40.5243C17.2314 39.652 16.7935 38.2352 16.7935 36.0011V25.3345C16.7935 25.0639 17.0229 24.8345 17.2935 24.8345H38.6268C38.8973 24.8345 39.1268 25.0639 39.1268 25.3345V36.0011C39.1268 38.2352 38.6888 39.652 37.8166 40.5243C36.9443 41.3965 35.5276 41.8345 33.2935 41.8345Z" fill="#2191CC" stroke="#2191CC"/>
<path d="M37.9992 25.8322H17.9992C16.9266 25.8322 16.1515 25.5274 15.6444 25.0203C15.1373 24.5132 14.8325 23.7382 14.8325 22.6655V21.3322C14.8325 20.2596 15.1373 19.4845 15.6444 18.9774C16.1515 18.4703 16.9266 18.1655 17.9992 18.1655H37.9992C39.0286 18.1655 39.8079 18.4813 40.329 19.0024C40.85 19.5235 41.1658 20.3028 41.1658 21.3322V22.6655C41.1658 23.6949 40.85 24.4742 40.329 24.9953C39.8079 25.5164 39.0286 25.8322 37.9992 25.8322ZM17.9992 19.1655C17.3514 19.1655 16.7654 19.2822 16.3573 19.6903C15.9492 20.0984 15.8325 20.6844 15.8325 21.3322V22.6655C15.8325 23.3133 15.9492 23.8994 16.3573 24.3074C16.7654 24.7155 17.3514 24.8322 17.9992 24.8322H37.9992C38.6413 24.8322 39.2191 24.6994 39.6261 24.2924C40.0331 23.8854 40.1658 23.3076 40.1658 22.6655V21.3322C40.1658 20.6901 40.0331 20.1123 39.6261 19.7053C39.2191 19.2983 38.6413 19.1655 37.9992 19.1655H17.9992Z" fill="#2191CC" stroke="#2191CC"/>
<path d="M27.9799 18.8569L27.9769 18.8639L27.9741 18.871C27.9056 19.0454 27.7355 19.1672 27.5195 19.1672H20.1595C20.0223 19.1672 19.8878 19.1079 19.7935 19.008C19.1607 18.3103 19.1844 17.2427 19.8464 16.5807L21.7397 14.6874C22.4244 14.0026 23.5612 14.0026 24.2459 14.6874L27.8726 18.314C28.0121 18.4536 28.0571 18.6767 27.9799 18.8569ZM20.3928 17.6672V18.1672H20.8928H25.1195H26.3325L25.4718 17.3124L23.5397 15.3936C23.5394 15.3934 23.5392 15.3931 23.5389 15.3929C23.237 15.0917 22.7476 15.0919 22.4459 15.3936L20.5526 17.2869L20.4061 17.4334V17.5504C20.3968 17.5907 20.3928 17.6299 20.3928 17.6672ZM21.255 18.0054L21.2573 18.0031C21.2559 18.0045 21.2546 18.0058 21.2538 18.0066L21.255 18.0054ZM20.5459 17.3003L20.5454 17.3008L20.5459 17.3003Z" fill="#2191CC" stroke="#2191CC"/>
<path d="M28.0122 18.871L28.0094 18.8639L28.0064 18.8569C27.9321 18.6836 27.968 18.4694 28.1184 18.3093L31.7403 14.6874C32.4251 14.0026 33.5618 14.0026 34.2466 14.6874L36.1399 16.5807C36.8059 17.2467 36.8346 18.3134 36.194 19.0067C36.0996 19.1074 35.9646 19.1672 35.8268 19.1672H28.4668C28.2601 19.1672 28.0793 19.0419 28.0122 18.871ZM30.5399 17.3136L29.6863 18.1672H30.8934H35.1201H36.3272L35.4737 17.3136L35.4603 17.3003L35.447 17.2869L33.5537 15.3936C33.2517 15.0917 32.7618 15.0917 32.4599 15.3936L30.5399 17.3136Z" fill="#2191CC" stroke="#2191CC"/>
<path d="M31.5137 33.7853L31.5137 33.7853L31.5077 33.7886C30.916 34.1104 30.195 34.072 29.6249 33.6924C29.6246 33.6922 29.6243 33.692 29.6239 33.6918L28.4475 32.8987C28.1557 32.6882 27.7836 32.7095 27.5105 32.891C27.5101 32.8912 27.5097 32.8915 27.5092 32.8918L26.258 33.7171L26.2579 33.717L26.2494 33.7229C25.9481 33.9306 25.5942 34.0345 25.2533 34.0345C24.9616 34.0345 24.6569 33.9612 24.3845 33.8147C23.7851 33.4883 23.4199 32.8699 23.4199 32.2011V25.3345C23.4199 25.0639 23.6494 24.8345 23.9199 24.8345H31.9733C32.2438 24.8345 32.4733 25.0639 32.4733 25.3345V32.1745C32.4733 32.8598 32.1057 33.4738 31.5137 33.7853ZM25.7084 32.8896L25.7084 32.8897L25.7152 32.8852L26.9686 32.0585L26.969 32.0582C27.5899 31.6478 28.3844 31.6505 28.9876 32.0561L30.1738 32.8557L30.1737 32.8559L30.1848 32.863C30.5341 33.0852 30.8768 32.9915 31.0572 32.8832C31.1808 32.809 31.4733 32.597 31.4733 32.1611V26.3211V25.8211H30.9733H24.9199H24.4199V26.3211V26.3345V32.1878C24.4199 32.6237 24.7123 32.8357 24.836 32.9099C25.0164 33.0181 25.3591 33.1119 25.7084 32.8896Z" fill="#2191CC" stroke="#2191CC"/>
</svg>
