<svg width="21" height="20" viewBox="0 0 21 20" fill="none" xmlns="http://www.w3.org/2000/svg">
<path d="M10.4999 11.8079C8.7249 11.8079 7.2749 10.3662 7.2749 8.58288C7.2749 6.79954 8.7249 5.36621 10.4999 5.36621C12.2749 5.36621 13.7249 6.80788 13.7249 8.59121C13.7249 10.3745 12.2749 11.8079 10.4999 11.8079ZM10.4999 6.61621C9.41657 6.61621 8.5249 7.49954 8.5249 8.59121C8.5249 9.68288 9.40824 10.5662 10.4999 10.5662C11.5916 10.5662 12.4749 9.68288 12.4749 8.59121C12.4749 7.49954 11.5832 6.61621 10.4999 6.61621Z" fill="#706519"/>
<path d="M10.5001 18.967C9.26681 18.967 8.02515 18.5003 7.05848 17.5753C4.60015 15.2087 1.88348 11.4337 2.90848 6.94199C3.83348 2.86699 7.39181 1.04199 10.5001 1.04199C10.5001 1.04199 10.5001 1.04199 10.5085 1.04199C13.6168 1.04199 17.1751 2.86699 18.1001 6.95033C19.1168 11.442 16.4001 15.2087 13.9418 17.5753C12.9751 18.5003 11.7335 18.967 10.5001 18.967ZM10.5001 2.29199C8.07515 2.29199 4.95848 3.58366 4.13348 7.21699C3.23348 11.142 5.70015 14.5253 7.93348 16.667C9.37515 18.0587 11.6335 18.0587 13.0751 16.667C15.3001 14.5253 17.7668 11.142 16.8835 7.21699C16.0501 3.58366 12.9251 2.29199 10.5001 2.29199Z" fill="#706519"/>
</svg>
