<svg width="23" height="22" viewBox="0 0 23 22" fill="none" xmlns="http://www.w3.org/2000/svg">
<path d="M11.5 9.64381C11.1242 9.64381 10.8125 9.33214 10.8125 8.95631V5.90381C10.8125 5.52798 11.1242 5.21631 11.5 5.21631C11.8758 5.21631 12.1875 5.52798 12.1875 5.90381V8.95631C12.1875 9.34131 11.8758 9.64381 11.5 9.64381Z" fill="#0C0804"/>
<path d="M11.5178 18.6542C9.15281 18.6542 6.79697 18.2784 4.55114 17.5267C3.71697 17.2517 3.08447 16.6559 2.80947 15.9042C2.53447 15.1526 2.62614 14.2909 3.0753 13.5392L4.23947 11.5959C4.49614 11.1651 4.7253 10.3584 4.7253 9.85422V7.92922C4.7253 4.18005 7.76864 1.13672 11.5178 1.13672C15.267 1.13672 18.3103 4.18005 18.3103 7.92922V9.85422C18.3103 10.3492 18.5395 11.1651 18.7961 11.5959L19.9603 13.5392C20.3911 14.2542 20.4645 15.1067 20.1803 15.8859C19.8961 16.6651 19.2728 17.2609 18.4845 17.5267C16.2386 18.2876 13.8828 18.6542 11.5178 18.6542ZM11.5178 2.52089C8.52947 2.52089 6.1003 4.95005 6.1003 7.93839V9.86339C6.1003 10.6059 5.80697 11.6784 5.42197 12.3109L4.2578 14.2634C4.01947 14.6576 3.96447 15.0792 4.10197 15.4459C4.23947 15.8126 4.55114 16.0876 4.99114 16.2342C9.2078 17.6367 13.8461 17.6367 18.0628 16.2342C18.457 16.1059 18.7595 15.8126 18.897 15.4276C19.0436 15.0426 18.9978 14.6209 18.787 14.2634L17.6228 12.3201C17.2378 11.6876 16.9445 10.6151 16.9445 9.87255V7.94755C16.9353 4.95005 14.5061 2.52089 11.5178 2.52089Z" fill="#0C0804"/>
<path d="M11.4998 20.992C10.5189 20.992 9.55643 20.5886 8.85977 19.892C8.1631 19.1953 7.75977 18.2328 7.75977 17.252H9.13477C9.13477 17.8753 9.39143 18.4803 9.83143 18.9203C10.2714 19.3603 10.8764 19.617 11.4998 19.617C12.8014 19.617 13.8648 18.5536 13.8648 17.252H15.2398C15.2398 19.3145 13.5623 20.992 11.4998 20.992Z" fill="#0C0804"/>
</svg>
