<svg width="40" height="40" viewBox="0 0 40 40" fill="none" xmlns="http://www.w3.org/2000/svg">
<rect x="0.5" y="0.5" width="39" height="39" rx="19.5" stroke="white"/>
<path d="M22.8859 20C22.8859 20.5696 22.7166 21.1264 22.3995 21.6C22.0824 22.0737 21.6317 22.4428 21.1044 22.6608C20.5771 22.8788 19.9969 22.9358 19.4371 22.8247C18.8773 22.7135 18.3631 22.4392 17.9595 22.0365C17.5559 21.6337 17.2811 21.1205 17.1697 20.5619C17.0584 20.0032 17.1155 19.4241 17.3339 18.8979C17.5524 18.3716 17.9222 17.9218 18.3968 17.6054C18.8714 17.2889 19.4293 17.12 20.0001 17.12C20.7647 17.1224 21.4973 17.4266 22.038 17.9662C22.5787 18.5057 22.8835 19.2369 22.8859 20ZM29.0182 16.04V23.96C29.0182 25.2967 28.4861 26.5786 27.539 27.5238C26.592 28.469 25.3074 29 23.968 29H16.0321C14.6927 29 13.4082 28.469 12.4611 27.5238C11.514 26.5786 10.9819 25.2967 10.9819 23.96V16.04C10.9819 14.7033 11.514 13.4214 12.4611 12.4762C13.4082 11.531 14.6927 11 16.0321 11H23.968C25.3074 11 26.592 11.531 27.539 12.4762C28.4861 13.4214 29.0182 14.7033 29.0182 16.04ZM24.3288 20C24.3288 19.1456 24.0749 18.3104 23.5992 17.5999C23.1236 16.8895 22.4476 16.3358 21.6566 16.0088C20.8656 15.6819 19.9953 15.5963 19.1556 15.763C18.3159 15.9297 17.5446 16.3411 16.9392 16.9453C16.3338 17.5495 15.9216 18.3192 15.7545 19.1572C15.5875 19.9952 15.6732 20.8638 16.0009 21.6532C16.3285 22.4426 16.8833 23.1173 17.5952 23.5919C18.307 24.0666 19.1439 24.32 20.0001 24.32C21.1481 24.32 22.2491 23.8649 23.0609 23.0547C23.8727 22.2445 24.3288 21.1457 24.3288 20ZM25.7717 15.32C25.7717 15.1064 25.7082 14.8976 25.5893 14.72C25.4704 14.5424 25.3014 14.404 25.1036 14.3222C24.9059 14.2405 24.6883 14.2191 24.4784 14.2608C24.2684 14.3024 24.0756 14.4053 23.9243 14.5563C23.7729 14.7074 23.6699 14.8998 23.6281 15.1093C23.5864 15.3188 23.6078 15.536 23.6897 15.7333C23.7716 15.9306 23.9103 16.0993 24.0883 16.218C24.2662 16.3367 24.4755 16.4 24.6895 16.4C24.9765 16.4 25.2518 16.2862 25.4547 16.0837C25.6577 15.8811 25.7717 15.6064 25.7717 15.32Z" fill="white"/>
</svg>
