<svg width="18" height="19" viewBox="0 0 18 19" fill="none" xmlns="http://www.w3.org/2000/svg">
<g opacity="0.5">
<rect y="0.5" width="18" height="18" rx="4" fill="#cac131"/>
<path d="M8.14405 4.13434C8.41347 3.30516 9.58653 3.30517 9.85595 4.13435L10.594 6.40598C10.7145 6.7768 11.0601 7.02786 11.45 7.02786H13.8385C14.7104 7.02786 15.0729 8.14352 14.3675 8.65598L12.4352 10.0599C12.1197 10.2891 11.9877 10.6953 12.1082 11.0662L12.8463 13.3378C13.1157 14.167 12.1667 14.8565 11.4614 14.344L9.52901 12.9401C9.21357 12.7109 8.78643 12.7109 8.47099 12.9401L6.53862 14.344C5.83328 14.8565 4.88425 14.167 5.15367 13.3378L5.89177 11.0662C6.01225 10.6953 5.88026 10.2891 5.56482 10.0599L3.63245 8.65598C2.92711 8.14352 3.28961 7.02786 4.16146 7.02786H6.55C6.9399 7.02786 7.28546 6.7768 7.40595 6.40598L8.14405 4.13434Z" fill="white"/>
</g>
</svg>
