<svg width="24" height="24" viewBox="0 0 24 24" fill="none" xmlns="http://www.w3.org/2000/svg">
<path d="M17 22.75C15.8628 22.75 14.7511 22.4128 13.8055 21.781C12.8599 21.1491 12.1229 20.2511 11.6877 19.2004C11.2525 18.1498 11.1386 16.9936 11.3605 15.8782C11.5824 14.7628 12.13 13.7383 12.9341 12.9341C13.7383 12.13 14.7628 11.5824 15.8782 11.3605C16.9936 11.1386 18.1498 11.2525 19.2004 11.6877C20.2511 12.1229 21.1491 12.8599 21.781 13.8055C22.4128 14.7511 22.75 15.8628 22.75 17C22.7481 18.5244 22.1418 19.9859 21.0638 21.0638C19.9859 22.1418 18.5244 22.7481 17 22.75ZM17 12.75C16.1594 12.75 15.3377 12.9993 14.6388 13.4663C13.9399 13.9333 13.3952 14.597 13.0735 15.3736C12.7518 16.1502 12.6677 17.0047 12.8317 17.8291C12.9957 18.6536 13.4004 19.4108 13.9948 20.0052C14.5892 20.5996 15.3464 21.0044 16.1709 21.1683C16.9953 21.3323 17.8498 21.2482 18.6264 20.9265C19.403 20.6048 20.0668 20.0601 20.5337 19.3612C21.0007 18.6623 21.25 17.8406 21.25 17C21.2487 15.8732 20.8005 14.793 20.0037 13.9963C19.207 13.1995 18.1268 12.7513 17 12.75Z" fill="#0C0804"/>
<path d="M16 22.75H4C3.27082 22.7495 2.57165 22.4596 2.05604 21.944C1.54043 21.4283 1.25053 20.7292 1.25 20V4C1.25053 3.27082 1.54043 2.57165 2.05604 2.05604C2.57165 1.54043 3.27082 1.25053 4 1.25H16C16.7292 1.25053 17.4283 1.54043 17.944 2.05604C18.4596 2.57165 18.7495 3.27082 18.75 4V12.1C18.75 12.2989 18.671 12.4897 18.5303 12.6303C18.3897 12.771 18.1989 12.85 18 12.85C17.8011 12.85 17.6103 12.771 17.4697 12.6303C17.329 12.4897 17.25 12.2989 17.25 12.1V4C17.2495 3.66864 17.1176 3.35101 16.8833 3.1167C16.649 2.88239 16.3314 2.75053 16 2.75H4C3.66864 2.75053 3.35101 2.88239 3.1167 3.1167C2.88239 3.35101 2.75053 3.66864 2.75 4V20C2.75053 20.3314 2.88239 20.649 3.1167 20.8833C3.35101 21.1176 3.66864 21.2495 4 21.25H16C16.0769 21.2523 16.1538 21.2453 16.229 21.229C16.3392 21.2051 16.4534 21.2058 16.5632 21.2312C16.6731 21.2566 16.776 21.306 16.8645 21.3759C16.9531 21.4458 17.025 21.5344 17.0752 21.6354C17.1255 21.7364 17.1527 21.8472 17.155 21.96C17.156 22.1407 17.0914 22.3157 16.9731 22.4523C16.8548 22.589 16.691 22.678 16.512 22.703C16.3434 22.7361 16.1718 22.7518 16 22.75Z" fill="#0C0804"/>
<path d="M13 7.75H6C5.80109 7.75 5.61032 7.67098 5.46967 7.53033C5.32902 7.38968 5.25 7.19891 5.25 7C5.25 6.80109 5.32902 6.61032 5.46967 6.46967C5.61032 6.32902 5.80109 6.25 6 6.25H13C13.1989 6.25 13.3897 6.32902 13.5303 6.46967C13.671 6.61032 13.75 6.80109 13.75 7C13.75 7.19891 13.671 7.38968 13.5303 7.53033C13.3897 7.67098 13.1989 7.75 13 7.75Z" fill="#0C0804"/>
<path d="M11 11.75H6C5.80109 11.75 5.61032 11.671 5.46967 11.5303C5.32902 11.3897 5.25 11.1989 5.25 11C5.25 10.8011 5.32902 10.6103 5.46967 10.4697C5.61032 10.329 5.80109 10.25 6 10.25H11C11.1989 10.25 11.3897 10.329 11.5303 10.4697C11.671 10.6103 11.75 10.8011 11.75 11C11.75 11.1989 11.671 11.3897 11.5303 11.5303C11.3897 11.671 11.1989 11.75 11 11.75Z" fill="#0C0804"/>
<path d="M16.5 18.75C16.4015 18.7502 16.3039 18.7309 16.2129 18.6932C16.122 18.6554 16.0394 18.5999 15.97 18.53L14.97 17.53C14.8963 17.4613 14.8372 17.3785 14.7962 17.2865C14.7552 17.1945 14.7332 17.0952 14.7314 16.9945C14.7296 16.8938 14.7482 16.7938 14.7859 16.7004C14.8236 16.607 14.8797 16.5222 14.951 16.451C15.0222 16.3797 15.107 16.3236 15.2004 16.2859C15.2938 16.2482 15.3938 16.2296 15.4945 16.2314C15.5952 16.2332 15.6945 16.2552 15.7865 16.2962C15.8785 16.3372 15.9613 16.3963 16.03 16.47L16.5 16.939L17.97 15.47C18.0387 15.3963 18.1215 15.3372 18.2135 15.2962C18.3055 15.2552 18.4048 15.2332 18.5055 15.2314C18.6062 15.2296 18.7062 15.2482 18.7996 15.2859C18.893 15.3236 18.9778 15.3797 19.049 15.451C19.1203 15.5222 19.1764 15.607 19.2141 15.7004C19.2518 15.7938 19.2704 15.8938 19.2686 15.9945C19.2668 16.0952 19.2448 16.1945 19.2038 16.2865C19.1628 16.3785 19.1037 16.4613 19.03 16.53L17.03 18.53C16.9606 18.5999 16.878 18.6554 16.7871 18.6932C16.6961 18.7309 16.5985 18.7502 16.5 18.75Z" fill="#0C0804"/>
</svg>
