<svg width="22" height="22" viewBox="0 0 22 22" fill="none" xmlns="http://www.w3.org/2000/svg">
<g clip-path="url(#clip0_143_1490)">
<path d="M16.6156 13.0801C15.0865 13.0801 13.8425 14.3241 13.8425 15.8532C13.8425 17.3823 15.0865 18.6263 16.6156 18.6263C18.145 18.6263 19.3888 17.3823 19.3888 15.8532C19.3888 14.3241 18.1448 13.0801 16.6156 13.0801ZM16.6156 17.2398C15.851 17.2398 15.2291 16.6179 15.2291 15.8532C15.2291 15.0885 15.851 14.4666 16.6156 14.4666C17.3803 14.4666 18.0022 15.0885 18.0022 15.8532C18.0022 16.6179 17.3803 17.2398 16.6156 17.2398Z" fill="black"/>
<path d="M7.14079 13.0801C5.61166 13.0801 4.36768 14.3241 4.36768 15.8532C4.36768 17.3823 5.61166 18.6263 7.14079 18.6263C8.66992 18.6263 9.91391 17.3823 9.91391 15.8532C9.91391 14.3241 8.66992 13.0801 7.14079 13.0801ZM7.14079 17.2398C6.37612 17.2398 5.75423 16.6179 5.75423 15.8532C5.75423 15.0885 6.37612 14.4666 7.14079 14.4666C7.90525 14.4666 8.52735 15.0885 8.52735 15.8532C8.52735 16.6179 7.90546 17.2398 7.14079 17.2398Z" fill="black"/>
<path d="M18.483 5.14252C18.3651 4.90843 18.1255 4.76074 17.8634 4.76074H14.2122V6.1473H17.4359L19.3237 9.90208L20.5628 9.27903L18.483 5.14252Z" fill="black"/>
<path d="M14.5358 15.1826H9.29004V16.5692H14.5358V15.1826Z" fill="black"/>
<path d="M5.06094 15.1826H2.65761C2.27468 15.1826 1.96436 15.493 1.96436 15.8759C1.96436 16.2588 2.27472 16.5691 2.65761 16.5691H5.06098C5.44392 16.5691 5.75424 16.2588 5.75424 15.8759C5.75424 15.4929 5.44388 15.1826 5.06094 15.1826Z" fill="black"/>
<path d="M21.8545 10.9446L20.4908 9.1883C20.3598 9.01913 20.1576 8.92021 19.9433 8.92021H14.9055V4.06728C14.9055 3.68434 14.5951 3.37402 14.2123 3.37402H2.65761C2.27468 3.37402 1.96436 3.68439 1.96436 4.06728C1.96436 4.45018 2.27472 4.76054 2.65761 4.76054H13.519V9.61347C13.519 9.99641 13.8293 10.3067 14.2122 10.3067H19.6038L20.6135 11.6073V15.1828H18.6954C18.3125 15.1828 18.0021 15.4931 18.0021 15.876C18.0021 16.259 18.3125 16.5693 18.6954 16.5693H21.3067C21.6897 16.5693 22 16.2589 22 15.876V11.3698C22 11.2159 21.9487 11.0662 21.8545 10.9446Z" fill="black"/>
<path d="M5.01468 11.6699H1.82558C1.44264 11.6699 1.13232 11.9803 1.13232 12.3632C1.13232 12.7461 1.44269 13.0564 1.82558 13.0564H5.01464C5.39757 13.0564 5.70789 12.7461 5.70789 12.3632C5.70794 11.9803 5.39757 11.6699 5.01468 11.6699Z" fill="black"/>
<path d="M6.60924 8.94336H0.693258C0.310363 8.94336 0 9.25372 0 9.63666C0 10.0196 0.310363 10.3299 0.693258 10.3299H6.60924C6.99218 10.3299 7.3025 10.0196 7.3025 9.63666C7.3025 9.25377 6.99218 8.94336 6.60924 8.94336Z" fill="black"/>
<path d="M7.74156 6.2168H1.82558C1.44264 6.2168 1.13232 6.52716 1.13232 6.91005C1.13232 7.29299 1.44269 7.60331 1.82558 7.60331H7.74156C8.1245 7.60331 8.43482 7.29295 8.43482 6.91005C8.43486 6.52716 8.1245 6.2168 7.74156 6.2168Z" fill="black"/>
</g>
<defs>
<clipPath id="clip0_143_1490">
<rect width="22" height="22" fill="white"/>
</clipPath>
</defs>
</svg>
