<svg width="24" height="25" viewBox="0 0 24 25" fill="none" xmlns="http://www.w3.org/2000/svg">
<g clip-path="url(#clip0_18_1245)">
<mask id="mask0_18_1245" style="mask-type:luminance" maskUnits="userSpaceOnUse" x="0" y="0" width="24" height="25">
<path d="M23.5568 10.3182H12.375V14.9546H18.8114C18.2114 17.9 15.7023 19.5909 12.375 19.5909C8.44773 19.5909 5.28409 16.4273 5.28409 12.5C5.28409 8.57273 8.44773 5.40909 12.375 5.40909C14.0659 5.40909 15.5932 6.00909 16.7932 6.99091L20.2841 3.5C18.1568 1.64545 15.4296 0.5 12.375 0.5C5.72046 0.5 0.375 5.84546 0.375 12.5C0.375 19.1546 5.72046 24.5 12.375 24.5C18.375 24.5 23.8296 20.1364 23.8296 12.5C23.8296 11.7909 23.7205 11.0273 23.5568 10.3182Z" fill="white"/>
</mask>
<g mask="url(#mask0_18_1245)">
<path d="M-0.715881 19.591V5.40918L8.55685 12.5001L-0.715881 19.591Z" fill="#FBBC05"/>
</g>
<mask id="mask1_18_1245" style="mask-type:luminance" maskUnits="userSpaceOnUse" x="0" y="0" width="24" height="25">
<path d="M23.5568 10.3182H12.375V14.9546H18.8114C18.2114 17.9 15.7023 19.5909 12.375 19.5909C8.44773 19.5909 5.28409 16.4273 5.28409 12.5C5.28409 8.57273 8.44773 5.40909 12.375 5.40909C14.0659 5.40909 15.5932 6.00909 16.7932 6.99091L20.2841 3.5C18.1568 1.64545 15.4296 0.5 12.375 0.5C5.72046 0.5 0.375 5.84546 0.375 12.5C0.375 19.1546 5.72046 24.5 12.375 24.5C18.375 24.5 23.8296 20.1364 23.8296 12.5C23.8296 11.7909 23.7205 11.0273 23.5568 10.3182Z" fill="white"/>
</mask>
<g mask="url(#mask1_18_1245)">
<path d="M-0.715881 5.40918L8.55685 12.5001L12.375 9.17282L25.4659 7.04555V-0.59082H-0.715881V5.40918Z" fill="#EA4335"/>
</g>
<mask id="mask2_18_1245" style="mask-type:luminance" maskUnits="userSpaceOnUse" x="0" y="0" width="24" height="25">
<path d="M23.5568 10.3182H12.375V14.9546H18.8114C18.2114 17.9 15.7023 19.5909 12.375 19.5909C8.44773 19.5909 5.28409 16.4273 5.28409 12.5C5.28409 8.57273 8.44773 5.40909 12.375 5.40909C14.0659 5.40909 15.5932 6.00909 16.7932 6.99091L20.2841 3.5C18.1568 1.64545 15.4296 0.5 12.375 0.5C5.72046 0.5 0.375 5.84546 0.375 12.5C0.375 19.1546 5.72046 24.5 12.375 24.5C18.375 24.5 23.8296 20.1364 23.8296 12.5C23.8296 11.7909 23.7205 11.0273 23.5568 10.3182Z" fill="white"/>
</mask>
<g mask="url(#mask2_18_1245)">
<path d="M-0.715881 19.591L15.6478 7.04555L19.9569 7.591L25.4659 -0.59082V25.591H-0.715881V19.591Z" fill="#34A853"/>
</g>
<mask id="mask3_18_1245" style="mask-type:luminance" maskUnits="userSpaceOnUse" x="0" y="0" width="24" height="25">
<path d="M23.5568 10.3182H12.375V14.9546H18.8114C18.2114 17.9 15.7023 19.5909 12.375 19.5909C8.44773 19.5909 5.28409 16.4273 5.28409 12.5C5.28409 8.57273 8.44773 5.40909 12.375 5.40909C14.0659 5.40909 15.5932 6.00909 16.7932 6.99091L20.2841 3.5C18.1568 1.64545 15.4296 0.5 12.375 0.5C5.72046 0.5 0.375 5.84546 0.375 12.5C0.375 19.1546 5.72046 24.5 12.375 24.5C18.375 24.5 23.8296 20.1364 23.8296 12.5C23.8296 11.7909 23.7205 11.0273 23.5568 10.3182Z" fill="white"/>
</mask>
<g mask="url(#mask3_18_1245)">
<path d="M25.4659 25.591L8.55682 12.5001L6.375 10.8637L25.4659 5.40918V25.591Z" fill="#4285F4"/>
</g>
</g>
<defs>
<clipPath id="clip0_18_1245">
<rect width="24" height="24" fill="white" transform="translate(0 0.5)"/>
</clipPath>
</defs>
</svg>
