<svg width="56" height="56" viewBox="0 0 56 56" fill="none" xmlns="http://www.w3.org/2000/svg">
<path d="M0 10C0 4.47715 4.47715 0 10 0H46C51.5229 0 56 4.47715 56 10V46C56 51.5229 51.5228 56 46 56H10C4.47715 56 0 51.5228 0 46V10Z" fill="#DDE7DC"/>
<path d="M17.3185 31.5472L15.2919 29.5205C14.4652 28.6938 14.4652 27.3338 15.2919 26.5071L17.3185 24.4804C17.6652 24.1338 17.9452 23.4538 17.9452 22.9738V20.1071C17.9452 18.9337 18.9052 17.9738 20.0785 17.9738H22.9452C23.4252 17.9738 24.1052 17.6938 24.4519 17.3471L26.4785 15.3204C27.3052 14.4938 28.6652 14.4938 29.4919 15.3204L31.5186 17.3471C31.8652 17.6938 32.5452 17.9738 33.0252 17.9738H35.8919C37.0652 17.9738 38.0252 18.9337 38.0252 20.1071V22.9738C38.0252 23.4538 38.3052 24.1338 38.6519 24.4804L40.6786 26.5071C41.5052 27.3338 41.5052 28.6938 40.6786 29.5205L38.6519 31.5472C38.3052 31.8938 38.0252 32.5738 38.0252 33.0538V35.9204C38.0252 37.0937 37.0652 38.0538 35.8919 38.0538H33.0252C32.5452 38.0538 31.8652 38.3338 31.5186 38.6805L29.4919 40.7072C28.6652 41.5338 27.3052 41.5338 26.4785 40.7072L24.4519 38.6805C24.1052 38.3338 23.4252 38.0538 22.9452 38.0538H20.0785C18.9052 38.0538 17.9452 37.0937 17.9452 35.9204V33.0538C17.9452 32.5605 17.6652 31.8805 17.3185 31.5472Z" stroke="#2C6825" stroke-width="2" stroke-linecap="round" stroke-linejoin="round"/>
<path d="M24 32L32 24" stroke="#2C6825" stroke-width="2" stroke-linecap="round" stroke-linejoin="round"/>
<path d="M31.3258 31.3334H31.3378" stroke="#2C6825" stroke-width="2" stroke-linecap="round" stroke-linejoin="round"/>
<path d="M24.6593 24.6667H24.6713" stroke="#2C6825" stroke-width="2" stroke-linecap="round" stroke-linejoin="round"/>
</svg>
