<svg width="121" height="120" viewBox="0 0 121 120" fill="none" xmlns="http://www.w3.org/2000/svg">
<g clip-path="url(#clip0_326_4706)">
<path d="M72.1566 61.7477L66.299 67.6047C64.8327 69.0711 62.4542 69.069 60.9904 67.6L44.561 51.1132C39.7069 46.3259 39.7069 38.526 44.561 33.7387C49.3149 28.918 57.0814 28.918 61.9349 33.7387C62.5711 34.4082 63.2072 35.1451 63.6424 35.9148C64.111 35.1451 64.7137 34.3748 65.3832 33.7387C70.2039 28.8846 78.0038 28.8846 82.7572 33.7387C87.6113 38.526 87.6113 46.3259 82.7906 51.1132L78.3722 55.5316" fill="#706519"/>
<path d="M0.00105292 90.1187L0.258839 68.5205L21.8993 68.8044C33.7705 68.9531 43.3754 78.6399 43.2538 90.5988C43.1625 96.5712 40.701 101.883 36.7512 105.755C32.7895 109.609 27.3734 111.95 21.4244 111.897C15.4447 111.836 10.0907 109.349 6.22288 105.449C2.35035 101.498 -0.0568707 96.0175 0.00105292 90.1187Z" fill="#706519"/>
<path d="M119.604 49.8858L103.519 34.5141L103.594 18.009C103.6 16.6319 103.069 15.3336 102.098 14.3557C101.127 13.3762 99.8327 12.8356 98.4535 12.8303L80.7685 12.7724L68.9161 1.44496C66.6993 -0.478 63.3591 -0.488959 61.1021 1.45592L49.1855 12.6117L30.7705 12.5313H30.7475C27.9155 12.5313 25.6043 14.8279 25.5908 17.6646L25.513 34.775L10.1512 49.1568C9.89346 49.3989 9.71134 49.9813 9.70978 50.1697L9.32727 115.187C9.4546 116.613 10.5692 119.117 11.9735 119.13L52.8869 119.471C52.8916 119.471 52.8952 119.471 52.8989 119.471C53.6707 119.471 54.299 118.848 54.3052 118.075C54.3115 117.299 53.6874 116.665 52.9109 116.658L12.6514 116.323C12.4014 115.97 12.1807 115.523 12.1347 115.034L12.5073 52.7721C113.268 118.478 54.5808 80.0765 111.817 117.156L62.3065 116.826C62.3039 116.826 62.3003 116.826 62.2971 116.826C61.5243 116.826 60.896 117.449 60.8908 118.224C60.885 119 61.5118 119.634 62.2882 119.639L116.638 120C116.641 120 116.644 120 116.647 120C118.095 120 119.377 117.345 119.552 115.793L120.033 50.9112C120.035 50.5997 119.769 50.0439 119.604 49.8858ZM116.747 115.62C116.701 116.013 116.572 116.392 116.371 116.74L67.421 85.0053L117.201 53.4734L116.747 115.62ZM116.356 50.6738L103.408 58.876L103.501 38.3888L116.356 50.6738ZM30.7475 15.344H30.7574L59.7495 15.4703H59.7558C60.5297 15.4703 61.1585 14.8441 61.1621 14.0692C61.1658 13.2927 60.5385 12.6607 59.762 12.6571L53.2824 12.6289L62.9807 3.54847C64.1637 2.53038 65.8853 2.54133 67.0234 3.5229L76.6862 12.7583L67.5817 12.7286H67.5776C66.8032 12.7286 66.1738 13.3548 66.1712 14.1297C66.1686 14.9078 66.7964 15.5397 67.5729 15.5418L98.4446 15.6425C99.0718 15.6446 99.6594 15.8914 100.101 16.335C100.542 16.7801 100.784 17.3698 100.781 17.9975L100.588 60.6627L64.8228 83.3208L28.2135 59.5867L28.404 17.6771C28.4102 16.3882 29.4602 15.344 30.7475 15.344ZM25.4086 57.7692L13.3903 49.9776L25.4953 38.6455L25.4086 57.7692Z" fill="#0C0804"/>
<path d="M108.506 94.8767C109.282 94.8767 109.912 94.2469 109.912 93.4704V92.9376C109.912 92.1611 109.282 91.5312 108.506 91.5312C107.729 91.5312 107.099 92.1611 107.099 92.9376V93.4704C107.099 94.2469 107.729 94.8767 108.506 94.8767Z" fill="#0C0804"/>
<path d="M108.506 88.6595C109.282 88.6595 109.912 88.0296 109.912 87.2532V75.5108C109.912 74.7344 109.282 74.1045 108.506 74.1045C107.729 74.1045 107.099 74.7344 107.099 75.5108V87.2532C107.099 88.0291 107.729 88.6595 108.506 88.6595Z" fill="#0C0804"/>
<path d="M59.9943 68.5926C62.0054 70.6111 65.2747 70.621 67.2937 68.5999L73.1513 62.7418C73.7008 62.1923 73.7008 61.3026 73.1513 60.7531C72.6018 60.2036 71.7121 60.2036 71.1626 60.7531L65.305 66.6112C64.386 67.5323 62.8983 67.5229 61.9866 66.6076L45.5489 50.1114C41.2589 45.8803 41.2348 38.9978 45.5624 34.7266C49.4574 30.7784 56.2872 30.1115 60.9169 34.7099C61.3704 35.1858 62.0185 35.9002 62.4187 36.6073C62.9666 37.5764 64.3208 37.5075 64.8452 36.6439C68.4036 30.7983 76.7786 29.6403 81.7699 34.7412C86.062 38.9712 86.0787 45.8668 81.7965 50.1187L77.3787 54.5376C76.8292 55.087 76.8292 55.9768 77.3787 56.5263C77.9282 57.0758 78.8179 57.0758 79.3674 56.5263L83.7816 52.111C89.1977 46.7351 89.1179 38.0361 83.7623 32.7562C78.3305 27.2075 69.1045 27.2195 63.6445 33.529C58.2842 27.3281 49.0587 27.1752 43.5732 32.7379C38.1581 38.081 38.1592 46.7737 43.5648 52.1053L59.9943 68.5926Z" fill="#0C0804"/>
</g>
<defs>
<clipPath id="clip0_326_4706">
<rect width="120.032" height="120" fill="white"/>
</clipPath>
</defs>
</svg>
