<svg width="36" height="36" viewBox="0 0 36 36" fill="none" xmlns="http://www.w3.org/2000/svg">
<path d="M13.3136 22.6865L12.9611 23.0389L13.3136 22.6865C13.0739 22.4467 13.0739 22.0433 13.3136 21.8036L21.8036 13.3136C22.0433 13.0739 22.4467 13.0739 22.6865 13.3136L23.0361 12.964L22.6865 13.3136C22.9262 13.5533 22.9262 13.9567 22.6865 14.1965L14.1965 22.6865L14.1904 22.6926L14.1845 22.6989C14.0843 22.8063 13.9254 22.87 13.755 22.87C13.5955 22.87 13.4399 22.8128 13.3136 22.6865Z" fill="#0C0804" stroke="#0C0804"/>
<path d="M22.245 22.87C22.0855 22.87 21.9299 22.8128 21.8036 22.6865L13.3136 14.1965C13.0739 13.9567 13.0739 13.5533 13.3136 13.3136C13.5533 13.0739 13.9567 13.0739 14.1965 13.3136L22.6865 21.8036C22.9262 22.0433 22.9262 22.4467 22.6865 22.6865C22.5602 22.8128 22.4046 22.87 22.245 22.87Z" fill="#0C0804" stroke="#0C0804"/>
<circle cx="18" cy="18" r="15" stroke="#0C0804" stroke-width="2"/>
</svg>
