<svg width="40" height="40" viewBox="0 0 40 40" fill="none" xmlns="http://www.w3.org/2000/svg">
<g clip-path="url(#clip0_140_1121)">
<path d="M29.9999 5.00002H28.3333V0.833356C28.3483 0.311456 27.8062 -0.113527 27.3062 0.0228065L6.4729 5.02281C6.10687 5.13156 5.85485 5.45361 5.83325 5.83336V35.8334C5.83325 38.1307 7.70174 40 9.99992 40H29.9999C32.2981 40 34.1666 38.1307 34.1666 35.8334V9.16669C34.1666 6.86932 32.2981 5.00002 29.9999 5.00002ZM26.6666 1.89049V5.00002H13.7092L26.6666 1.89049ZM32.4999 35.8334C32.4999 37.2119 31.3785 38.3334 29.9999 38.3334H9.99992C8.62134 38.3334 7.49992 37.2119 7.49992 35.8334V6.66669H29.9999C31.3785 6.66669 32.4999 7.78811 32.4999 9.16669V35.8334Z" fill="#706519"/>
<path d="M20.6103 12.1901L19.9999 12.7232L19.3896 12.1901C17.2135 10.2932 14.0364 10.4095 12.1614 12.4562C11.2792 13.4173 10.8333 14.5843 10.8333 15.9255C10.8333 20.4649 18.6832 25.2044 19.5784 25.7302C19.838 25.8832 20.1618 25.8832 20.4215 25.7302C21.3167 25.2044 29.1666 20.4649 29.1666 15.9255C29.1666 14.5843 28.7206 13.4173 27.8385 12.4562C25.9635 10.4095 22.7864 10.2932 20.6103 12.1901ZM19.9999 24.0383C17.5667 22.5303 12.4999 18.7958 12.4999 15.9255C12.4999 15.0018 12.7913 14.2352 13.3886 13.5825C14.7159 12.1437 16.8326 12.1647 18.2926 13.4466L19.4514 14.4574C19.7672 14.7308 20.2327 14.7308 20.5484 14.4574L21.7073 13.4466C23.2209 12.125 25.3287 12.1844 26.6112 13.5825C27.2086 14.2352 27.4999 15.0018 27.4999 15.9255C27.4999 18.7917 22.4316 22.5295 19.9999 24.0383Z" fill="#706519"/>
<path d="M27.5001 29.1665H12.5001C12.0395 29.1665 11.6667 29.5392 11.6667 29.9998C11.6667 30.4605 12.0395 30.8332 12.5001 30.8332H27.5001C27.9607 30.8332 28.3334 30.4605 28.3334 29.9998C28.3334 29.5392 27.9607 29.1665 27.5001 29.1665Z" fill="#706519"/>
<path d="M25.0001 33.3335H15.0001C14.5395 33.3335 14.1667 33.7062 14.1667 34.1668C14.1667 34.6274 14.5395 35.0002 15.0001 35.0002H25.0001C25.4607 35.0002 25.8334 34.6274 25.8334 34.1668C25.8334 33.7062 25.4607 33.3335 25.0001 33.3335Z" fill="#706519"/>
</g>
<defs>
<clipPath id="clip0_140_1121">
<rect width="40" height="40" fill="white"/>
</clipPath>
</defs>
</svg>
