<svg width="309" height="301" viewBox="0 0 309 301" fill="none" xmlns="http://www.w3.org/2000/svg">
<path d="M278.501 136L308.509 165.998L210.203 286" fill="#706519"/>
<path d="M181.002 23.4978H23.5029V150.994H181.002V23.4978Z" stroke="#0C0804" stroke-miterlimit="10" stroke-linecap="round" stroke-linejoin="round"/>
<path d="M104.577 58.6421C104.577 61.4868 102.299 63.795 99.4918 63.795C96.7009 63.795 94.4233 61.4868 94.4233 58.6421C94.4233 55.8137 96.7009 53.5054 99.4918 53.5054C102.299 53.5054 104.577 55.8137 104.577 58.6421Z" stroke="#0C0804" stroke-width="3.107" stroke-miterlimit="10" stroke-linecap="round" stroke-linejoin="round"/>
<path d="M118.194 82.7689V103.875H80.8062V82.7689C80.8062 72.3052 89.1761 63.8235 99.5 63.8235C109.824 63.8235 118.194 72.3053 118.194 82.7689Z" fill="transparent" stroke="#0C0804" stroke-width="0.0566667"/>
<path d="M99.4917 63.8237C101.455 63.8237 103.362 64.1252 105.141 64.7095C97.6471 67.1893 92.2272 74.3371 92.2272 82.7612V103.877H80.8057V82.7612C80.8057 72.3113 89.1814 63.8237 99.4917 63.8237Z" fill="#706519" stroke="#0C0804" stroke-width="0.0566667"/>
<path d="M118.222 82.7689V103.903H80.7778V82.7689C80.7778 72.29 89.1601 63.7952 99.5 63.7952C109.84 63.7952 118.222 72.29 118.222 82.7689Z" stroke="#0C0804" stroke-width="3.107" stroke-miterlimit="10" stroke-linecap="round" stroke-linejoin="round"/>
<path d="M122.502 101.366V107.913C122.502 109.049 121.593 109.969 120.473 109.969H78.5273C77.407 109.969 76.4981 109.049 76.4981 107.913V101.366C76.4981 100.23 77.4069 99.3096 78.5273 99.3096H120.473C121.593 99.3096 122.502 100.23 122.502 101.366Z" fill="white" stroke="#0C0804" stroke-width="0.0566667"/>
<path d="M92.2271 99.3096V109.969H78.5273C77.407 109.969 76.4981 109.049 76.4981 107.913V101.366C76.4981 100.23 77.4069 99.3096 78.5273 99.3096L92.2271 99.3096Z" fill="#706519" stroke="#0C0804" stroke-width="0.0566667"/>
<path d="M122.527 101.363V107.906C122.527 109.058 121.606 109.992 120.47 109.992H78.5297C77.3934 109.992 76.4722 109.058 76.4722 107.906V101.363C76.4722 100.211 77.3933 99.2778 78.5297 99.2778H120.47C121.606 99.2779 122.527 100.211 122.527 101.363Z" stroke="#0C0804" stroke-width="3.107" stroke-miterlimit="10" stroke-linecap="round" stroke-linejoin="round"/>
<path d="M107.877 110.02C107.862 114.689 104.125 118.467 99.489 118.467C94.8787 118.467 91.1426 114.689 91.1275 110.02H107.877Z" fill="#706519" stroke="#0C0804" stroke-width="0.0566667"/>
<path d="M107.905 109.992C107.905 114.689 104.15 118.495 99.489 118.495C94.8534 118.495 91.0991 114.689 91.0991 109.992H107.905Z" stroke="#0C0804" stroke-width="3.107" stroke-miterlimit="10" stroke-linecap="round" stroke-linejoin="round"/>
<path d="M264.269 157.25L297.323 78.5404L203.503 39.1562V226H67.3057L106.419 242.423L210.205 286.001L264.269 157.25Z" stroke="#0C0804" stroke-miterlimit="10" stroke-linecap="round" stroke-linejoin="round"/>
<path d="M203.502 39.1564V1H112.615H110.25H1V226H67.3046H203.502V39.1564Z" stroke="#0C0804" stroke-miterlimit="10" stroke-linecap="round" stroke-linejoin="round"/>
<path d="M75.9994 271.002C75.9994 279.288 69.2812 286.001 60.9951 286.001C52.7144 286.001 46.0068 279.283 46.0068 271.002C46.0068 262.716 52.7197 256.003 60.9951 256.003C69.2865 256.003 75.9994 262.716 75.9994 271.002Z" fill="#706519"/>
<path d="M293.502 31.0033C293.502 39.2894 286.784 45.997 278.503 45.997C270.206 45.997 263.504 39.2841 263.504 31.0033C263.504 22.7119 270.211 16.0044 278.503 16.0044C286.784 15.9991 293.502 22.7119 293.502 31.0033Z" fill="#706519"/>
<path d="M301.004 286.001C301.004 294.287 294.275 301 285.995 301C277.714 301 271.006 294.282 271.006 286.001C271.006 277.726 277.714 271.002 285.995 271.002C294.275 271.002 301.004 277.726 301.004 286.001Z" fill="#706519"/>
</svg>
