<svg width="25" height="24" viewBox="0 0 25 24" fill="none" xmlns="http://www.w3.org/2000/svg">
<g clip-path="url(#clip0_1196_6254)">
<path fill-rule="evenodd" clip-rule="evenodd" d="M8.83834 17.9473L1.85389 10.9629C0.975262 10.0842 0.975262 8.65999 1.85389 7.78137L8.21689 1.41837C9.09551 0.539743 10.5198 0.539743 11.3984 1.41837L18.3828 8.40282C18.6824 8.25912 19.0133 8.18276 19.3521 8.18329C19.9487 8.18276 20.5208 8.41979 20.9429 8.84187L21.4975 9.39651C22.0251 9.92411 22.2568 10.6797 22.1158 11.4125C22.0792 11.6029 22.0182 11.7858 21.9366 11.9566L23.0639 13.0839C23.486 13.5059 23.723 14.0781 23.7225 14.6746C23.723 15.2711 23.486 15.8433 23.0639 16.2654L16.7009 22.6284C16.2788 23.0504 15.7067 23.2875 15.1101 23.2869C14.5136 23.2875 13.9415 23.0504 13.5194 22.6284L12.3921 21.5011C12.2213 21.5827 12.0384 21.6437 11.848 21.6803C11.1152 21.8213 10.3596 21.5896 9.83203 21.062L9.27739 20.5074C8.85531 20.0853 8.61828 19.5131 8.61881 18.9166C8.61828 18.5778 8.69464 18.2469 8.83834 17.9473ZM5.56564 6.19062L2.91439 8.84187C2.62169 9.13457 2.62169 9.60967 2.91439 9.90237L5.56564 12.5536L8.74714 9.37212L5.56564 6.19062ZM12.9891 5.13012L10.3379 2.47887C10.0452 2.18617 9.57008 2.18617 9.27739 2.47887L6.62614 5.13012L9.80764 8.31162L12.9891 5.13012ZM6.62614 13.6141L9.80764 16.7956L12.9891 13.6141L9.80764 10.4326L6.62614 13.6141ZM18.8219 9.90237L10.3379 18.3864C10.1974 18.5269 10.1178 18.7178 10.1184 18.9166C10.1178 19.1155 10.1974 19.3064 10.3379 19.4469L10.8681 19.9771C11.1608 20.2698 11.6359 20.2698 11.9286 19.9771L12.0877 19.818C12.0962 19.8011 12.1047 19.7841 12.1116 19.7666L12.5941 18.6425C12.8216 18.1117 13.2447 17.6886 13.7755 17.4611L16.3843 16.3423C16.5614 16.267 16.7025 16.1259 16.7778 15.9488L17.8966 13.34C18.1241 12.8092 18.5472 12.3861 19.078 12.1586L20.2021 11.6761C20.2196 11.6692 20.2366 11.6607 20.2536 11.6522L20.4126 11.4931C20.7053 11.2004 20.7053 10.7253 20.4126 10.4326L19.8824 9.90237C19.7419 9.76185 19.551 9.68231 19.3521 9.68284C19.1533 9.68231 18.9624 9.76185 18.8219 9.90237ZM14.0496 12.5536L17.2311 9.37212L14.0496 6.19062L10.8681 9.37212L14.0496 12.5536ZM13.4526 20.4406L14.5799 21.5679C14.7204 21.7084 14.9113 21.7879 15.1101 21.7874C15.309 21.7879 15.4999 21.7084 15.6404 21.5679L22.0034 15.2049C22.1439 15.0643 22.2234 14.8735 22.2229 14.6746C22.2234 14.4758 22.1439 14.2849 22.0034 14.1444L20.8761 13.0171C20.849 13.0303 20.8215 13.043 20.7928 13.0547L19.6687 13.5372C19.4916 13.6125 19.3505 13.7536 19.2752 13.9307L18.1564 16.5395C17.929 17.0703 17.5058 17.4934 16.975 17.7209L14.3662 18.8397C14.1891 18.915 14.048 19.0561 13.9727 19.2332L13.4902 20.3573C13.4786 20.3859 13.4658 20.4135 13.4526 20.4406Z" fill="#706519"/>
</g>
<defs>
<clipPath id="clip0_1196_6254">
<rect width="24" height="24" fill="white" transform="translate(0.5)"/>
</clipPath>
</defs>
</svg>
