<svg width="25" height="24" viewBox="0 0 25 24" fill="none" xmlns="http://www.w3.org/2000/svg">
<g clip-path="url(#clip0_1196_6246)">
<path d="M22.756 12C23.3924 11.5652 23.8907 10.9556 24.1926 10.2269C24.6026 9.23698 24.6026 8.14677 24.1926 7.15691C23.7825 6.16704 23.0116 5.39598 22.0217 4.98601C21.2928 4.68407 20.5096 4.60533 19.7521 4.74797C19.8948 3.99046 19.816 3.20714 19.5141 2.47838C19.1039 1.48851 18.3331 0.717453 17.3432 0.30748C16.3533 -0.102493 15.2631 -0.102493 14.2732 0.30748C13.5443 0.609421 12.9347 1.10747 12.5 1.74413C12.0654 1.10747 11.4558 0.609421 10.7269 0.30748C9.73698 -0.102493 8.64677 -0.102493 7.65691 0.30748C6.66704 0.717453 5.89616 1.48851 5.48601 2.47838C5.18407 3.20714 5.10533 3.99046 5.24797 4.74797C4.49046 4.60533 3.70732 4.68407 2.97838 4.98601C1.98851 5.39598 1.21764 6.16704 0.80748 7.15691C0.397507 8.14677 0.397507 9.23698 0.80748 10.2269C1.10942 10.9556 1.60765 11.5652 2.24413 12C1.60765 12.4347 1.10942 13.0443 0.80748 13.7732C0.397507 14.7631 0.397507 15.8533 0.80748 16.8432C1.21764 17.8331 1.98851 18.6039 2.97838 19.0141C3.47331 19.219 3.99333 19.3215 4.51335 19.3215C4.75908 19.3215 5.00481 19.2977 5.24797 19.2519C5.10533 20.0096 5.18407 20.7928 5.48601 21.5217C5.89616 22.5116 6.66704 23.2825 7.65691 23.6924C8.15184 23.8975 8.67186 24 9.19188 24C9.7119 24 10.2319 23.8975 10.7269 23.6924C11.4558 23.3905 12.0654 22.8924 12.5 22.256C12.9347 22.8924 13.5443 23.3907 14.2732 23.6924C14.7682 23.8975 15.2882 24 15.8082 24C16.3282 24 16.8483 23.8975 17.3432 23.6924C18.3331 23.2825 19.1039 22.5116 19.5141 21.5217C19.816 20.7928 19.8948 20.0096 19.7521 19.2519C19.9953 19.2977 20.2408 19.3215 20.4867 19.3215C21.0068 19.3215 21.5268 19.219 22.0217 19.0141C23.0116 18.6039 23.7825 17.8331 24.1926 16.8432C24.6026 15.8533 24.6026 14.7631 24.1926 13.7732C23.8907 13.0443 23.3924 12.4347 22.756 12ZM21.4836 6.28514C22.1264 6.55138 22.6272 7.05199 22.8935 7.69487C23.1597 8.33775 23.1597 9.04582 22.8935 9.68871C22.6272 10.3316 22.1264 10.8324 21.4836 11.0986C21.1536 11.2354 20.8066 11.3024 20.4518 11.2971C20.4468 11.2973 20.4421 11.2969 20.4371 11.2969H15.9446C15.8533 10.8489 15.676 10.4317 15.4314 10.063L18.613 6.88133L18.6198 6.87437C18.8672 6.62004 19.16 6.42174 19.4899 6.28514C20.1328 6.01872 20.8409 6.01872 21.4836 6.28514ZM12.5 14.1092C11.3371 14.1092 10.3909 13.1629 10.3909 12C10.3909 10.837 11.3371 9.89085 12.5 9.89085C13.6629 9.89085 14.6092 10.837 14.6092 12C14.6092 13.1629 13.6629 14.1092 12.5 14.1092ZM13.4015 3.01634C13.6677 2.37346 14.1685 1.87285 14.8114 1.60661C15.4543 1.34019 16.1623 1.34019 16.8052 1.60661C17.4481 1.87285 17.9487 2.37346 18.215 3.01634C18.4814 3.65923 18.4814 4.36748 18.215 5.01018C18.0784 5.34013 17.8801 5.63292 17.6257 5.88029C17.6224 5.88377 17.6188 5.88689 17.6155 5.89037L14.4373 9.06871C14.0683 8.82408 13.6512 8.64684 13.2032 8.55565V4.04832C13.198 3.69347 13.2649 3.3463 13.4015 3.01634ZM6.78514 3.01634C7.05138 2.37346 7.55217 1.87285 8.19487 1.60661C8.83775 1.34019 9.54601 1.34038 10.1889 1.60661C10.8316 1.87285 11.3324 2.37346 11.5986 3.01634C11.7354 3.3463 11.802 3.69347 11.7971 4.04832C11.7973 4.05309 11.7969 4.05803 11.7971 4.06297V8.55547C11.3489 8.64684 10.9317 8.82408 10.563 9.06853L7.38152 5.88707L7.37437 5.88011C7.12004 5.63274 6.92174 5.34013 6.78514 5.01018C6.51872 4.36748 6.51872 3.65923 6.78514 3.01634ZM2.10661 7.69487C2.37285 7.05199 2.87364 6.55138 3.51653 6.28514C4.15941 6.01872 4.86748 6.01872 5.51036 6.28514C5.84013 6.42174 6.13292 6.62004 6.38029 6.87437C6.38377 6.87767 6.38689 6.88115 6.39037 6.88463L9.56871 10.0628C9.32426 10.4317 9.14702 10.8489 9.05565 11.2969H4.54832C4.19365 11.3026 3.84648 11.2352 3.51653 11.0986C2.87364 10.8324 2.37303 10.3316 2.10661 9.68871C1.84038 9.04582 1.84038 8.33775 2.10661 7.69487ZM3.51653 17.715C2.87364 17.4487 2.37285 16.9479 2.10661 16.305C1.84038 15.6622 1.84038 14.9541 2.10661 14.3112C2.37285 13.6683 2.87364 13.1677 3.51653 12.9015C3.83513 12.7695 4.17021 12.7032 4.51207 12.7034C4.5291 12.7034 4.54613 12.7032 4.56297 12.703H9.05547C9.14684 13.151 9.32408 13.5682 9.56871 13.9371L6.38707 17.1186L6.38029 17.1255C6.13292 17.3801 5.84013 17.5782 5.51018 17.7148C4.86729 17.9812 4.15923 17.9812 3.51653 17.715ZM11.5986 20.9836C11.3324 21.6264 10.8316 22.1271 10.1887 22.3935C9.54582 22.6597 8.83775 22.6597 8.19487 22.3935C7.55199 22.1272 7.05138 21.6264 6.78514 20.9836C6.51872 20.3407 6.51872 19.6326 6.78514 18.9897C6.92174 18.66 7.12004 18.3672 7.37437 18.1198C7.37767 18.1163 7.38133 18.113 7.38463 18.1097L10.5628 14.9314C10.9317 15.1758 11.3489 15.3533 11.7969 15.4444V19.9516C11.802 20.3064 11.7352 20.6536 11.5986 20.9836ZM18.215 20.9836C17.9487 21.6264 17.4479 22.1271 16.8052 22.3935C16.1623 22.6597 15.4541 22.6597 14.8112 22.3935C14.1685 22.1272 13.6677 21.6264 13.4015 20.9836C13.2647 20.6536 13.198 20.3064 13.203 19.9518C13.2028 19.9468 13.2032 19.9419 13.203 19.9371V15.4446C13.6512 15.3533 14.0683 15.176 14.4371 14.9314L17.6186 18.113L17.6257 18.1198C17.8801 18.3672 18.0784 18.66 18.215 18.9899C18.4814 19.6326 18.4814 20.3407 18.215 20.9836ZM22.8935 16.305C22.6272 16.9479 22.1264 17.4487 21.4836 17.715C20.8407 17.9812 20.1326 17.9812 19.4897 17.715C19.1598 17.5784 18.8672 17.3801 18.6198 17.1257C18.6163 17.1222 18.613 17.1188 18.6095 17.1155L15.4312 13.9371C15.6758 13.5683 15.8531 13.1512 15.9444 12.7032H20.4415C20.4573 12.7034 20.4732 12.7034 20.4889 12.7034C20.831 12.7034 21.1653 12.7696 21.4836 12.9015C22.1264 13.1677 22.6271 13.6685 22.8933 14.3114C23.1597 14.9541 23.1597 15.6622 22.8935 16.305Z" fill="#706519"/>
</g>
<defs>
<clipPath id="clip0_1196_6246">
<rect width="24" height="24" fill="white" transform="translate(0.5)"/>
</clipPath>
</defs>
</svg>
