<svg width="44" height="44" viewBox="0 0 44 44" fill="none" xmlns="http://www.w3.org/2000/svg">
<g clip-path="url(#clip0_143_1428)">
<path d="M33.231 26.1597C30.1728 26.1597 27.6848 28.6476 27.6848 31.7059C27.6848 34.7642 30.1728 37.2521 33.231 37.2521C36.2898 37.2521 38.7773 34.7642 38.7773 31.7059C38.7773 28.6476 36.2893 26.1597 33.231 26.1597ZM33.231 34.479C31.7017 34.479 30.4579 33.2352 30.4579 31.7059C30.4579 30.1766 31.7017 28.9328 33.231 28.9328C34.7604 28.9328 36.0042 30.1766 36.0042 31.7059C36.0042 33.2353 34.7604 34.479 33.231 34.479Z" fill="#706519"/>
<path d="M14.2816 26.1597C11.2233 26.1597 8.73535 28.6476 8.73535 31.7059C8.73535 34.7642 11.2233 37.2521 14.2816 37.2521C17.3398 37.2521 19.8278 34.7642 19.8278 31.7059C19.8278 28.6476 17.3398 26.1597 14.2816 26.1597ZM14.2816 34.479C12.7522 34.479 11.5085 33.2352 11.5085 31.7059C11.5085 30.1766 12.7522 28.9328 14.2816 28.9328C15.8105 28.9328 17.0547 30.1766 17.0547 31.7059C17.0547 33.2353 15.8109 34.479 14.2816 34.479Z" fill="#706519"/>
<path d="M36.966 10.2846C36.7303 9.81636 36.251 9.521 35.7269 9.521H28.4243V12.2941H34.8718L38.6474 19.8037L41.1256 18.5576L36.966 10.2846Z" fill="#706519"/>
<path d="M29.0714 30.3657H18.5798V33.1388H29.0714V30.3657Z" fill="#706519"/>
<path d="M10.1219 30.3657H5.31523C4.54935 30.3657 3.92871 30.9864 3.92871 31.7522C3.92871 32.5181 4.54944 33.1388 5.31523 33.1388H10.122C10.8878 33.1388 11.5085 32.518 11.5085 31.7522C11.5085 30.9864 10.8878 30.3657 10.1219 30.3657Z" fill="#706519"/>
<path d="M43.7089 21.8892L40.9816 18.3766C40.7196 18.0383 40.3152 17.8404 39.8867 17.8404H29.811V8.13456C29.811 7.36869 29.1903 6.74805 28.4245 6.74805H5.31523C4.54935 6.74805 3.92871 7.36877 3.92871 8.13456C3.92871 8.90035 4.54944 9.52108 5.31523 9.52108H27.0379V19.2269C27.0379 19.9928 27.6586 20.6135 28.4244 20.6135H39.2077L41.227 23.2146V30.3656H37.3908C36.6249 30.3656 36.0043 30.9863 36.0043 31.7521C36.0043 32.518 36.625 33.1386 37.3908 33.1386H42.6135C43.3794 33.1386 44 32.5179 44.0001 31.7521V22.7396C44.0001 22.4318 43.8975 22.1323 43.7089 21.8892Z" fill="#706519"/>
<path d="M10.0294 23.3403H3.65116C2.88529 23.3403 2.26465 23.9611 2.26465 24.7268C2.26465 25.4927 2.88537 26.1134 3.65116 26.1134H10.0293C10.7951 26.1134 11.4158 25.4926 11.4158 24.7268C11.4159 23.9611 10.7951 23.3403 10.0294 23.3403Z" fill="#706519"/>
<path d="M13.2185 17.8867H1.38652C0.620727 17.8867 0 18.5074 0 19.2733C0 20.0392 0.620727 20.6598 1.38652 20.6598H13.2185C13.9844 20.6598 14.605 20.0391 14.605 19.2733C14.605 18.5075 13.9844 17.8867 13.2185 17.8867Z" fill="#706519"/>
<path d="M15.4831 12.4326H3.65116C2.88529 12.4326 2.26465 13.0533 2.26465 13.8191C2.26465 14.585 2.88537 15.2056 3.65116 15.2056H15.4831C16.249 15.2056 16.8696 14.5849 16.8696 13.8191C16.8697 13.0533 16.249 12.4326 15.4831 12.4326Z" fill="#706519"/>
</g>
<defs>
<clipPath id="clip0_143_1428">
<rect width="44" height="44" fill="white"/>
</clipPath>
</defs>
</svg>
