<svg width="56" height="56" viewBox="0 0 56 56" fill="none" xmlns="http://www.w3.org/2000/svg">
<rect width="56" height="56" rx="10" fill="#E3F3F7"/>
<path d="M18.2935 25.8342H17.7935V26.3342V36.0009C17.7935 37.7212 18.0055 39 18.8166 39.8111C19.6277 40.6222 20.9065 40.8342 22.6268 40.8342H33.2935C35.0138 40.8342 36.2926 40.6222 37.1037 39.8111C37.9148 39 38.1268 37.7212 38.1268 36.0009V26.3342V25.8342H37.6268H18.2935ZM33.2935 41.8342H22.6268C20.3927 41.8342 18.9759 41.3963 18.1037 40.524C17.2314 39.6518 16.7935 38.235 16.7935 36.0009V25.3342C16.7935 25.0637 17.0229 24.8342 17.2935 24.8342H38.6268C38.8973 24.8342 39.1268 25.0637 39.1268 25.3342V36.0009C39.1268 38.235 38.6888 39.6518 37.8166 40.524C36.9443 41.3963 35.5276 41.8342 33.2935 41.8342Z" fill="#54B7D1" stroke="#54B7D1"/>
<path d="M37.9992 25.8324H17.9992C16.9266 25.8324 16.1515 25.5276 15.6444 25.0206C15.1373 24.5135 14.8325 23.7384 14.8325 22.6658V21.3324C14.8325 20.2598 15.1373 19.4847 15.6444 18.9777C16.1515 18.4706 16.9266 18.1658 17.9992 18.1658H37.9992C39.0286 18.1658 39.8079 18.4816 40.329 19.0027C40.85 19.5237 41.1658 20.303 41.1658 21.3324V22.6658C41.1658 23.6952 40.85 24.4745 40.329 24.9956C39.8079 25.5166 39.0286 25.8324 37.9992 25.8324ZM17.9992 19.1658C17.3514 19.1658 16.7654 19.2825 16.3573 19.6906C15.9492 20.0986 15.8325 20.6847 15.8325 21.3324V22.6658C15.8325 23.3135 15.9492 23.8996 16.3573 24.3077C16.7654 24.7157 17.3514 24.8324 17.9992 24.8324H37.9992C38.6413 24.8324 39.2191 24.6997 39.6261 24.2927C40.0331 23.8857 40.1658 23.3079 40.1658 22.6658V21.3324C40.1658 20.6904 40.0331 20.1126 39.6261 19.7056C39.2191 19.2985 38.6413 19.1658 37.9992 19.1658H17.9992Z" fill="#54B7D1" stroke="#54B7D1"/>
<path d="M27.9799 18.8569L27.9769 18.8639L27.9741 18.871C27.9056 19.0454 27.7355 19.1672 27.5195 19.1672H20.1595C20.0223 19.1672 19.8878 19.1079 19.7935 19.008C19.1607 18.3103 19.1844 17.2427 19.8464 16.5807L21.7397 14.6874C22.4244 14.0026 23.5612 14.0026 24.2459 14.6874L27.8726 18.314C28.0121 18.4536 28.0571 18.6767 27.9799 18.8569ZM20.3928 17.6672V18.1672H20.8928H25.1195H26.3325L25.4718 17.3124L23.5397 15.3936C23.5394 15.3934 23.5392 15.3931 23.5389 15.3929C23.237 15.0917 22.7476 15.0919 22.4459 15.3936L20.5526 17.2869L20.4061 17.4334V17.5504C20.3968 17.5907 20.3928 17.6299 20.3928 17.6672ZM21.255 18.0054L21.2573 18.0031C21.2559 18.0045 21.2546 18.0058 21.2538 18.0066L21.255 18.0054ZM20.5459 17.3003L20.5454 17.3008L20.5459 17.3003Z" fill="#54B7D1" stroke="#54B7D1"/>
<path d="M28.0122 18.871L28.0094 18.8639L28.0064 18.8569C27.9321 18.6836 27.968 18.4694 28.1184 18.3093L31.7403 14.6874C32.4251 14.0026 33.5618 14.0026 34.2466 14.6874L36.1399 16.5807C36.8059 17.2467 36.8346 18.3134 36.194 19.0067C36.0996 19.1074 35.9646 19.1672 35.8268 19.1672H28.4668C28.2601 19.1672 28.0793 19.0419 28.0122 18.871ZM30.5399 17.3136L29.6863 18.1672H30.8934H35.1201H36.3272L35.4737 17.3136L35.4603 17.3003L35.447 17.2869L33.5537 15.3936C33.2517 15.0917 32.7618 15.0917 32.4599 15.3936L30.5399 17.3136Z" fill="#54B7D1" stroke="#54B7D1"/>
<path d="M31.5137 33.7851L31.5137 33.7851L31.5077 33.7883C30.916 34.1101 30.195 34.0718 29.6249 33.6922C29.6246 33.692 29.6243 33.6918 29.6239 33.6915L28.4475 32.8984C28.1557 32.6879 27.7836 32.7093 27.5105 32.8907C27.5101 32.891 27.5097 32.8913 27.5092 32.8915L26.258 33.7168L26.2579 33.7168L26.2494 33.7226C25.9481 33.9304 25.5942 34.0342 25.2533 34.0342C24.9616 34.0342 24.6569 33.9609 24.3845 33.8145C23.7851 33.488 23.4199 32.8697 23.4199 32.2009V25.3342C23.4199 25.0637 23.6494 24.8342 23.9199 24.8342H31.9733C32.2438 24.8342 32.4733 25.0637 32.4733 25.3342V32.1742C32.4733 32.8596 32.1057 33.4736 31.5137 33.7851ZM25.7084 32.8894L25.7084 32.8895L25.7152 32.8849L26.9686 32.0583L26.969 32.058C27.5899 31.6476 28.3844 31.6502 28.9876 32.0558L30.1738 32.8555L30.1737 32.8556L30.1848 32.8627C30.5341 33.085 30.8768 32.9912 31.0572 32.883C31.1808 32.8088 31.4733 32.5968 31.4733 32.1609V26.3209V25.8209H30.9733H24.9199H24.4199V26.3209V26.3342V32.1876C24.4199 32.6234 24.7123 32.8354 24.836 32.9096C25.0164 33.0179 25.3591 33.1117 25.7084 32.8894Z" fill="#54B7D1" stroke="#54B7D1"/>
</svg>
