<svg width="36" height="36" viewBox="0 0 36 36" fill="none" xmlns="http://www.w3.org/2000/svg">
<g opacity="0.6">
<path d="M13.755 23.37C13.47 23.37 13.185 23.265 12.96 23.04C12.525 22.605 12.525 21.885 12.96 21.45L21.45 12.96C21.885 12.525 22.605 12.525 23.04 12.96C23.475 13.395 23.475 14.115 23.04 14.55L14.55 23.04C14.34 23.265 14.04 23.37 13.755 23.37Z" fill="#0C0804"/>
<path d="M22.245 23.37C21.96 23.37 21.675 23.265 21.45 23.04L12.96 14.55C12.525 14.115 12.525 13.395 12.96 12.96C13.395 12.525 14.115 12.525 14.55 12.96L23.04 21.45C23.475 21.885 23.475 22.605 23.04 23.04C22.815 23.265 22.53 23.37 22.245 23.37Z" fill="#0C0804"/>
<path d="M22.5 34.125H13.5C5.355 34.125 1.875 30.645 1.875 22.5V13.5C1.875 5.355 5.355 1.875 13.5 1.875H22.5C30.645 1.875 34.125 5.355 34.125 13.5V22.5C34.125 30.645 30.645 34.125 22.5 34.125ZM13.5 4.125C6.585 4.125 4.125 6.585 4.125 13.5V22.5C4.125 29.415 6.585 31.875 13.5 31.875H22.5C29.415 31.875 31.875 29.415 31.875 22.5V13.5C31.875 6.585 29.415 4.125 22.5 4.125H13.5Z" fill="#0C0804"/>
</g>
</svg>
