<svg width="20" height="20" viewBox="0 0 20 20" fill="none" xmlns="http://www.w3.org/2000/svg">
<path d="M14.5417 18.9587C13.6001 18.9587 12.6084 18.7337 11.5834 18.3003C10.5834 17.8753 9.57508 17.292 8.59175 16.5837C7.61675 15.867 6.67508 15.067 5.78341 14.192C4.90008 13.3003 4.10008 12.3587 3.39175 11.392C2.67508 10.392 2.10008 9.39199 1.69175 8.42532C1.25841 7.39199 1.04175 6.39199 1.04175 5.45033C1.04175 4.80033 1.15841 4.18366 1.38341 3.60866C1.61675 3.01699 1.99175 2.46699 2.50008 1.99199C3.14175 1.35866 3.87508 1.04199 4.65842 1.04199C4.98342 1.04199 5.31675 1.11699 5.60008 1.25033C5.92508 1.40033 6.20008 1.62533 6.40008 1.92533L8.33342 4.65033C8.50842 4.89199 8.64175 5.12533 8.73341 5.35866C8.84175 5.60866 8.90008 5.85866 8.90008 6.10033C8.90008 6.41699 8.80841 6.72533 8.63341 7.01699C8.50841 7.24199 8.31675 7.48366 8.07508 7.72533L7.50842 8.31699C7.51675 8.34199 7.52508 8.35866 7.53341 8.37533C7.63342 8.55033 7.83341 8.85033 8.21675 9.30033C8.62508 9.76699 9.00842 10.192 9.39175 10.5837C9.88342 11.067 10.2917 11.4503 10.6751 11.767C11.1501 12.167 11.4584 12.367 11.6417 12.4587L11.6251 12.5003L12.2334 11.9003C12.4917 11.642 12.7417 11.4503 12.9834 11.3253C13.4417 11.042 14.0251 10.992 14.6084 11.2337C14.8251 11.3253 15.0584 11.4503 15.3084 11.6253L18.0751 13.592C18.3834 13.8003 18.6084 14.067 18.7417 14.3837C18.8667 14.7003 18.9251 14.992 18.9251 15.2837C18.9251 15.6837 18.8334 16.0837 18.6584 16.4587C18.4834 16.8337 18.2667 17.1587 17.9917 17.4587C17.5167 17.9837 17.0001 18.3587 16.4001 18.6003C15.8251 18.8337 15.2001 18.9587 14.5417 18.9587ZM4.65842 2.29199C4.20008 2.29199 3.77508 2.49199 3.36675 2.89199C2.98341 3.25033 2.71675 3.64199 2.55008 4.06699C2.37508 4.50033 2.29175 4.95866 2.29175 5.45033C2.29175 6.22533 2.47508 7.06699 2.84175 7.93366C3.21675 8.81699 3.74175 9.73366 4.40841 10.6503C5.07508 11.567 5.83342 12.4587 6.66675 13.3003C7.50008 14.1253 8.40008 14.892 9.32508 15.567C10.2251 16.2253 11.1501 16.7587 12.0667 17.142C13.4917 17.7503 14.8251 17.892 15.9251 17.4337C16.3501 17.2587 16.7251 16.992 17.0667 16.6087C17.2584 16.4003 17.4084 16.1753 17.5334 15.9087C17.6334 15.7003 17.6834 15.4837 17.6834 15.267C17.6834 15.1337 17.6584 15.0003 17.5917 14.8503C17.5667 14.8003 17.5167 14.7087 17.3584 14.6003L14.5917 12.6337C14.4251 12.517 14.2751 12.4337 14.1334 12.3753C13.9501 12.3003 13.8751 12.2253 13.5917 12.4003C13.4251 12.4837 13.2751 12.6087 13.1084 12.7753L12.4751 13.4003C12.1501 13.717 11.6501 13.792 11.2667 13.6503L11.0417 13.5503C10.7001 13.367 10.3001 13.0837 9.85841 12.7087C9.45842 12.367 9.02508 11.967 8.50008 11.4503C8.09175 11.0337 7.68341 10.592 7.25842 10.1003C6.86675 9.64199 6.58342 9.25033 6.40841 8.92533L6.30841 8.67533C6.25842 8.48366 6.24175 8.37533 6.24175 8.25866C6.24175 7.95866 6.35008 7.69199 6.55841 7.48366L7.18341 6.83366C7.35008 6.66699 7.47508 6.50866 7.55841 6.36699C7.62508 6.25866 7.65008 6.16699 7.65008 6.08366C7.65008 6.01699 7.62508 5.91699 7.58342 5.81699C7.52508 5.68366 7.43341 5.53366 7.31675 5.37533L5.38341 2.64199C5.30008 2.52533 5.20008 2.44199 5.07508 2.38366C4.94175 2.32533 4.80008 2.29199 4.65842 2.29199ZM11.6251 12.5087L11.4917 13.0753L11.7167 12.492C11.6751 12.4837 11.6417 12.492 11.6251 12.5087Z" fill="#706519"/>
<path d="M15.4167 8.12467C15.075 8.12467 14.7917 7.84134 14.7917 7.49967C14.7917 7.19967 14.4917 6.57467 13.9917 6.04134C13.5 5.51634 12.9583 5.20801 12.5 5.20801C12.1583 5.20801 11.875 4.92467 11.875 4.58301C11.875 4.24134 12.1583 3.95801 12.5 3.95801C13.3083 3.95801 14.1583 4.39134 14.9 5.18301C15.5917 5.92467 16.0417 6.83301 16.0417 7.49967C16.0417 7.84134 15.7583 8.12467 15.4167 8.12467Z" fill="#706519"/>
<path d="M18.3333 8.12533C17.9917 8.12533 17.7083 7.84199 17.7083 7.50033C17.7083 4.62533 15.375 2.29199 12.5 2.29199C12.1583 2.29199 11.875 2.00866 11.875 1.66699C11.875 1.32533 12.1583 1.04199 12.5 1.04199C16.0583 1.04199 18.9583 3.94199 18.9583 7.50033C18.9583 7.84199 18.675 8.12533 18.3333 8.12533Z" fill="#706519"/>
</svg>
