<svg width="40" height="40" viewBox="0 0 40 40" fill="none" xmlns="http://www.w3.org/2000/svg">
<path d="M37.1363 14.8287L32.711 11.1355V5.89581C32.711 5.44341 32.3162 5.09794 31.8555 5.09794H25.415L22.8322 2.94285C21.3104 1.68435 19.106 1.68435 17.5843 2.95108L15.0015 5.09794H8.47864C8.02623 5.09794 7.62318 5.43518 7.62318 5.89581V11.2177L3.28011 14.8287C3.09915 14.985 2.99222 15.2235 3.00044 15.4621H3.01689V33.879C3.01689 36.1493 4.84296 38 7.10497 38H33.3032C35.5735 38 37.3913 36.141 37.3913 33.879V15.4621H37.4078C37.4242 15.2153 37.3255 14.985 37.1363 14.8287ZM32.711 13.2741L35.302 15.4292L32.711 17.354V13.2741ZM18.6371 4.20958C19.5502 3.45283 20.8745 3.46106 21.7875 4.21781L22.8322 5.09794H17.5761L18.6371 4.20958ZM9.26828 6.74304H31.0659V18.5796L21.697 25.5548C20.8087 26.2046 19.6078 26.2046 18.7276 25.5548L9.26828 18.5138V6.74304ZM7.62318 13.3481V17.2882L5.1144 15.421L7.62318 13.3481ZM35.7544 33.8708C35.7627 35.2362 34.6687 36.3467 33.3115 36.3549H7.10497C5.74776 36.3467 4.65377 35.2362 4.662 33.879V17.099L17.757 26.8791C19.2129 27.9566 21.2035 27.9566 22.6594 26.8791L35.7544 17.099V33.8708Z" fill="#706519"/>
<path d="M19.5502 13.3232H15.1084C14.656 13.3232 14.2859 13.6934 14.2859 14.1458C14.2859 14.5982 14.656 14.9683 15.1084 14.9683H19.5502C20.0026 14.9683 20.3728 14.5982 20.3728 14.1458C20.3728 13.6934 20.0026 13.3232 19.5502 13.3232Z" fill="#706519"/>
<path d="M25.3081 17.436H15.1084C14.656 17.436 14.2859 17.8062 14.2859 18.2586C14.2859 18.711 14.656 19.0811 15.1084 19.0811H25.3081C25.7605 19.0811 26.1306 18.711 26.1306 18.2586C26.1306 17.8062 25.7605 17.436 25.3081 17.436Z" fill="#706519"/>
</svg>
