<svg width="25" height="24" viewBox="0 0 25 24" fill="none" xmlns="http://www.w3.org/2000/svg">
<g clip-path="url(#clip0_1196_6232)">
<path d="M18.525 4.52029H16.5714V2.21114C16.5714 1.43999 16.1798 0.737479 15.5232 0.331448C14.8667 -0.0734582 14.0633 -0.109552 13.3739 0.23512C10.1932 1.82549 4.65431 4.59454 4.65431 4.59454C4.41609 4.7136 4.26562 4.95707 4.26562 5.22337V23.2969C4.26562 23.6852 4.58044 23.9999 4.96875 23.9999H18.525C19.7432 23.9999 20.7343 23.0089 20.7343 21.7908V6.72951C20.7343 5.51132 19.7432 4.52029 18.525 4.52029ZM14.0029 1.4909C14.2535 1.36565 14.5458 1.37887 14.7842 1.52592C15.0193 1.67128 15.1652 1.93312 15.1652 2.20935V4.5187H7.94733C9.80733 3.58875 12.2593 2.36278 14.0029 1.4909ZM19.3281 21.7906C19.3281 22.2334 18.9678 22.5937 18.525 22.5937H5.67187V5.92495H18.525C18.9678 5.92495 19.3281 6.28523 19.3281 6.72806V21.7906Z" fill="#706519"/>
<path d="M12.5078 17.6562C12.1022 17.6562 11.7734 17.3275 11.7734 16.9219V14.4844H9.32031C8.91473 14.4844 8.58594 14.1556 8.58594 13.75C8.58594 13.3444 8.91473 13.0156 9.32031 13.0156H11.7734V10.5625C11.7734 10.1569 12.1022 9.82812 12.5078 9.82812C12.9134 9.82812 13.2422 10.1569 13.2422 10.5625V13H15.6719C16.0818 13 16.4141 13.3323 16.4141 13.7422C16.4141 14.1521 16.0818 14.4844 15.6719 14.4844H13.2422V16.9219C13.2422 17.3275 12.9134 17.6562 12.5078 17.6562Z" fill="#706519"/>
</g>
<defs>
<clipPath id="clip0_1196_6232">
<rect width="24" height="24" fill="white" transform="translate(0.5)"/>
</clipPath>
</defs>
</svg>
