<svg width="40" height="40" viewBox="0 0 40 40" fill="none" xmlns="http://www.w3.org/2000/svg">
<rect x="0.5" y="0.5" width="39" height="39" rx="19.5" stroke="white"/>
<path d="M20.2597 11.5C20.8271 11.5032 22.2467 11.517 23.7555 11.5776L24.2911 11.6009C25.8095 11.6721 27.3268 11.7954 28.0802 12.0047C29.0843 12.2874 29.8727 13.1098 30.1394 14.1532C30.5645 15.8108 30.6176 19.0432 30.624 19.8263L30.625 19.9878V20.1727C30.6176 20.9558 30.5645 24.1892 30.1394 25.8457C29.8695 26.8923 29.08 27.7158 28.0802 27.9942C27.3268 28.2035 25.8095 28.3268 24.2911 28.398L23.7555 28.4224C22.2467 28.4819 20.8271 28.4968 20.2597 28.4989L20.01 28.5H19.739C18.5383 28.4926 13.5166 28.4384 11.9185 27.9942C10.9155 27.7116 10.126 26.8891 9.85929 25.8457C9.43426 24.1881 9.38113 20.9558 9.37476 20.1727V19.8263C9.38113 19.0432 9.43426 15.8098 9.85929 14.1532C10.1292 13.1066 10.9187 12.2831 11.9196 12.0058C13.5166 11.5606 18.5394 11.5064 19.7401 11.5H20.2597ZM17.8742 16.2815V23.7195L24.2496 20.0005L17.8742 16.2815Z" fill="white"/>
</svg>
