<svg width="44" height="44" viewBox="0 0 44 44" fill="none" xmlns="http://www.w3.org/2000/svg">
<path d="M39.5105 26.5371C39.1458 26.5371 38.7961 26.682 38.5382 26.9398C38.2804 27.1977 38.1355 27.5474 38.1355 27.9121V32.6077C38.1355 33.7145 37.6958 34.776 36.9132 35.5586C36.1306 36.3412 35.0692 36.7809 33.9624 36.7809H10.0374C8.9306 36.7809 7.86915 36.3412 7.08654 35.5586C6.30393 34.776 5.86426 33.7145 5.86426 32.6077V27.9121C5.86426 27.5474 5.71939 27.1977 5.46153 26.9398C5.20367 26.682 4.85393 26.5371 4.48926 26.5371C4.12459 26.5371 3.77485 26.682 3.51699 26.9398C3.25912 27.1977 3.11426 27.5474 3.11426 27.9121V32.6077C3.11608 34.4433 3.84606 36.2032 5.144 37.5011C6.44195 38.7991 8.20181 39.529 10.0374 39.5309H33.9624C35.798 39.529 37.5578 38.7991 38.8558 37.5011C40.1537 36.2032 40.8837 34.4433 40.8855 32.6077V27.9121C40.8855 27.5474 40.7406 27.1977 40.4828 26.9398C40.2249 26.682 39.8752 26.5371 39.5105 26.5371Z" fill="#706519"/>
<path d="M15.1248 14.6436L20.6248 9.14356V29.5623C20.6248 29.927 20.7697 30.2767 21.0276 30.5346C21.2854 30.7924 21.6352 30.9373 21.9998 30.9373C22.3645 30.9373 22.7142 30.7924 22.9721 30.5346C23.23 30.2767 23.3748 29.927 23.3748 29.5623V9.16418L28.8748 14.6642C29.0026 14.7919 29.1543 14.8933 29.3212 14.9624C29.4881 15.0316 29.667 15.0671 29.8477 15.0671C30.0283 15.0671 30.2072 15.0316 30.3741 14.9624C30.541 14.8933 30.6927 14.7919 30.8205 14.6642C30.9482 14.5364 31.0496 14.3848 31.1187 14.2179C31.1878 14.0509 31.2234 13.872 31.2234 13.6914C31.2234 13.5107 31.1878 13.3318 31.1187 13.1649C31.0496 12.998 30.9482 12.8463 30.8205 12.7186L22.9761 4.87418C22.785 4.68878 22.5475 4.55818 22.2886 4.49606C22.066 4.45509 21.8369 4.46805 21.6204 4.53384C21.4039 4.59962 21.2063 4.71633 21.0442 4.87418L13.1998 12.6979C12.9815 12.9606 12.8688 13.2951 12.8836 13.6363C12.8984 13.9776 13.0397 14.3011 13.2799 14.5438C13.5201 14.7866 13.8421 14.9313 14.1831 14.9498C14.5242 14.9682 14.8599 14.859 15.1248 14.6436Z" fill="#706519"/>
</svg>
