<svg width="40" height="40" viewBox="0 0 40 40" fill="none" xmlns="http://www.w3.org/2000/svg">
<rect x="0.5" y="0.5" width="39" height="39" rx="19.5" stroke="#0C0804"/>
<path d="M22.8857 20C22.8857 20.5696 22.7165 21.1264 22.3994 21.6C22.0823 22.0737 21.6316 22.4428 21.1043 22.6608C20.577 22.8788 19.9967 22.9358 19.437 22.8247C18.8772 22.7135 18.363 22.4392 17.9594 22.0365C17.5558 21.6337 17.2809 21.1205 17.1696 20.5619C17.0582 20.0032 17.1154 19.4241 17.3338 18.8979C17.5522 18.3716 17.9221 17.9218 18.3967 17.6054C18.8712 17.2889 19.4292 17.12 19.9999 17.12C20.7646 17.1224 21.4972 17.4266 22.0379 17.9662C22.5786 18.5057 22.8834 19.2369 22.8857 20ZM29.0181 16.04V23.96C29.0181 25.2967 28.486 26.5786 27.5389 27.5238C26.5918 28.469 25.3073 29 23.9679 29H16.032C14.6926 29 13.4081 28.469 12.461 27.5238C11.5139 26.5786 10.9818 25.2967 10.9818 23.96V16.04C10.9818 14.7033 11.5139 13.4214 12.461 12.4762C13.4081 11.531 14.6926 11 16.032 11H23.9679C25.3073 11 26.5918 11.531 27.5389 12.4762C28.486 13.4214 29.0181 14.7033 29.0181 16.04ZM24.3286 20C24.3286 19.1456 24.0748 18.3104 23.5991 17.5999C23.1235 16.8895 22.4474 16.3358 21.6565 16.0088C20.8655 15.6819 19.9951 15.5963 19.1555 15.763C18.3158 15.9297 17.5445 16.3411 16.9391 16.9453C16.3337 17.5495 15.9214 18.3192 15.7544 19.1572C15.5874 19.9952 15.6731 20.8638 16.0007 21.6532C16.3284 22.4426 16.8832 23.1173 17.595 23.5919C18.3069 24.0666 19.1438 24.32 19.9999 24.32C21.148 24.32 22.249 23.8649 23.0608 23.0547C23.8726 22.2445 24.3286 21.1457 24.3286 20ZM25.7715 15.32C25.7715 15.1064 25.7081 14.8976 25.5892 14.72C25.4703 14.5424 25.3012 14.404 25.1035 14.3222C24.9058 14.2405 24.6882 14.2191 24.4782 14.2608C24.2683 14.3024 24.0755 14.4053 23.9242 14.5563C23.7728 14.7074 23.6697 14.8998 23.628 15.1093C23.5862 15.3188 23.6077 15.536 23.6896 15.7333C23.7715 15.9306 23.9102 16.0993 24.0881 16.218C24.2661 16.3367 24.4753 16.4 24.6894 16.4C24.9764 16.4 25.2516 16.2862 25.4546 16.0837C25.6575 15.8811 25.7715 15.6064 25.7715 15.32Z" fill="black"/>
</svg>
