<?xml version="1.0" encoding="utf-8"?>
<!-- Generator: Adobe Illustrator 24.0.1, SVG Export Plug-In . SVG Version: 6.00 Build 0)  -->
<svg version="1.1" id="Layer_1" xmlns="http://www.w3.org/2000/svg" xmlns:xlink="http://www.w3.org/1999/xlink" x="0px" y="0px"
	 viewBox="0 0 101 128" style="enable-background:new 0 0 101 128;" xml:space="preserve">
<style type="text/css">
	.st0{fill:#FFFFFF;}
	.st1{fill:none;stroke:#E9E9EA;}
	.st2{fill:none;stroke:#0C0804;stroke-opacity:0.2;stroke-dasharray:2,2;}
	.st3{fill:#0C0804;}
	.st4{fill:none;stroke:#0C0804;stroke-width:0.8571;}
	.st5{fill-rule:evenodd;clip-rule:evenodd;fill:#0C0804;}
</style>
<g>
	<rect class="st0" width="101" height="128"/>
	<rect x="0.5" y="0.5" class="st1" width="100" height="127"/>
</g>
<rect x="4" y="67" class="st0" width="93" height="56"/>
<rect x="3.5" y="66.5" class="st2" width="94" height="57"/>
<path class="st3" d="M53,102.2h-4c-3.6,0-5.2-1.5-5.2-5.2v-4c0-3.6,1.5-5.2,5.2-5.2h4c3.6,0,5.2,1.5,5.2,5.2v4
	C58.2,100.6,56.6,102.2,53,102.2z M49,88.8c-3.1,0-4.2,1.1-4.2,4.2v4c0,3.1,1.1,4.2,4.2,4.2h4c3.1,0,4.2-1.1,4.2-4.2v-4
	c0-3.1-1.1-4.2-4.2-4.2H49z"/>
<path class="st3" d="M49,94.2c-1,0-1.8-0.8-1.8-1.8c0-1,0.8-1.8,1.8-1.8c1,0,1.8,0.8,1.8,1.8C50.8,93.3,50,94.2,49,94.2z M49,91.5
	c-0.5,0-0.8,0.4-0.8,0.8s0.4,0.8,0.8,0.8s0.8-0.4,0.8-0.8S49.5,91.5,49,91.5z"/>
<path class="st3" d="M44.8,100.1c-0.2,0-0.3-0.1-0.4-0.2c-0.2-0.2-0.1-0.5,0.1-0.7l3.3-2.2c0.7-0.5,1.7-0.4,2.4,0.1l0.2,0.2
	c0.3,0.3,0.9,0.3,1.2,0l2.8-2.4c0.7-0.6,1.8-0.6,2.5,0l1.1,0.9c0.2,0.2,0.2,0.5,0.1,0.7c-0.2,0.2-0.5,0.2-0.7,0.1l-1.1-0.9
	c-0.3-0.3-0.9-0.3-1.2,0l-2.8,2.4c-0.7,0.6-1.8,0.6-2.5,0l-0.2-0.2c-0.3-0.3-0.8-0.3-1.2-0.1l-3.3,2.2
	C45,100.1,44.9,100.1,44.8,100.1z"/>
<rect x="53" y="5" class="st0" width="44" height="56"/>
<rect x="52.5" y="4.5" class="st2" width="45" height="57"/>
<path class="st3" d="M77,40.2h-4c-3.6,0-5.2-1.5-5.2-5.2v-4c0-3.6,1.5-5.2,5.2-5.2h4c3.6,0,5.2,1.5,5.2,5.2v4
	C82.2,38.6,80.6,40.2,77,40.2z M73,26.8c-3.1,0-4.2,1.1-4.2,4.2v4c0,3.1,1.1,4.2,4.2,4.2h4c3.1,0,4.2-1.1,4.2-4.2v-4
	c0-3.1-1.1-4.2-4.2-4.2H73z"/>
<path class="st3" d="M73,32.2c-1,0-1.8-0.8-1.8-1.8c0-1,0.8-1.8,1.8-1.8c1,0,1.8,0.8,1.8,1.8C74.8,31.3,74,32.2,73,32.2z M73,29.5
	c-0.5,0-0.8,0.4-0.8,0.8c0,0.5,0.4,0.8,0.8,0.8c0.5,0,0.8-0.4,0.8-0.8C73.8,29.9,73.5,29.5,73,29.5z"/>
<path class="st3" d="M68.8,38.1c-0.2,0-0.3-0.1-0.4-0.2c-0.2-0.2-0.1-0.5,0.1-0.7l3.3-2.2c0.7-0.5,1.7-0.4,2.4,0.1l0.2,0.2
	c0.3,0.3,0.9,0.3,1.2,0l2.8-2.4c0.7-0.6,1.8-0.6,2.5,0l1.1,0.9c0.2,0.2,0.2,0.5,0.1,0.7c-0.2,0.2-0.5,0.2-0.7,0.1l-1.1-0.9
	c-0.3-0.3-0.9-0.3-1.2,0l-2.8,2.4c-0.7,0.6-1.8,0.6-2.5,0l-0.2-0.2c-0.3-0.3-0.8-0.3-1.2-0.1l-3.3,2.2C69,38.1,68.9,38.1,68.8,38.1z
	"/>
<rect x="4" y="5" class="st0" width="44" height="56"/>
<rect x="3.5" y="4.5" class="st2" width="45" height="57"/>
<path class="st4" d="M21.4,26.6h9.1c1,0,1.9,0.8,1.9,1.9v9.1c0,1-0.8,1.9-1.9,1.9h-9.1c-1,0-1.9-0.8-1.9-1.9v-9.1
	C19.6,27.4,20.4,26.6,21.4,26.6z"/>
<path class="st5" d="M26.6,36.3h0.9c0.3,0,0.5,0.2,0.5,0.5c0,0.3-0.2,0.5-0.5,0.5h-2.7c-0.3,0-0.5-0.2-0.5-0.5
	c0-0.3,0.2-0.5,0.5-0.5h0.9v-6.4h-2.7v0.9c0,0.3-0.2,0.5-0.5,0.5c-0.3,0-0.5-0.2-0.5-0.5v-1.4c0-0.3,0.2-0.5,0.5-0.5h7.3
	c0.3,0,0.5,0.2,0.5,0.5v1.4c0,0.3-0.2,0.5-0.5,0.5c-0.3,0-0.5-0.2-0.5-0.5v-0.9h-2.7V36.3z"/>
</svg>
