<?xml version="1.0" encoding="utf-8"?>
<!-- Generator: Adobe Illustrator 24.0.1, SVG Export Plug-In . SVG Version: 6.00 Build 0)  -->
<svg version="1.1" id="Layer_1" xmlns="http://www.w3.org/2000/svg" xmlns:xlink="http://www.w3.org/1999/xlink" x="0px" y="0px"
	 viewBox="0 0 101 128" style="enable-background:new 0 0 101 128;" xml:space="preserve">
<style type="text/css">
	.st0{fill:#FFFFFF;}
	.st1{fill:none;stroke:#E9E9EA;}
	.st2{fill:none;stroke:#0C0804;stroke-opacity:0.2;stroke-dasharray:2,2;}
	.st3{fill:none;stroke:#0C0804;stroke-width:0.8571;}
	.st4{fill-rule:evenodd;clip-rule:evenodd;fill:#0C0804;}
	.st5{opacity:0.6;enable-background:new    ;}
</style>
<g>
	<rect class="st0" width="101" height="128"/>
	<rect x="0.5" y="0.5" class="st1" width="100" height="127"/>
</g>
<rect x="4" y="5" class="st0" width="93" height="56"/>
<rect x="3.5" y="4.5" class="st2" width="94" height="57"/>
<path class="st3" d="M24.4,26.6h9.1c1,0,1.9,0.8,1.9,1.9v9.1c0,1-0.8,1.9-1.9,1.9h-9.1c-1,0-1.9-0.8-1.9-1.9v-9.1
	C22.6,27.4,23.4,26.6,24.4,26.6z"/>
<path class="st4" d="M29.6,36.3h0.9c0.3,0,0.5,0.2,0.5,0.5s-0.2,0.5-0.5,0.5h-2.7c-0.3,0-0.5-0.2-0.5-0.5s0.2-0.5,0.5-0.5h0.9v-6.4
	H26v0.9c0,0.3-0.2,0.5-0.5,0.5S25,31.1,25,30.8v-1.4c0-0.3,0.2-0.5,0.5-0.5h7.3c0.3,0,0.5,0.2,0.5,0.5v1.4c0,0.3-0.2,0.5-0.5,0.5
	s-0.5-0.2-0.5-0.5v-0.9h-2.7C29.6,29.9,29.6,36.3,29.6,36.3z"/>
<path class="st5" d="M44.9,29.5L42.5,36h-1l2.7-7.1h0.6L44.9,29.5z M46.9,36l-2.4-6.5v-0.6h0.6l2.7,7.1H46.9z M46.8,33.4v0.8h-4
	v-0.8H46.8z M52,35v-6.5h0.9V36h-0.8L52,35z M48.4,33.4v-0.1c0-0.4,0-0.8,0.1-1.1c0.1-0.3,0.2-0.6,0.4-0.9c0.2-0.2,0.4-0.4,0.7-0.5
	s0.5-0.2,0.9-0.2c0.3,0,0.6,0.1,0.9,0.2c0.3,0.1,0.5,0.3,0.6,0.5c0.2,0.2,0.3,0.5,0.4,0.8c0.1,0.3,0.2,0.7,0.2,1v0.4
	c0,0.4-0.1,0.7-0.2,1c-0.1,0.3-0.2,0.6-0.4,0.8c-0.2,0.2-0.4,0.4-0.6,0.5c-0.3,0.1-0.5,0.2-0.9,0.2c-0.3,0-0.6-0.1-0.8-0.2
	c-0.3-0.1-0.5-0.3-0.7-0.6c-0.2-0.2-0.3-0.5-0.4-0.8C48.5,34.2,48.4,33.8,48.4,33.4z M49.3,33.3v0.1c0,0.3,0,0.5,0.1,0.7
	c0.1,0.2,0.1,0.4,0.3,0.6c0.1,0.2,0.3,0.3,0.4,0.4c0.2,0.1,0.4,0.1,0.6,0.1c0.3,0,0.5-0.1,0.7-0.2s0.4-0.3,0.5-0.5s0.2-0.4,0.3-0.7
	v-1.2c0-0.2-0.1-0.4-0.2-0.5c-0.1-0.2-0.2-0.3-0.3-0.4s-0.3-0.2-0.4-0.3c-0.2-0.1-0.4-0.1-0.6-0.1c-0.2,0-0.5,0.1-0.6,0.2
	c-0.2,0.1-0.3,0.2-0.4,0.4c-0.1,0.2-0.2,0.4-0.3,0.6C49.4,32.8,49.3,33.1,49.3,33.3z M57.6,35v-6.5h0.9V36h-0.8L57.6,35z M54.1,33.4
	v-0.1c0-0.4,0-0.8,0.1-1.1c0.1-0.3,0.2-0.6,0.4-0.9c0.2-0.2,0.4-0.4,0.7-0.5s0.5-0.2,0.9-0.2c0.3,0,0.6,0.1,0.9,0.2
	c0.3,0.1,0.5,0.3,0.6,0.5c0.2,0.2,0.3,0.5,0.4,0.8c0.1,0.3,0.2,0.7,0.2,1v0.4c0,0.4-0.1,0.7-0.2,1c-0.1,0.3-0.2,0.6-0.4,0.8
	c-0.2,0.2-0.4,0.4-0.6,0.5c-0.3,0.1-0.5,0.2-0.9,0.2c-0.3,0-0.6-0.1-0.8-0.2c-0.3-0.1-0.5-0.3-0.7-0.6c-0.2-0.2-0.3-0.5-0.4-0.8
	C54.1,34.2,54.1,33.8,54.1,33.4z M55,33.3v0.1c0,0.3,0,0.5,0.1,0.7c0.1,0.2,0.1,0.4,0.3,0.6c0.1,0.2,0.3,0.3,0.4,0.4
	c0.2,0.1,0.4,0.1,0.6,0.1c0.3,0,0.5-0.1,0.7-0.2s0.4-0.3,0.5-0.5s0.2-0.4,0.3-0.7v-1.2c0-0.2-0.1-0.4-0.2-0.5
	c-0.1-0.2-0.2-0.3-0.3-0.4s-0.3-0.2-0.4-0.3c-0.2-0.1-0.4-0.1-0.6-0.1c-0.2,0-0.5,0.1-0.6,0.2c-0.2,0.1-0.3,0.2-0.4,0.4
	c-0.1,0.2-0.2,0.4-0.3,0.6C55,32.8,55,33.1,55,33.3z M65,28.9V36h-0.9v-7.1H65z M67.3,28.9v0.8h-5.5v-0.8H67.3z M69.9,36.1
	c-0.4,0-0.7-0.1-1-0.2c-0.3-0.1-0.6-0.3-0.8-0.5c-0.2-0.2-0.4-0.5-0.5-0.8c-0.1-0.3-0.2-0.7-0.2-1v-0.2c0-0.4,0.1-0.8,0.2-1.1
	s0.3-0.6,0.5-0.9c0.2-0.2,0.5-0.4,0.7-0.5c0.3-0.1,0.6-0.2,0.9-0.2c0.4,0,0.7,0.1,1,0.2s0.5,0.3,0.7,0.5s0.3,0.5,0.4,0.8
	c0.1,0.3,0.1,0.7,0.1,1v0.4H68v-0.7h3v-0.1c0-0.2-0.1-0.5-0.1-0.7c-0.1-0.2-0.2-0.4-0.4-0.5c-0.2-0.1-0.4-0.2-0.7-0.2
	c-0.2,0-0.4,0-0.6,0.1s-0.3,0.2-0.4,0.4c-0.1,0.2-0.2,0.4-0.3,0.6c-0.1,0.2-0.1,0.5-0.1,0.8v0.2c0,0.3,0,0.5,0.1,0.7
	s0.2,0.4,0.3,0.6c0.1,0.2,0.3,0.3,0.5,0.4s0.4,0.1,0.7,0.1c0.3,0,0.6-0.1,0.8-0.2c0.2-0.1,0.4-0.3,0.6-0.5l0.5,0.4
	c-0.1,0.2-0.3,0.3-0.4,0.5c-0.2,0.2-0.4,0.3-0.6,0.4C70.6,36,70.2,36.1,69.9,36.1z M73.6,30.7l1.2,1.9l1.2-1.9h1l-1.7,2.6l1.8,2.7
	h-1l-1.2-2l-1.2,2h-1l1.8-2.7l-1.7-2.6H73.6z M80.2,30.7v0.7h-2.9v-0.7H80.2z M78.3,29.4h0.9v5.3c0,0.2,0,0.3,0.1,0.4
	c0.1,0.1,0.1,0.2,0.2,0.2s0.2,0,0.3,0c0.1,0,0.2,0,0.2,0c0.1,0,0.1,0,0.2,0V36c-0.1,0-0.2,0-0.3,0.1c-0.1,0-0.3,0-0.4,0
	c-0.2,0-0.4,0-0.6-0.1c-0.2-0.1-0.3-0.2-0.4-0.4s-0.2-0.5-0.2-0.8C78.3,34.8,78.3,29.4,78.3,29.4z"/>
<rect x="4" y="67" class="st0" width="93" height="56"/>
<rect x="3.5" y="66.5" class="st2" width="94" height="57"/>
<path class="st3" d="M24.4,88.6h9.1c1,0,1.9,0.8,1.9,1.9v9.1c0,1-0.8,1.9-1.9,1.9h-9.1c-1,0-1.9-0.8-1.9-1.9v-9.1
	C22.6,89.4,23.4,88.6,24.4,88.6z"/>
<path class="st4" d="M29.6,98.3h0.9c0.3,0,0.5,0.2,0.5,0.5s-0.2,0.5-0.5,0.5h-2.7c-0.3,0-0.5-0.2-0.5-0.5s0.2-0.5,0.5-0.5h0.9v-6.4
	H26v0.9c0,0.3-0.2,0.5-0.5,0.5S25,93.1,25,92.8v-1.4c0-0.3,0.2-0.5,0.5-0.5h7.3c0.3,0,0.5,0.2,0.5,0.5v1.4c0,0.3-0.2,0.5-0.5,0.5
	s-0.5-0.2-0.5-0.5v-0.9h-2.7C29.6,91.9,29.6,98.3,29.6,98.3z"/>
<path class="st5" d="M44.9,91.5L42.5,98h-1l2.7-7.1h0.6L44.9,91.5z M46.9,98l-2.4-6.5v-0.6h0.6l2.7,7.1H46.9z M46.8,95.4v0.8h-4
	v-0.8H46.8z M52,97v-6.5h0.9V98h-0.8L52,97z M48.4,95.4L48.4,95.4c0-0.5,0-0.9,0.1-1.2c0.1-0.3,0.2-0.6,0.4-0.9
	c0.2-0.2,0.4-0.4,0.7-0.5s0.5-0.2,0.9-0.2c0.3,0,0.6,0.1,0.9,0.2c0.3,0.1,0.5,0.3,0.6,0.5c0.2,0.2,0.3,0.5,0.4,0.8
	c0.1,0.3,0.2,0.7,0.2,1.1v0.4c0,0.4-0.1,0.7-0.2,1c-0.1,0.3-0.2,0.6-0.4,0.8c-0.2,0.2-0.4,0.4-0.6,0.5c-0.3,0.1-0.5,0.2-0.9,0.2
	c-0.3,0-0.6-0.1-0.8-0.2c-0.3-0.1-0.5-0.3-0.7-0.6c-0.2-0.2-0.3-0.5-0.4-0.8C48.5,96.2,48.4,95.8,48.4,95.4z M49.3,95.3L49.3,95.3
	c0,0.4,0,0.6,0.1,0.8s0.1,0.4,0.3,0.6c0.1,0.2,0.3,0.3,0.4,0.4c0.2,0.1,0.4,0.1,0.6,0.1c0.3,0,0.5-0.1,0.7-0.2s0.4-0.3,0.5-0.5
	s0.2-0.4,0.3-0.7v-1.2c0-0.2-0.1-0.4-0.2-0.5c-0.1-0.2-0.2-0.3-0.3-0.4s-0.3-0.2-0.4-0.3c-0.2-0.1-0.4-0.1-0.6-0.1
	c-0.2,0-0.5,0.1-0.6,0.2c-0.2,0.1-0.3,0.2-0.4,0.4c-0.1,0.2-0.2,0.4-0.3,0.6C49.4,94.8,49.3,95.1,49.3,95.3z M57.6,97v-6.5h0.9V98
	h-0.8L57.6,97z M54.1,95.4L54.1,95.4c0-0.5,0-0.9,0.1-1.2c0.1-0.3,0.2-0.6,0.4-0.9c0.2-0.2,0.4-0.4,0.7-0.5s0.5-0.2,0.9-0.2
	c0.3,0,0.6,0.1,0.9,0.2c0.3,0.1,0.5,0.3,0.6,0.5c0.2,0.2,0.3,0.5,0.4,0.8c0.1,0.3,0.2,0.7,0.2,1.1v0.4c0,0.4-0.1,0.7-0.2,1
	c-0.1,0.3-0.2,0.6-0.4,0.8c-0.2,0.2-0.4,0.4-0.6,0.5c-0.3,0.1-0.5,0.2-0.9,0.2c-0.3,0-0.6-0.1-0.8-0.2c-0.3-0.1-0.5-0.3-0.7-0.6
	c-0.2-0.2-0.3-0.5-0.4-0.8C54.1,96.2,54.1,95.8,54.1,95.4z M55,95.3L55,95.3c0,0.4,0,0.6,0.1,0.8s0.1,0.4,0.3,0.6
	c0.1,0.2,0.3,0.3,0.4,0.4c0.2,0.1,0.4,0.1,0.6,0.1c0.3,0,0.5-0.1,0.7-0.2s0.4-0.3,0.5-0.5s0.2-0.4,0.3-0.7v-1.2
	c0-0.2-0.1-0.4-0.2-0.5c-0.1-0.2-0.2-0.3-0.3-0.4s-0.3-0.2-0.4-0.3c-0.2-0.1-0.4-0.1-0.6-0.1c-0.2,0-0.5,0.1-0.6,0.2
	c-0.2,0.1-0.3,0.2-0.4,0.4c-0.1,0.2-0.2,0.4-0.3,0.6C55,94.8,55,95.1,55,95.3z M65,90.9V98h-0.9v-7.1H65z M67.3,90.9v0.8h-5.5v-0.8
	H67.3z M69.9,98.1c-0.4,0-0.7-0.1-1-0.2s-0.6-0.3-0.8-0.5s-0.4-0.5-0.5-0.8s-0.2-0.7-0.2-1v-0.2c0-0.4,0.1-0.8,0.2-1.1
	c0.1-0.3,0.3-0.6,0.5-0.9s0.5-0.4,0.7-0.5c0.3-0.1,0.6-0.2,0.9-0.2c0.4,0,0.7,0.1,1,0.2s0.5,0.3,0.7,0.5s0.3,0.5,0.4,0.8
	s0.1,0.7,0.1,1v0.4H68v-0.7h3v-0.1c0-0.2-0.1-0.5-0.1-0.7c-0.1-0.2-0.2-0.4-0.4-0.5c-0.2-0.1-0.4-0.2-0.7-0.2c-0.2,0-0.4,0-0.6,0.1
	s-0.3,0.2-0.4,0.4s-0.2,0.4-0.3,0.6c-0.1,0.2-0.1,0.5-0.1,0.8v0.2c0,0.3,0,0.5,0.1,0.7s0.2,0.4,0.3,0.6c0.1,0.2,0.3,0.3,0.5,0.4
	s0.4,0.1,0.7,0.1c0.3,0,0.6-0.1,0.8-0.2c0.2-0.1,0.4-0.3,0.6-0.5l0.5,0.4c-0.1,0.2-0.3,0.3-0.4,0.5c-0.2,0.2-0.4,0.3-0.6,0.4
	C70.6,98,70.2,98.1,69.9,98.1z M73.6,92.7l1.2,1.9l1.2-1.9h1l-1.7,2.6l1.8,2.7h-1l-1.2-2l-1.2,2h-1l1.8-2.7l-1.7-2.6H73.6z
	 M80.2,92.7v0.7h-2.9v-0.7H80.2z M78.3,91.4h0.9v5.3c0,0.2,0,0.3,0.1,0.4s0.1,0.2,0.2,0.2s0.2,0,0.3,0c0.1,0,0.2,0,0.2,0
	c0.1,0,0.1,0,0.2,0V98c-0.1,0-0.2,0-0.3,0.1c-0.1,0-0.3,0-0.4,0c-0.2,0-0.4,0-0.6-0.1s-0.3-0.2-0.4-0.4c-0.1-0.2-0.2-0.5-0.2-0.8
	C78.3,96.8,78.3,91.4,78.3,91.4z"/>
</svg>
