<?xml version="1.0" encoding="utf-8"?>
<!-- Generator: Adobe Illustrator 24.0.1, SVG Export Plug-In . SVG Version: 6.00 Build 0)  -->
<svg version="1.1" id="Layer_1" xmlns="http://www.w3.org/2000/svg" xmlns:xlink="http://www.w3.org/1999/xlink" x="0px" y="0px"
	 viewBox="0 0 128 101" style="enable-background:new 0 0 128 101;" xml:space="preserve">
<style type="text/css">
	.st0{fill:#FFFFFF;}
	.st1{fill:none;stroke:#E9E9EA;}
	.st2{fill:none;stroke:#0C0804;stroke-opacity:0.2;stroke-dasharray:2,2;}
	.st3{fill:#0C0804;}
	.st4{fill:none;stroke:#0C0804;stroke-width:0.8571;}
	.st5{fill-rule:evenodd;clip-rule:evenodd;fill:#0C0804;}
</style>
<g>
	<rect class="st0" width="128" height="101"/>
	<rect x="0.5" y="0.5" class="st1" width="127" height="100"/>
</g>
<rect x="4" y="4" class="st0" width="120" height="44"/>
<rect x="3.5" y="3.5" class="st2" width="121" height="45"/>
<path class="st3" d="M66,34.2h-4c-3.6,0-5.2-1.5-5.2-5.2v-4c0-3.6,1.5-5.2,5.2-5.2h4c3.6,0,5.2,1.5,5.2,5.2v4
	C71.2,32.6,69.6,34.2,66,34.2z M62,20.8c-3.1,0-4.2,1.1-4.2,4.2v4c0,3.1,1.1,4.2,4.2,4.2h4c3.1,0,4.2-1.1,4.2-4.2v-4
	c0-3.1-1.1-4.2-4.2-4.2H62z"/>
<path class="st3" d="M62,26.2c-1,0-1.8-0.8-1.8-1.8c0-1,0.8-1.8,1.8-1.8c1,0,1.8,0.8,1.8,1.8C63.8,25.3,63,26.2,62,26.2z M62,23.5
	c-0.5,0-0.8,0.4-0.8,0.8c0,0.5,0.4,0.8,0.8,0.8s0.8-0.4,0.8-0.8C62.8,23.9,62.5,23.5,62,23.5z"/>
<path class="st3" d="M57.8,32.1c-0.2,0-0.3-0.1-0.4-0.2c-0.2-0.2-0.1-0.5,0.1-0.7l3.3-2.2c0.7-0.5,1.7-0.4,2.4,0.1l0.2,0.2
	c0.3,0.3,0.9,0.3,1.2,0l2.8-2.4c0.7-0.6,1.8-0.6,2.5,0l1.1,0.9c0.2,0.2,0.2,0.5,0.1,0.7c-0.2,0.2-0.5,0.2-0.7,0.1l-1.1-0.9
	c-0.3-0.3-0.9-0.3-1.2,0l-2.8,2.4c-0.7,0.6-1.8,0.6-2.5,0l-0.2-0.2c-0.3-0.3-0.8-0.3-1.2-0.1l-3.3,2.2C58,32.1,57.9,32.1,57.8,32.1z
	"/>
<rect x="4" y="53" class="st0" width="58" height="44"/>
<rect x="3.5" y="52.5" class="st2" width="59" height="45"/>
<path class="st4" d="M28.4,68.6h9.1c1,0,1.9,0.8,1.9,1.9v9.1c0,1-0.8,1.9-1.9,1.9h-9.1c-1,0-1.9-0.8-1.9-1.9v-9.1
	C26.6,69.4,27.4,68.6,28.4,68.6z"/>
<path class="st5" d="M33.6,78.3h0.9c0.3,0,0.5,0.2,0.5,0.5c0,0.3-0.2,0.5-0.5,0.5h-2.7c-0.3,0-0.5-0.2-0.5-0.5
	c0-0.3,0.2-0.5,0.5-0.5h0.9v-6.4h-2.7v0.9c0,0.3-0.2,0.5-0.5,0.5c-0.3,0-0.5-0.2-0.5-0.5v-1.4c0-0.3,0.2-0.5,0.5-0.5h7.3
	c0.3,0,0.5,0.2,0.5,0.5v1.4c0,0.3-0.2,0.5-0.5,0.5c-0.3,0-0.5-0.2-0.5-0.5v-0.9h-2.7V78.3z"/>
<rect x="66" y="53" class="st0" width="58" height="44"/>
<rect x="65.5" y="52.5" class="st2" width="59" height="45"/>
<path class="st3" d="M97,82.2h-4c-3.6,0-5.2-1.5-5.2-5.2v-4c0-3.6,1.5-5.2,5.2-5.2h4c3.6,0,5.2,1.5,5.2,5.2v4
	C102.2,80.6,100.6,82.2,97,82.2z M93,68.8c-3.1,0-4.2,1.1-4.2,4.2v4c0,3.1,1.1,4.2,4.2,4.2h4c3.1,0,4.2-1.1,4.2-4.2v-4
	c0-3.1-1.1-4.2-4.2-4.2H93z"/>
<path class="st3" d="M93,74.2c-1,0-1.8-0.8-1.8-1.8c0-1,0.8-1.8,1.8-1.8s1.8,0.8,1.8,1.8C94.8,73.3,94,74.2,93,74.2z M93,71.5
	c-0.5,0-0.8,0.4-0.8,0.8s0.4,0.8,0.8,0.8s0.8-0.4,0.8-0.8S93.5,71.5,93,71.5z"/>
<path class="st3" d="M88.8,80.1c-0.2,0-0.3-0.1-0.4-0.2c-0.2-0.2-0.1-0.5,0.1-0.7l3.3-2.2c0.7-0.5,1.7-0.4,2.4,0.1l0.2,0.2
	c0.3,0.3,0.9,0.3,1.2,0l2.8-2.4c0.7-0.6,1.8-0.6,2.5,0l1.1,0.9c0.2,0.2,0.2,0.5,0.1,0.7c-0.2,0.2-0.5,0.2-0.7,0.1l-1.1-0.9
	c-0.3-0.3-0.9-0.3-1.2,0l-2.8,2.4c-0.7,0.6-1.8,0.6-2.5,0l-0.2-0.2c-0.3-0.3-0.8-0.3-1.2-0.1l-3.3,2.2C89,80.1,88.9,80.1,88.8,80.1z
	"/>
</svg>
