<?xml version="1.0" encoding="utf-8"?>
<!-- Generator: Adobe Illustrator 24.0.1, SVG Export Plug-In . SVG Version: 6.00 Build 0)  -->
<svg version="1.1" id="Layer_1" xmlns="http://www.w3.org/2000/svg" xmlns:xlink="http://www.w3.org/1999/xlink" x="0px" y="0px"
	 viewBox="0 0 101 128" style="enable-background:new 0 0 101 128;" xml:space="preserve">
<style type="text/css">
	.st0{fill:#FFFFFF;}
	.st1{fill:none;stroke:#E9E9EA;}
	.st2{fill:none;stroke:#0C0804;stroke-opacity:0.2;stroke-dasharray:2,2;}
	.st3{fill:#0C0804;}
</style>
<g>
	<rect class="st0" width="101" height="128"/>
	<rect x="0.5" y="0.5" class="st1" width="100" height="127"/>
</g>
<rect x="53" y="67" class="st0" width="44" height="56"/>
<rect x="52.5" y="66.5" class="st2" width="45" height="57"/>
<path class="st3" d="M77,102.2h-4c-3.6,0-5.2-1.5-5.2-5.2v-4c0-3.6,1.5-5.2,5.2-5.2h4c3.6,0,5.2,1.5,5.2,5.2v4
	C82.2,100.6,80.6,102.2,77,102.2z M73,88.8c-3.1,0-4.2,1.1-4.2,4.2v4c0,3.1,1.1,4.2,4.2,4.2h4c3.1,0,4.2-1.1,4.2-4.2v-4
	c0-3.1-1.1-4.2-4.2-4.2H73z"/>
<path class="st3" d="M73,94.2c-1,0-1.8-0.8-1.8-1.8s0.8-1.8,1.8-1.8s1.8,0.8,1.8,1.8C74.8,93.3,74,94.2,73,94.2z M73,91.5
	c-0.5,0-0.8,0.4-0.8,0.8s0.4,0.8,0.8,0.8s0.8-0.4,0.8-0.8S73.5,91.5,73,91.5z"/>
<path class="st3" d="M68.8,100.1c-0.2,0-0.3-0.1-0.4-0.2c-0.2-0.2-0.1-0.5,0.1-0.7l3.3-2.2c0.7-0.5,1.7-0.4,2.4,0.1l0.2,0.2
	c0.3,0.3,0.9,0.3,1.2,0l2.8-2.4c0.7-0.6,1.8-0.6,2.5,0l1.1,0.9c0.2,0.2,0.2,0.5,0.1,0.7c-0.2,0.2-0.5,0.2-0.7,0.1l-1.1-0.9
	c-0.3-0.3-0.9-0.3-1.2,0l-2.8,2.4c-0.7,0.6-1.8,0.6-2.5,0l-0.2-0.2c-0.3-0.3-0.8-0.3-1.2-0.1l-3.3,2.2
	C69,100.1,68.9,100.1,68.8,100.1z"/>
<rect x="4" y="5" class="st0" width="93" height="56"/>
<rect x="3.5" y="4.5" class="st2" width="94" height="57"/>
<path class="st3" d="M53,40.2h-4c-3.6,0-5.2-1.5-5.2-5.2v-4c0-3.6,1.5-5.2,5.2-5.2h4c3.6,0,5.2,1.5,5.2,5.2v4
	C58.2,38.6,56.6,40.2,53,40.2z M49,26.8c-3.1,0-4.2,1.1-4.2,4.2v4c0,3.1,1.1,4.2,4.2,4.2h4c3.1,0,4.2-1.1,4.2-4.2v-4
	c0-3.1-1.1-4.2-4.2-4.2H49z"/>
<path class="st3" d="M49,32.2c-1,0-1.8-0.8-1.8-1.8s0.8-1.8,1.8-1.8s1.8,0.8,1.8,1.8C50.8,31.3,50,32.2,49,32.2z M49,29.5
	c-0.5,0-0.8,0.4-0.8,0.8c0,0.5,0.4,0.8,0.8,0.8s0.8-0.4,0.8-0.8S49.5,29.5,49,29.5z"/>
<path class="st3" d="M44.8,38.1c-0.2,0-0.3-0.1-0.4-0.2c-0.2-0.2-0.1-0.5,0.1-0.7l3.3-2.2c0.7-0.5,1.7-0.4,2.4,0.1l0.2,0.2
	c0.3,0.3,0.9,0.3,1.2,0l2.8-2.4c0.7-0.6,1.8-0.6,2.5,0l1.1,0.9c0.2,0.2,0.2,0.5,0.1,0.7c-0.2,0.2-0.5,0.2-0.7,0.1l-1.1-0.9
	c-0.3-0.3-0.9-0.3-1.2,0l-2.8,2.4c-0.7,0.6-1.8,0.6-2.5,0l-0.2-0.2c-0.3-0.3-0.8-0.3-1.2-0.1L45.1,38C45,38.1,44.9,38.1,44.8,38.1z"
	/>
<rect x="4" y="67" class="st0" width="44" height="56"/>
<rect x="3.5" y="66.5" class="st2" width="45" height="57"/>
<path class="st3" d="M28,102.2h-4c-3.6,0-5.2-1.5-5.2-5.2v-4c0-3.6,1.5-5.2,5.2-5.2h4c3.6,0,5.2,1.5,5.2,5.2v4
	C33.2,100.6,31.6,102.2,28,102.2z M24,88.8c-3.1,0-4.2,1.1-4.2,4.2v4c0,3.1,1.1,4.2,4.2,4.2h4c3.1,0,4.2-1.1,4.2-4.2v-4
	c0-3.1-1.1-4.2-4.2-4.2H24z"/>
<path class="st3" d="M24,94.2c-1,0-1.8-0.8-1.8-1.8s0.8-1.8,1.8-1.8s1.8,0.8,1.8,1.8C25.8,93.3,25,94.2,24,94.2z M24,91.5
	c-0.5,0-0.8,0.4-0.8,0.8s0.4,0.8,0.8,0.8s0.8-0.4,0.8-0.8S24.5,91.5,24,91.5z"/>
<path class="st3" d="M19.8,100.1c-0.2,0-0.3-0.1-0.4-0.2c-0.2-0.2-0.1-0.5,0.1-0.7l3.3-2.2c0.7-0.5,1.7-0.4,2.4,0.1l0.2,0.2
	c0.3,0.3,0.9,0.3,1.2,0l2.8-2.4c0.7-0.6,1.8-0.6,2.5,0l1.1,0.9c0.2,0.2,0.2,0.5,0.1,0.7c-0.2,0.2-0.5,0.2-0.7,0.1l-1.1-0.9
	c-0.3-0.3-0.9-0.3-1.2,0l-2.8,2.4c-0.7,0.6-1.8,0.6-2.5,0l-0.2-0.2c-0.3-0.3-0.8-0.3-1.2-0.1l-3.3,2.2
	C20,100.1,19.9,100.1,19.8,100.1z"/>
</svg>
