<svg width="20" height="20" viewBox="0 0 20 20" fill="none" xmlns="http://www.w3.org/2000/svg">
<path d="M10 11.8082C8.22502 11.8082 6.77502 10.3666 6.77502 8.58324C6.77502 6.79991 8.22502 5.36658 10 5.36658C11.775 5.36658 13.225 6.80824 13.225 8.59158C13.225 10.3749 11.775 11.8082 10 11.8082ZM10 6.61658C8.91669 6.61658 8.02502 7.49991 8.02502 8.59158C8.02502 9.68324 8.90836 10.5666 10 10.5666C11.0917 10.5666 11.975 9.68324 11.975 8.59158C11.975 7.49991 11.0834 6.61658 10 6.61658Z" fill="#FF9160"/>
<path d="M10 18.9666C8.76669 18.9666 7.52502 18.5 6.55836 17.575C4.10002 15.2083 1.38336 11.4333 2.40836 6.94163C3.33336 2.86663 6.89169 1.04163 10 1.04163C10 1.04163 10 1.04163 10.0084 1.04163C13.1167 1.04163 16.675 2.86663 17.6 6.94996C18.6167 11.4416 15.9 15.2083 13.4417 17.575C12.475 18.5 11.2334 18.9666 10 18.9666ZM10 2.29163C7.57503 2.29163 4.45836 3.58329 3.63336 7.21663C2.73336 11.1416 5.20002 14.525 7.43336 16.6666C8.87502 18.0583 11.1334 18.0583 12.575 16.6666C14.8 14.525 17.2667 11.1416 16.3834 7.21663C15.55 3.58329 12.425 2.29163 10 2.29163Z" fill="#FF9160"/>
</svg>
