<svg width="192" height="64" viewBox="0 0 192 64" fill="none" xmlns="http://www.w3.org/2000/svg">
<g clip-path="url(#clip0_2666_882)">
<mask id="mask0_2666_882" style="mask-type:luminance" maskUnits="userSpaceOnUse" x="0" y="0" width="192" height="64">
<path d="M192 0H0V64H192V0Z" fill="white"/>
</mask>
<g mask="url(#mask0_2666_882)">
<path d="M39.803 34.2062C41.4619 34.3083 43.1202 34.4143 44.7796 34.5114C46.6161 34.617 48.4565 34.3927 50.2146 33.849C51.2877 33.5212 52.3794 33.3547 53.4992 33.4574C53.876 33.4918 54.2669 33.5488 54.6162 33.6859C56.1774 34.2987 57.7677 34.3602 59.3986 34.0566C60.1516 33.9161 60.9148 33.8112 61.6769 33.7429C62.8045 33.6419 63.3942 34.1582 63.3756 35.2838C63.3543 36.6109 63.2431 37.9357 63.1909 39.2627C63.1656 39.9054 63.1459 40.5531 63.1909 41.1935C63.32 42.986 63.4773 44.7763 63.6401 46.566C63.7047 47.2894 63.7575 48.0195 63.899 48.7298C64.2921 50.7046 63.9063 52.6388 63.7053 54.5978C63.5368 56.2137 63.6306 57.8573 63.6171 59.489C63.6104 60.2614 63.6384 61.035 63.6267 61.8074C63.6092 62.9607 63.165 63.4589 62.0205 63.5097C61.1669 63.5428 60.312 63.5256 59.4603 63.4583C57.8469 63.3393 56.2386 63.082 54.6252 63.056C53.1346 63.0395 51.645 63.1406 50.1702 63.3585C47.7554 63.7038 45.3351 63.9029 42.9029 63.7647C41.8488 63.7049 40.8104 63.3923 39.7581 63.2569C38.7882 63.1333 37.8077 63.0933 36.8311 63.0205C36.5756 63.0013 36.3167 63.0205 36.0635 62.9855C34.7971 62.8163 34.2973 62.2571 34.217 60.9481C34.0951 58.9682 34.3035 57.0076 34.586 55.0559C34.805 53.5415 34.7584 52.0746 34.1929 50.6318C34.0169 50.1968 33.9308 49.7303 33.9396 49.2608C34.0058 47.55 34.048 45.8309 34.2619 44.1359C34.5304 42.0071 34.8173 39.8992 34.1934 37.789L34.1693 37.8132C34.96 38.5811 35.7198 39.3852 36.5503 40.1068C37.4169 40.8589 38.3743 41.5055 39.2493 42.2509C39.8838 42.7897 40.4482 43.4109 41.0733 44.0248C41.7062 43.025 41.162 41.7735 41.5175 40.4899C43.004 40.4002 44.555 40.4899 46.3987 40.4431C43.9968 38.3199 41.5062 36.669 39.8322 34.1847L39.803 34.2062Z" fill="#D0C801"/>
<path d="M25.1766 34.1285C24.2781 36.5547 22.7349 38.4454 20.2594 39.2838C17.5981 40.1866 15.9999 42.1574 14.3275 44.4301C15.7798 44.6389 16.9501 43.9003 18.34 43.9889C18.6309 45.8542 18.4192 47.7353 18.614 49.7756C19.0891 49.0454 19.4895 48.4333 19.8871 47.8188C20.4133 47.0058 21.1085 46.4692 22.0211 46.0737C22.8368 45.7104 23.5599 45.166 24.136 44.4814C25.1182 43.3028 25.9274 41.9785 26.8141 40.7192C27.7501 39.3891 28.6917 38.0628 29.6389 36.7403C29.7512 36.5823 29.9247 36.4678 30.2566 36.1597C30.0572 38.1909 29.909 39.9778 29.7006 41.7562C29.3991 44.333 29.3272 46.8907 30.0673 49.415C30.2358 49.9911 30.4099 50.5722 30.4964 51.1641C30.6649 52.3174 30.7109 53.4774 30.2852 54.5974C29.7354 56.0446 29.7135 57.5274 29.9595 59.035C30.0834 59.796 30.1877 60.5607 30.2723 61.3292C30.4251 62.7397 29.8792 63.3604 28.4904 63.3265C27.3375 63.2972 26.188 63.1369 25.0345 63.1573C22.9005 63.1979 20.7665 63.2842 18.6359 63.4394C16.8058 63.5714 14.9857 63.8693 13.1583 64.0036C12.3592 64.06 11.5449 63.8586 10.7357 63.8264C8.17605 63.7243 5.61639 63.6007 3.05617 63.5753C0.758774 63.555 0.276381 63.1352 0.351632 60.7796C0.389819 59.5795 0.4471 58.3732 0.611641 57.1855C0.992389 54.4355 0.784606 51.7232 0.430252 48.9822C0.118017 46.5685 -0.267785 44.1136 0.270765 41.6789C0.653198 39.9496 0.814369 38.2157 0.860418 36.4497C0.911522 34.5065 1.12717 33.7206 3.63516 33.7076C5.20757 33.6991 6.78896 33.8588 8.35575 34.0382C10.1595 34.2447 11.874 34.1511 13.6587 33.6337C14.9593 33.2579 16.4492 33.4322 17.8436 33.5253C19.5019 33.6354 21.145 33.9496 22.8006 34.1178C23.548 34.1917 24.3073 34.1285 25.1766 34.1285Z" fill="#D0C801"/>
<path d="M41.8859 29.719C43.6329 28.4602 44.9706 27.0107 45.2081 24.8441C45.3525 23.5278 45.1812 22.2724 44.3764 21.1693C43.2291 19.5957 41.6781 18.7223 39.7654 18.4447C37.8307 18.1625 36.3089 19.1008 34.6494 20.3292C35.0156 17.6418 34.363 15.3273 33.7975 12.9943C33.4999 11.7654 33.5263 10.5213 33.9716 9.32003C34.4944 7.90947 34.5113 6.47183 34.2928 5.00936C34.1805 4.24653 34.0845 3.48144 33.9794 2.71748C33.7773 1.24711 34.322 0.62026 35.7956 0.643957C37.2905 0.668219 38.786 0.69135 40.2803 0.735924C43.4942 0.831842 46.6761 0.439708 49.8507 0.0458794C51.194 -0.120567 52.4844 0.102302 53.8008 0.165495C56.1863 0.284546 58.5742 0.340969 60.9625 0.41996C61.1759 0.427295 61.3899 0.412061 61.6033 0.410932C63.3902 0.401905 63.9057 0.865696 63.881 2.69547C63.8619 4.19405 63.7985 5.70392 63.5907 7.18557C63.2397 9.68226 63.4677 12.1389 63.744 14.6181C63.9759 16.7012 64.0495 18.8035 64.1568 20.8996C64.1804 21.3617 64.1006 21.8447 63.9816 22.2966C63.5486 23.9695 63.4312 25.6684 63.3779 27.3904C63.306 29.7167 63.0634 30.1484 60.465 30.264C59.0689 30.3261 57.6532 30.1461 56.2588 29.9746C54.2933 29.7331 52.3559 29.5965 50.4622 30.4062C50.0495 30.5822 49.5362 30.6172 49.0808 30.58C46.8721 30.3977 44.6668 30.1721 42.4615 29.9503C42.3037 29.9351 42.1543 29.8301 41.8859 29.719Z" fill="#D0C801"/>
<path d="M29.6918 21.0993C29.0252 20.5915 28.4119 20.0566 27.7341 19.6233C25.5518 18.2291 22.7361 18.2692 20.7481 19.7796C18.8388 21.2285 18.1087 22.9788 19.0134 25.4467C19.5346 26.8629 20.4859 28.12 21.2597 29.482C20.943 29.482 20.5235 29.5429 20.1276 29.4713C18.0015 29.0876 15.9719 29.5892 13.9632 30.1557C12.2257 30.646 10.5589 30.6279 8.81634 30.0586C7.83583 29.7387 6.71212 29.781 5.6558 29.8025C4.72584 29.8211 3.79699 30.0175 2.87376 30.1698C1.49285 30.3955 0.815592 29.8713 0.848163 28.4861C0.878488 27.202 1.05482 25.9184 1.02955 24.637C0.990804 22.6255 0.879611 20.613 0.718439 18.6071C0.570745 16.7745 0.261879 14.9544 0.132156 13.1212C0.0726285 12.2799 0.300628 11.4218 0.348362 10.5681C0.453564 8.68734 0.539297 6.80509 0.605562 4.92133C0.639257 3.93507 0.581415 2.94655 0.608932 1.95859C0.635326 1.01578 1.08908 0.501204 2.01287 0.487662C3.20397 0.470172 4.39844 0.539007 5.58841 0.61687C8.47378 0.804757 11.3333 1.16586 14.244 0.580759C16.7087 0.0853705 19.2526 0.0616746 21.7691 0.231506C22.5255 0.282286 23.2612 0.607278 24.0187 0.691911C25.2884 0.833531 26.5671 0.906318 27.8442 0.964997C29.3812 1.03609 29.9405 1.60201 30.0169 3.18127C30.1079 5.07593 29.8793 6.94351 29.6238 8.81279C29.4115 10.3582 29.4278 11.8901 30.0506 13.3644C30.1716 13.637 30.2474 13.9276 30.2752 14.2248C30.4218 16.3322 30.1899 18.4198 29.8984 20.5018C29.8759 20.7044 29.7676 20.8951 29.6918 21.0993Z" fill="#D0C801"/>
<path d="M92.7717 53.9258C92.7717 50.7707 95.1303 48.4004 98.2398 48.4004C101.349 48.4004 103.692 50.7701 103.692 53.9258C103.692 57.0815 101.349 59.4349 98.2398 59.4349C95.1309 59.4349 92.7717 57.0804 92.7717 53.9258ZM102.098 53.9258C102.098 51.6498 100.458 49.9543 98.2398 49.9543C96.0058 49.9543 94.3806 51.6469 94.3806 53.9258C94.3806 56.1861 96.0058 57.881 98.2398 57.881C100.458 57.881 102.098 56.1861 102.098 53.9258Z" fill="#D0C801"/>
<path d="M112.207 50.8047C113.456 50.8047 114.519 51.2442 115.284 51.9331L114.472 53.1417C113.972 52.6706 113.253 52.3095 112.269 52.3095C110.613 52.3095 109.488 53.487 109.488 55.1193C109.488 56.7516 110.611 57.9449 112.269 57.9449C113.253 57.9449 113.972 57.5838 114.472 57.1127L115.284 58.3213C114.519 59.0119 113.456 59.4497 112.207 59.4497C109.629 59.4497 107.832 57.5821 107.832 55.1176C107.832 52.6531 109.628 50.8047 112.207 50.8047Z" fill="#D0C801"/>
<path d="M123.455 50.8047C124.704 50.8047 125.767 51.2442 126.532 51.9331L125.719 53.1417C125.22 52.6706 124.501 52.3095 123.517 52.3095C121.861 52.3095 120.736 53.487 120.736 55.1193C120.736 56.7516 121.859 57.9449 123.517 57.9449C124.501 57.9449 125.22 57.5838 125.719 57.1127L126.532 58.3213C125.767 59.0119 124.704 59.4497 123.455 59.4497C120.876 59.4497 119.08 57.5821 119.08 55.1176C119.08 52.6531 120.876 50.8047 123.455 50.8047Z" fill="#D0C801"/>
<path d="M137.343 54.0044V59.2314H135.718V58.3207C135.376 58.6638 134.968 58.9349 134.52 59.1182C134.073 59.3014 133.593 59.3933 133.109 59.3882C131.359 59.3882 130.328 58.429 130.328 56.9056C130.328 54.9596 131.906 54.0179 134.172 54.0179C134.691 54.0162 135.209 54.0688 135.718 54.1748V54.0806C135.718 52.8562 135.125 52.2751 133.921 52.2751C133.036 52.2869 132.163 52.4847 131.359 52.8556L131.062 51.4451C131.843 51.1156 133.015 50.8809 134.046 50.8809C136.374 50.8809 137.343 52.2463 137.343 54.0044ZM135.718 57.2532V55.3382C135.319 55.2443 134.91 55.197 134.5 55.1972C133.062 55.1972 131.953 55.6835 131.953 56.751C131.953 57.6459 132.609 58.0854 133.609 58.0854C134.578 58.0832 135.296 57.6318 135.718 57.2532Z" fill="#D0C801"/>
<path d="M145.248 52.2618C144.201 52.2618 143.607 52.6381 143.607 53.3293C143.607 53.8935 143.935 54.0199 144.857 54.2394L146.185 54.5689C147.841 54.9638 148.528 55.6973 148.528 56.8608C148.528 58.3842 147.201 59.3879 145.138 59.3879C143.748 59.3879 142.654 58.993 142.045 58.6815L142.358 57.271C143.032 57.6321 144.013 58.0248 145.109 58.0248C146.281 58.0248 146.953 57.6479 146.953 56.973C146.953 56.4709 146.484 56.2034 145.578 55.984L144.297 55.6545C142.735 55.2933 142.047 54.6812 142.047 53.441C142.047 51.9176 143.219 50.8828 145.375 50.8828C146.422 50.8828 147.64 51.1807 148.25 51.4792L147.812 52.8898C147.123 52.5444 146.138 52.2618 145.248 52.2618Z" fill="#D0C801"/>
<path d="M153.949 47.8042C154.543 47.8042 154.934 48.0395 154.934 48.6833C154.934 49.327 154.541 49.5781 153.949 49.5781C153.371 49.5781 152.965 49.327 152.965 48.6833C152.965 48.0395 153.37 47.8042 153.949 47.8042ZM154.762 51.0203V59.2297H153.137V51.0203H154.762Z" fill="#D0C801"/>
<path d="M159.435 55.1344C159.435 52.6382 161.263 50.8022 163.794 50.8022C166.325 50.8022 168.137 52.6382 168.137 55.1344C168.137 57.6305 166.325 59.4665 163.794 59.4665C161.263 59.4665 159.435 57.6316 159.435 55.1344ZM166.575 55.1344C166.575 53.5173 165.434 52.3087 163.794 52.3087C162.154 52.3087 161.013 53.5173 161.013 55.1344C161.013 56.7514 162.154 57.9594 163.794 57.9594C165.434 57.9594 166.572 56.7509 166.572 55.1344H166.575Z" fill="#D0C801"/>
<path d="M174.415 52.2929C175.024 51.4296 176.023 50.8823 177.335 50.8823C179.553 50.8823 180.536 52.4672 180.536 54.508V59.2328H178.911V54.7591C178.911 53.3621 178.27 52.3894 176.818 52.3894C175.521 52.3894 174.708 53.2684 174.412 54.1633V59.2334H172.787V51.0239H174.412L174.415 52.2929Z" fill="#D0C801"/>
<path d="M188.428 52.2618C187.381 52.2618 186.788 52.6381 186.788 53.3293C186.788 53.8935 187.116 54.0199 188.037 54.2394L189.365 54.5689C191.021 54.9638 191.709 55.6973 191.709 56.8608C191.709 58.3842 190.381 59.3879 188.318 59.3879C186.928 59.3879 185.835 58.993 185.225 58.6815L185.538 57.271C186.211 57.6321 187.194 58.0248 188.289 58.0248C189.461 58.0248 190.133 57.6479 190.133 56.973C190.133 56.4709 189.664 56.2034 188.758 55.984L187.477 55.6545C185.915 55.2933 185.228 54.6812 185.228 53.441C185.228 51.9176 186.399 50.8828 188.555 50.8828C189.602 50.8828 190.82 51.1807 191.43 51.4792L190.992 52.8898C190.303 52.5444 189.318 52.2618 188.428 52.2618Z" fill="#D0C801"/>
</g>
<path d="M176.594 40.7451C176.319 40.4699 176.044 40.6451 175.744 40.52V39.7945C175.469 40.1197 175.244 40.3699 175.043 40.62C175.043 40.0947 175.594 39.8445 175.619 39.2692C175.419 39.3692 175.294 39.4443 175.119 39.5443C175.144 39.4443 175.119 39.3692 175.169 39.3192C176.169 37.9683 177.17 36.6175 178.195 35.2916L182.523 29.5879C183.199 28.7124 183.874 27.8618 184.525 27.0113L184.7 26.7611L184.124 26.8362C183.674 26.8612 183.299 26.7111 182.924 26.4609C181.998 25.8856 181.698 25.035 181.748 24.0093C181.798 23.2839 181.823 22.5584 181.873 21.858C181.898 21.5578 182.498 20.432 182.673 20.2569C182.848 20.1068 182.999 19.9317 183.274 20.0568C183.474 20.1569 183.549 20.2819 183.549 20.6572C183.799 20.8323 184.049 21.0074 184.274 21.1325C184.399 21.6578 184.274 22.0081 183.949 22.3333C183.849 22.4333 183.774 22.6084 183.749 22.7335C183.699 23.3339 183.674 23.9093 183.649 24.5597C184.274 24.5097 184.675 24.2345 185.125 23.9843C187.101 22.8586 188.652 21.2326 190.228 19.6565C190.503 19.3814 190.804 19.1562 191.104 18.881C191.454 19.2813 191.829 19.5815 191.979 19.9818C192.104 20.307 192.205 20.7322 191.879 21.1075C191.379 21.6828 190.929 22.2832 190.478 22.8836L180.097 36.3173L177.345 39.8946C177.12 40.1948 176.845 40.4699 176.594 40.7451ZM182.598 25.4102C182.748 25.1101 182.698 24.8849 182.573 24.6598C182.348 24.1594 182.248 23.6341 182.273 23.0837C182.298 22.8086 182.273 22.5084 182.273 22.2082C182.123 23.2839 182.148 24.3596 182.598 25.4102Z" fill="#D0C801"/>
<path d="M173.483 24.5096C172.557 25.1601 171.932 26.0857 171.206 26.9362C171.006 27.1864 170.881 27.5116 170.631 27.9369C171.231 27.6116 171.706 27.3365 172.157 26.9862C173.783 25.7605 175.409 24.5347 177.06 23.3089L178.286 22.3332C178.436 22.2332 178.611 22.1832 178.786 22.0831L179.161 22.9336C179.486 22.8586 179.737 22.5084 180.112 22.7585C180.562 23.3839 180.337 24.0093 180.112 24.6347C179.962 25.035 179.762 25.4102 179.561 25.7855L177.46 30.0132C177.385 30.1633 177.285 30.3134 177.185 30.4885C176.96 30.2133 177.135 29.9632 177.21 29.738C177.335 29.4378 177.46 29.1376 177.61 28.8374C177.935 28.3871 178.211 27.9118 178.386 27.3865C178.035 27.8118 177.585 28.212 177.61 28.8374C177.285 28.9875 177.185 29.3127 177.035 29.6129C176.86 29.9882 176.685 30.3634 176.459 30.8137L176.059 30.3634C175.984 30.4134 175.884 30.4635 175.734 30.5385C175.634 30.4385 175.534 30.3384 175.409 30.2383C175.534 29.788 175.809 29.4128 175.684 28.9125C175.659 28.7874 175.784 28.6373 175.859 28.4872L177.035 26.1857C177.085 26.0606 177.135 25.9105 177.26 25.6354L175.109 27.1614C175.034 27.1614 174.958 27.1614 174.883 27.1864C174.633 27.1113 174.583 27.1363 174.383 27.4615C174.483 27.4365 174.633 27.4115 174.758 27.4115C174.958 27.4866 175.084 27.3865 175.184 27.2364C175.409 27.1363 175.634 27.0613 175.984 26.9362C174.883 27.9118 173.758 28.6373 172.632 29.3378C172.032 29.713 171.406 30.0132 170.781 30.3384C170.005 30.7387 169.23 30.6136 168.479 30.3134C168.104 30.1633 167.954 29.8631 167.979 29.4378C168.004 28.5623 168.279 27.7617 168.729 27.0613C169.28 26.2608 169.83 25.4853 170.456 24.7598C171.781 23.2338 173.257 21.8579 174.933 20.7072C175.534 20.3069 176.209 20.0318 176.91 19.8567C177.21 19.7816 177.46 19.5815 177.76 19.4314C178.06 19.2813 178.361 19.1062 178.686 19.0311C179.211 18.881 179.561 19.2313 179.887 19.6065C179.787 19.5815 179.687 19.5314 179.536 19.4814C179.511 19.6065 179.461 19.7316 179.436 19.9067C179.661 19.9317 179.887 19.9817 180.087 20.0067C180.587 20.5071 180.737 21.0574 180.437 21.7329C179.887 21.983 179.837 21.958 179.511 21.4827C179.411 21.5327 179.286 21.5828 179.161 21.6578C179.086 21.5828 178.986 21.5327 178.911 21.4577C178.861 21.3826 178.836 21.3076 178.761 21.1575C178.436 21.3076 178.111 21.4077 177.835 21.5828C176.885 22.1832 175.909 22.8086 174.983 23.434C174.458 23.7592 173.983 24.1594 173.483 24.5096ZM174.308 27.5116L174.108 27.5866C174.133 27.6116 174.158 27.6367 174.158 27.6867L174.308 27.5116ZM171.331 28.5122L170.756 28.7874C170.906 28.8374 171.006 28.8875 171.106 28.9125C171.156 28.8124 171.206 28.7124 171.331 28.5122ZM169.83 29.2877C170.23 29.4378 170.356 29.3878 170.28 29.1877C170.13 29.2377 169.98 29.2627 169.83 29.2877Z" fill="#D0C801"/>
<path d="M172.704 6.77324C173.604 6.74823 174.155 7.39865 173.88 8.24919C173.429 9.72514 172.704 11.076 171.953 12.4019C170.853 14.3281 169.702 16.2293 168.376 18.0305C168.301 18.1306 168.226 18.2556 168.176 18.3807C167.15 20.7823 166.225 23.2338 165.449 25.7355C165.449 25.7605 165.449 25.8105 165.424 25.9106C165.699 26.2108 165.974 26.536 166.25 26.8612C165.974 27.8868 165.499 28.7624 164.874 29.5379C164.499 30.0132 164.123 30.0632 163.573 29.7881C163.523 29.763 163.448 29.688 163.398 29.713C163.173 29.763 162.973 29.688 162.872 29.5129C162.772 29.3128 162.722 29.0876 162.747 28.8625C162.822 28.2621 162.872 27.6367 163.048 27.0613C163.273 26.2858 163.573 25.5103 163.823 24.7598C163.923 24.4846 163.998 24.2345 163.998 23.9093C163.848 24.0594 163.698 24.2095 163.573 24.3596C162.122 26.0106 160.646 27.5866 158.92 28.9375C158.295 29.4378 157.619 29.8631 156.869 30.1383C156.118 30.4385 155.443 30.1633 154.792 29.8631C154.392 29.663 154.292 29.2877 154.317 28.8124C154.417 27.4866 154.992 26.3358 155.718 25.2601C157.369 22.8336 159.495 20.9824 162.222 19.8066C163.073 19.4564 163.973 19.2062 164.949 19.2563C165.624 18.2807 166.425 17.4051 166.875 16.3044C167.425 15.0035 168.051 13.7277 168.676 12.4769C169.001 11.8265 169.377 11.2011 169.777 10.6007C169.927 10.3505 170.227 10.2505 170.377 9.92527C170.778 9.14977 171.253 8.42431 171.553 7.59878C171.753 7.02341 172.003 6.77324 172.529 6.37299L172.704 6.77324ZM156.593 27.7618C158.995 26.2358 160.796 24.2345 162.522 22.1832C160.696 22.8336 157.644 25.4853 156.593 27.7618ZM161.747 24.1344C162.822 22.9587 162.872 22.9086 162.922 22.4083C161.897 23.409 161.021 24.4346 160.221 25.5353L160.346 25.6604C160.821 25.1601 161.271 24.6347 161.747 24.1344ZM157.669 24.3596L157.544 24.7848C157.644 24.7098 157.894 24.6848 157.669 24.3596ZM157.494 24.8349C157.369 24.8599 157.219 24.8349 157.344 25.085C157.394 24.985 157.444 24.9349 157.494 24.8349ZM156.668 25.9106C156.643 25.8856 156.593 25.8855 156.568 25.8605C156.518 25.9606 156.493 26.0356 156.468 26.1357L156.668 25.9106ZM156.193 26.8111L156.393 26.2358C156.193 26.3358 156.143 26.536 156.068 26.7361L156.193 26.8111ZM155.868 27.3615C155.918 27.3615 155.943 27.3365 155.968 27.3365L155.893 27.0863C155.868 27.1113 155.818 27.1113 155.793 27.1364L155.868 27.3615Z" fill="#D0C801"/>
<path d="M140.487 40.7451C140.212 40.4699 139.937 40.6451 139.637 40.52V39.7945C139.362 40.1197 139.136 40.3699 138.936 40.62C138.936 40.0947 139.487 39.8445 139.512 39.2692C139.312 39.3692 139.186 39.4443 139.011 39.5443C139.036 39.4443 139.011 39.3692 139.061 39.3192C140.062 37.9683 141.063 36.6175 142.088 35.2916L146.416 29.5879C147.092 28.7124 147.767 27.8618 148.417 27.0113L148.592 26.7611L148.017 26.8362C147.567 26.8612 147.192 26.7111 146.816 26.4609C145.891 25.8856 145.591 25.035 145.641 24.0093C145.691 23.2839 145.716 22.5584 145.766 21.858C145.791 21.5578 146.391 20.432 146.566 20.2569C146.741 20.1068 146.891 19.9317 147.167 20.0568C147.367 20.1569 147.442 20.2819 147.442 20.6572C147.692 20.8323 147.942 21.0074 148.167 21.1325C148.292 21.6578 148.167 22.0081 147.842 22.3333C147.742 22.4333 147.667 22.6084 147.642 22.7335C147.592 23.3339 147.567 23.9093 147.542 24.5597C148.167 24.5097 148.567 24.2345 149.018 23.9843C150.994 22.8586 152.545 21.2326 154.121 19.6565C154.396 19.3814 154.696 19.1562 154.997 18.881C155.347 19.2813 155.722 19.5815 155.872 19.9818C155.997 20.307 156.097 20.7322 155.772 21.1075C155.272 21.6828 154.822 22.2832 154.371 22.8836L143.99 36.3173L141.238 39.8946C141.013 40.1948 140.737 40.4699 140.487 40.7451ZM146.491 25.4102C146.641 25.1101 146.591 24.8849 146.466 24.6598C146.241 24.1594 146.141 23.6341 146.166 23.0837C146.191 22.8086 146.166 22.5084 146.166 22.2082C146.016 23.2839 146.041 24.3596 146.491 25.4102Z" fill="#D0C801"/>
<path d="M144.66 21.3576C144.86 21.4327 144.935 21.5577 144.935 21.7829C144.935 22.3583 144.485 22.9837 143.834 23.1838C143.734 23.0337 143.609 22.8836 143.509 22.7085C143.459 22.7085 143.434 22.6835 143.384 22.6835C143.159 22.6584 142.909 22.9086 142.684 22.6584C142.659 22.6334 142.484 22.7085 142.383 22.7585C142.033 22.9086 141.683 23.0837 141.333 23.2838C140.532 23.7091 139.857 24.2845 139.206 24.8849V24.8599C138.981 25.1851 138.781 25.5353 138.506 25.8355C138.156 26.2858 137.73 26.661 137.355 27.0863C137.105 27.3865 136.88 27.7117 136.73 28.0369C136.43 28.7123 136.029 29.3127 135.654 29.9631L134.754 29.4628C134.653 29.0876 134.528 28.6623 134.428 28.212C135.479 25.3602 137.005 22.6835 137.881 19.7065L138.656 20.0818C138.631 20.2319 138.631 20.407 138.606 20.6071C138.831 20.6572 139.056 20.6822 139.357 20.7322C139.231 21.2826 139.106 21.7829 138.956 22.3583C139.131 22.2332 139.281 22.1331 139.407 22.033C140.307 21.2575 141.358 20.7072 142.534 20.482C142.834 20.407 143.134 20.382 143.409 20.407C143.559 20.407 143.709 20.5071 143.809 20.6321C143.984 20.8073 144.11 21.0574 144.285 21.2575C144.36 21.3326 144.535 21.3076 144.66 21.3576ZM139.832 22.1081C141.183 21.6578 142.408 21.2826 143.734 20.8573C143.359 20.5571 143.084 20.6822 142.809 20.7322C141.758 20.9824 140.782 21.3576 139.832 22.1081ZM138.781 25.11C138.881 25.01 139.056 24.9599 139.206 24.8599C139.181 24.7848 139.156 24.7348 139.131 24.6097C138.456 25.01 137.981 25.5853 137.48 26.1357C137.38 26.2357 137.38 26.4359 137.305 26.7611C137.881 26.1357 138.306 25.6103 138.781 25.11Z" fill="#D0C801"/>
<path d="M128.742 29.4378C128.117 29.4378 127.567 29.1626 126.991 28.9625C127.041 28.8875 127.091 28.8374 127.141 28.7374C126.641 28.3872 126.366 27.8118 125.741 27.6117C125.59 27.5616 125.49 27.3615 125.365 27.2364C125.19 27.0363 125.015 26.8111 124.865 26.611C124.79 26.5109 124.765 26.3859 124.74 26.2858C124.715 26.0607 124.715 25.8605 124.69 25.6354C124.215 25.6104 123.664 26.0106 123.239 25.4102C123.264 25.2351 123.264 25.01 123.289 24.7598C123.464 24.6347 123.639 24.5097 123.814 24.3596L123.789 24.3846C124.315 24.4096 124.865 24.4346 125.34 24.1344C125.49 24.0594 125.665 23.9843 125.766 23.8592C126.241 23.3339 126.791 22.8836 127.392 22.5084C127.917 22.1331 128.417 21.7329 128.792 21.2075C128.943 20.9824 129.118 20.8073 129.318 20.6572C129.743 20.332 130.168 20.0318 130.594 19.7566C131.119 19.4064 131.669 19.1062 132.22 18.806C132.57 18.6059 132.92 18.6059 133.27 18.806C133.495 18.9311 133.721 19.0311 133.921 19.1312C133.821 19.2062 133.571 18.9811 133.596 19.4064L133.921 19.1312C134.646 19.5064 134.796 19.9817 134.471 20.7072C134.271 21.1575 133.971 21.5077 133.621 21.8329C132.645 22.7335 131.519 23.434 130.368 24.1094C129.243 24.7598 128.017 25.1601 126.866 25.6604C126.741 25.7104 126.591 25.7605 126.491 25.8105C126.516 27.1363 127.266 27.7367 129.168 27.8868C129.093 27.8118 129.068 27.7367 128.993 27.6617C129.518 27.5616 130.018 27.5116 130.494 27.3615C130.969 27.2364 131.444 27.0113 131.97 26.8361C132.17 26.9612 132.42 27.1363 132.67 27.3365C133.145 27.7117 133.145 28.3371 132.645 28.6123C131.719 29.1626 130.719 29.4378 129.643 29.4378H128.742ZM128.142 23.459C129.093 23.1088 130.193 22.4083 130.644 21.933L130.569 21.6328C129.643 22.1581 128.843 22.7585 128.142 23.459ZM125.916 26.3859C125.941 26.1857 125.966 26.0607 125.991 25.9356C125.766 26.0356 125.841 26.1857 125.916 26.3859Z" fill="#D0C801"/>
<path d="M116.357 29.5129C115.407 30.0883 114.456 30.0132 113.58 29.3378C113.405 29.1877 113.255 28.9876 113.205 28.7874C112.955 27.5867 112.955 26.4109 113.305 25.2352C113.781 23.6591 114.381 22.1332 115.131 20.6822C115.232 20.4321 115.482 20.2319 115.682 19.9818C115.857 20.357 115.957 20.6322 116.107 20.9824C116.332 20.9074 116.507 20.8323 116.708 20.7573C117.058 21.1075 116.883 21.5328 116.858 21.958C116.808 22.3833 116.783 22.8086 116.332 23.0588C116.257 23.1088 116.207 23.2339 116.157 23.3339C115.582 24.5347 115.182 25.7855 114.956 27.0863V27.2865C114.956 27.3365 114.981 27.3615 115.056 27.4866C115.407 27.2114 115.782 27.0113 116.082 26.7111C116.908 25.9106 117.708 25.0851 118.509 24.2345C118.859 23.9093 119.184 23.5591 119.484 23.2089C119.584 23.1088 119.659 23.0087 119.759 22.8836L123.187 18.4808C123.212 18.4558 123.262 18.4308 123.337 18.4058L124.212 19.1312C124.462 19.3063 124.638 19.7066 124.538 19.9568C124.437 20.2319 124.312 20.5071 124.137 20.7323C122.937 22.2582 121.736 23.7592 120.535 25.2602C120.41 25.4353 120.26 25.5854 120.11 25.7355C119.584 26.2108 119.134 26.7862 118.709 27.3865C118.083 28.2621 117.283 28.9626 116.357 29.5129ZM113.53 28.7874C113.53 28.7874 113.555 28.7874 113.606 28.7624C113.58 28.6123 113.53 28.4622 113.505 28.3121C113.43 28.3372 113.38 28.3372 113.33 28.3622C113.405 28.5123 113.455 28.6624 113.53 28.7874Z" fill="#D0C801"/>
<path d="M123.204 -1.08179C124.405 -0.456385 124.405 -0.456385 124.73 0.319115C124.605 0.719373 124.43 1.16966 124.255 1.66998C123.955 1.695 123.705 1.72002 123.305 1.77005C122.929 2.22034 122.429 2.72066 122.004 3.27102C119.477 6.54812 117.151 9.97533 115.199 13.6527C114.274 15.4288 113.623 17.3301 113.348 19.3314C113.323 19.6065 113.248 19.8817 113.173 20.1569C113.173 20.2069 113.098 20.2569 113.048 20.307C112.748 19.8567 112.748 19.8567 112.072 19.7566C112.072 19.4815 112.047 19.2063 112.022 18.856C111.872 19.1562 111.722 19.3814 111.597 19.6065C111.872 16.7047 112.698 14.0279 114.149 11.5263C113.323 11.3262 113.323 11.3262 113.223 10.6007C113.948 9.97533 114.974 9.75019 115.675 8.79957C115.024 8.94967 114.724 9.37494 114.299 9.60009C113.873 9.82523 113.498 10.1254 113.023 10.4256L112.923 9.95031C113.248 9.50002 113.698 9.22485 114.149 8.92465C114.774 8.5244 115.399 8.07411 115.975 7.5988C116.7 7.02343 116.7 6.99841 116.95 6.12285C116.3 5.69758 115.575 5.62253 114.824 5.82266C113.723 6.09783 112.623 6.39803 111.522 6.67321C110.421 6.9734 109.321 7.27359 108.32 7.82395C109.321 7.54877 110.296 7.27359 111.297 6.9734C112.272 6.72324 113.248 6.52311 114.274 6.47308C111.197 7.04845 108.245 7.99906 105.393 9.22485C104.217 9.72517 103.041 10.2005 101.941 10.8259C100.84 11.4513 99.7894 12.1767 98.9388 13.1274C98.4385 13.6777 98.3384 14.0279 98.3635 14.7034C98.6636 14.9285 98.9388 15.2787 99.4391 15.0286C99.5142 14.9786 99.6893 15.0786 99.8144 15.1286C100.89 15.4539 101.916 15.8291 102.991 16.0542C103.692 16.2043 104.442 16.1043 105.168 16.1293C105.693 15.629 106.269 16.0542 106.794 16.0292C107.344 16.0292 107.92 16.1543 108.445 16.3294C108.745 16.4045 108.945 16.7547 109.17 16.9548C109.17 17.9805 108.945 18.2557 107.995 18.4058C105.918 18.731 103.842 18.9811 101.816 19.5315C100.74 19.8067 99.6643 20.0318 98.6386 20.4321C97.3878 20.9074 96.187 21.4827 94.9863 22.0831C90.7836 24.1595 87.0061 26.8612 83.4288 29.8631C81.5026 31.4892 79.7765 33.3154 78.0003 35.1165C77.8502 35.2666 77.7001 35.4167 77.5501 35.5418C77.525 35.5668 77.475 35.5668 77.3249 35.5918L79.8015 32.5899C79.7014 32.5148 79.6014 32.4148 79.4263 32.2897C77.2749 34.9664 74.9484 37.493 72.9971 40.3949C72.6719 40.4199 72.4468 40.6201 72.2717 40.9703C72.0965 41.3455 71.8714 41.6958 71.6713 42.071C71.5962 42.1711 71.5712 42.3212 71.5212 42.4462C71.8214 42.3962 72.1216 42.3462 72.4968 42.2961C72.2466 42.8465 72.0715 43.3218 71.8464 43.7971C71.3461 44.7977 71.1709 45.8985 70.9208 46.9491C70.7457 47.7997 71.4461 49.5258 72.6219 49.851C73.5725 50.1262 74.5481 50.3263 75.5237 50.3263C76.5744 50.3263 77.6501 50.2012 78.7008 49.9511C78.7758 49.926 78.8259 49.901 79.026 49.801C78.6508 49.826 78.4006 49.851 78.1755 49.876C78.1755 49.826 78.1504 49.801 78.1504 49.776L79.7515 49.4007L86.2056 47.8997C87.0061 47.6996 87.8317 47.5495 88.6322 47.3744C88.8323 47.3244 89.0575 47.1993 89.2576 47.0992C89.7079 46.8991 90.1582 46.674 90.6085 46.5239C94.9362 45.0979 99.1139 43.3468 103.317 41.5957C104.392 41.1454 105.518 40.7952 106.619 40.4199C106.819 40.3449 107.044 40.3199 107.244 40.2948C107.795 40.2198 108.295 39.9947 108.695 39.6444C109.471 38.969 110.471 38.7689 111.397 38.4186C111.647 38.3186 111.922 38.2685 112.172 38.1685C112.773 37.8933 113.348 37.5931 114.049 37.5931C114.349 37.6181 114.674 37.418 114.974 37.2929C115.424 37.0928 115.85 36.8426 116.3 36.6425C116.525 36.5424 116.775 36.4924 117.025 36.4174C117.376 36.3173 117.676 36.1422 117.951 35.7669C117.626 35.6669 117.451 35.792 117.251 35.867C115.975 36.3673 114.724 36.8927 113.448 37.393C112.748 37.6682 112.047 37.9183 111.347 38.1184C113.648 36.9677 115.975 35.7919 118.151 34.6912C118.601 34.0909 118.626 33.3154 119.477 33.2653L120.428 34.266C120.152 35.2916 119.702 36.1672 118.601 36.6675C117.601 37.1428 116.7 37.8183 115.725 38.3686C115.124 38.6938 114.524 39.019 113.898 39.2442C110.521 40.495 107.369 42.1711 104.117 43.697C100.565 45.3481 96.9625 46.774 93.2852 48.0999C89.858 49.3257 86.4058 50.4264 82.8785 51.2269C82.128 51.402 81.3525 51.477 80.577 51.6021C80.0767 51.7022 79.5764 51.8523 79.076 51.9273C78.4006 52.0274 77.7502 52.0774 77.0747 52.1525C77.0497 52.1024 77.0497 52.0524 77.0247 52.0024C77.0998 51.9524 77.1998 51.8773 77.2749 51.8023L77.1748 51.7772C76.9246 51.8273 76.6495 51.8273 76.4243 51.9023C74.9984 52.3526 73.6475 52.3026 72.3717 51.4771C72.1466 51.327 71.8964 51.2769 71.6462 51.1769C70.3954 50.7766 69.5949 49.9511 69.1947 48.6752C68.9695 47.9498 68.9445 47.2243 69.0946 46.4738C69.1947 46.0486 69.2197 45.5983 69.3198 45.173C69.4198 44.7727 69.5699 44.4225 69.72 44.0473C69.8201 43.7971 69.9452 43.5469 70.0202 43.2718C70.3454 42.1961 70.8958 41.2204 71.4962 40.2948C71.6963 39.9696 71.9965 39.6945 72.2466 39.4193C72.3717 39.2942 72.4718 39.1441 72.5718 39.019C72.9471 38.5437 73.2973 38.0434 73.6475 37.5931C73.6976 37.393 73.7226 37.1678 73.7976 37.0177C73.9227 36.7676 74.0978 36.5424 74.298 36.3173C75.4737 34.9914 76.6245 33.6155 77.8502 32.3147C78.5757 31.5642 79.4012 30.8888 80.2018 30.1883C80.4019 29.9882 80.652 29.8381 80.9022 29.713C81.1524 29.588 81.2774 29.3878 81.3775 29.1377C81.2774 28.8625 81.5526 28.7624 81.7027 28.6123C82.9535 27.5867 84.1793 26.536 85.4551 25.5353C86.1806 24.96 86.9311 24.4597 87.6816 23.9343C87.8817 23.8092 88.1319 23.7842 88.282 23.6341C88.5321 23.384 88.9324 23.434 89.1325 23.0087C89.2326 22.7085 89.7079 22.5834 90.0331 22.3583C91.7592 21.2576 93.5604 20.332 95.4116 19.4815C95.9619 19.2313 96.4872 18.9061 97.1627 19.0312C97.3628 19.0562 97.588 18.9061 97.9382 18.806L97.688 19.1062C97.638 19.1562 97.588 19.1813 97.4879 19.2313C98.1383 19.2063 98.5636 18.9811 99.9144 18.0555C99.8644 18.0055 99.8144 17.9805 99.7143 17.8804C99.9144 17.7553 100.065 17.6553 100.215 17.5802C100.165 17.5052 100.165 17.4551 100.14 17.4551C99.4391 17.255 98.7887 16.9298 98.1633 16.5546C97.738 16.2794 97.2878 16.0793 96.9375 15.704C96.162 14.8785 96.112 13.9279 96.7874 13.0273L97.0876 13.6277C97.0626 13.7778 97.0876 13.9029 97.0626 14.053C97.0126 14.6283 97.3128 15.0286 97.7631 15.4288C97.8131 14.7034 97.8881 14.053 97.8881 13.4025C97.8881 12.8522 98.0883 12.3769 98.4135 11.9766C99.0639 11.1761 99.8894 10.5507 100.765 10.0504C102.441 9.09977 104.117 8.17417 105.918 7.47372C105.843 7.39867 105.793 7.32362 105.718 7.27359C106.168 7.27359 106.569 6.99841 106.969 6.8233C108.045 6.37301 109.12 5.82266 110.221 5.37237C111.422 4.87205 112.698 4.57185 114.024 4.59687C115.174 4.59687 116.325 4.6469 117.451 4.72195C117.751 4.74697 118.051 4.84703 118.426 4.92208C119.627 2.64561 121.628 0.944517 123.204 -1.08179ZM102.291 9.65012C102.641 9.55006 102.916 9.55006 103.091 9.24986C102.766 9.17482 102.566 9.32491 102.291 9.65012ZM88.8073 23.8843C88.8323 23.8843 88.8323 23.8593 88.8073 23.8343C88.8073 23.8092 88.7823 23.8092 88.7072 23.7342C87.2813 24.7849 85.8304 25.8606 84.3794 26.9112C84.4045 26.9613 84.4295 27.0113 84.4545 27.0363C84.5546 26.9863 84.6546 26.9613 84.7297 26.9112C86.1056 25.9106 87.4564 24.8849 88.8073 23.8843ZM81.7027 29.1377C81.9029 29.0126 82.078 28.8375 82.2781 28.6874C82.2531 28.6624 82.2281 28.6373 82.2281 28.6123L81.4025 29.1377C81.5276 29.1377 81.6277 29.1877 81.7027 29.1377ZM73.2723 51.427V51.5771C73.6726 51.6271 74.0478 51.7022 74.348 51.7522L74.5481 51.1518H76.1992V50.9267C75.3236 50.9767 74.4731 51.0518 73.5725 51.1018C73.6976 51.1518 73.8227 51.2019 73.9978 51.3019C73.6976 51.352 73.4974 51.377 73.2723 51.427Z" fill="#D0C801"/>
</g>
<defs>
<clipPath id="clip0_2666_882">
<rect width="192" height="64" fill="white"/>
</clipPath>
</defs>
</svg>
