<svg width="150" height="127" viewBox="0 0 150 127" fill="none" xmlns="http://www.w3.org/2000/svg">
<path d="M30.3146 55.12L30.0846 51.98L27.4746 50.21L30.3946 49.02L31.2746 45.99L33.3046 48.4L36.4646 48.3L34.7946 50.98L35.8646 53.95L32.8046 53.19L30.3146 55.12Z" fill="#BDD400"/>
<path d="M9.54956 111.954L0 115.242L3.28856 124.792L12.8381 121.503L9.54956 111.954Z" fill="#FE8C47"/>
<path d="M92.9446 117.49C93.1246 116.92 93.4446 116.42 93.9046 116.04C94.1246 115.85 94.3646 115.7 94.6246 115.58C94.7646 115.52 94.9046 115.47 95.0546 115.43C95.1546 115.41 95.2546 115.39 95.3546 115.39C95.4146 115.38 95.4846 115.38 95.5546 115.39C95.2846 115.27 95.0246 115.15 94.7546 115.03C94.7846 115.13 94.9446 115.28 94.9946 115.39C95.0446 115.51 95.0746 115.62 95.1046 115.75C95.1646 116 95.1846 116.26 95.1946 116.52C95.2246 117.14 95.2446 117.75 95.3846 118.35C95.5146 118.91 95.7546 119.46 96.1346 119.91C96.5646 120.41 97.1546 120.73 97.7546 121.01C98.3346 121.27 98.9746 121.55 99.6246 121.46C100.135 121.39 100.585 121.13 100.955 120.79C101.465 120.33 101.835 119.75 102.235 119.21C102.565 118.76 103.235 117.82 103.885 117.94C103.515 117.79 103.145 117.64 102.775 117.48C102.815 117.5 102.845 117.52 102.885 117.54C102.775 117.47 102.665 117.41 102.565 117.34C102.845 117.6 102.855 118.05 102.885 118.4C102.915 118.78 102.905 119.16 102.855 119.53C102.835 119.66 103.465 119.9 103.555 119.95C103.615 119.98 104.335 120.27 104.335 120.22C104.385 119.81 104.405 119.41 104.365 119.01C104.335 118.69 104.315 118.29 104.095 118.03C103.835 117.72 103.285 117.54 102.925 117.39C102.575 117.25 102.295 117.15 101.955 117.35C100.665 118.06 100.265 119.69 99.0146 120.46C98.7346 120.63 98.4246 120.75 98.0946 120.79C97.9146 120.8 97.7446 120.75 97.5646 120.76C97.9546 120.73 98.2546 121.15 97.9446 120.9C97.8446 120.82 97.7546 120.73 97.6746 120.64C97.1546 120.08 96.9046 119.34 96.7946 118.61C96.6846 117.93 96.7446 117.23 96.6146 116.55C96.4846 115.85 96.0846 115.5 95.4646 115.19C95.0246 114.98 94.5146 114.72 94.0146 114.71C93.6646 114.7 93.2946 114.83 92.9846 114.99C92.2446 115.37 91.7146 116.03 91.4646 116.81C91.4046 116.98 92.9346 117.54 92.9446 117.49Z" fill="#C0079E"/>
<path d="M10.4447 20.92C10.9047 20.63 11.4347 21.04 11.5547 21.48C11.7147 22.01 11.4747 22.5401 11.2547 23.0301C11.0147 23.5401 10.7747 24.05 10.5547 24.57C10.4747 24.76 10.3947 25.01 10.5447 25.19C10.6547 25.32 10.8347 25.33 10.9947 25.33C11.1547 25.33 11.3347 25.32 11.4947 25.36C11.7147 25.42 11.8547 25.6 11.9247 25.8C12.0547 26.23 11.7947 26.62 11.4747 26.89C10.7247 27.51 9.74471 28.2 9.55471 29.21C9.46471 29.69 9.57471 30.2001 9.98471 30.5001C10.3947 30.8001 10.9447 30.8201 11.4347 30.8401C11.5347 30.8401 11.6847 30.67 11.7447 30.61C11.8147 30.55 11.8847 30.48 11.9447 30.42C11.9547 30.41 12.0147 30.32 12.0047 30.32C11.5547 30.31 11.0647 30.28 10.6647 30.05C10.2647 29.82 10.0747 29.39 10.0947 28.94C10.1347 27.83 11.1747 27.3 11.8847 26.61C12.2047 26.3 12.5647 25.91 12.5147 25.43C12.4947 25.25 12.4147 25.06 12.2747 24.94C12.1147 24.81 11.8947 24.8 11.6947 24.8C11.5347 24.8 11.3647 24.8101 11.2247 24.7501C10.9747 24.6301 10.9947 24.35 11.0847 24.13C11.2947 23.59 11.5647 23.0601 11.8047 22.5301C12.0347 22.0201 12.2947 21.44 12.0847 20.89C11.9047 20.4 11.3547 20.14 10.8847 20.44C10.7347 20.53 10.6047 20.6601 10.4847 20.7801C10.4847 20.8101 10.3147 20.99 10.4447 20.92Z" fill="#FF6E00"/>
<path d="M68.74 41.8941L63.6431 47.176L68.9249 52.2729L74.0219 46.9911L68.74 41.8941Z" fill="#FE8C47"/>
<path d="M149.884 24.9702L131.314 28.8402L134.204 35.6502L149.884 24.9702Z" fill="#FFCC00"/>
<path d="M110.605 0C111.495 0.7 111.425 1.66998 111.375 2.38998C111.325 3.03998 111.345 3.25997 111.535 3.40997C111.725 3.55997 111.945 3.51998 112.565 3.31998C113.245 3.09998 114.175 2.78998 115.065 3.47998C115.955 4.17998 115.885 5.14999 115.835 5.87C115.785 6.50999 115.805 6.73998 115.995 6.88998C116.185 7.03998 116.405 6.99999 117.025 6.79999C117.705 6.57999 118.635 6.27 119.525 6.97C120.415 7.67 120.345 8.63999 120.295 9.35999C120.245 9.99999 120.265 10.23 120.455 10.38C120.645 10.53 120.865 10.49 121.485 10.29C122.165 10.07 123.095 9.75999 123.985 10.46C124.875 11.16 124.805 12.13 124.755 12.85C124.705 13.49 124.725 13.72 124.915 13.87L123.935 15.12C123.045 14.42 123.115 13.45 123.165 12.73C123.215 12.09 123.195 11.86 123.005 11.71C122.815 11.56 122.595 11.6 121.975 11.8C121.295 12.02 120.365 12.33 119.475 11.63C118.585 10.93 118.655 9.95999 118.705 9.23999C118.755 8.59999 118.735 8.37 118.545 8.22C118.355 8.07 118.135 8.11 117.515 8.31C116.835 8.53 115.905 8.83998 115.015 8.13998C114.125 7.43998 114.195 6.47 114.245 5.75C114.295 5.11 114.275 4.87998 114.085 4.72998C113.895 4.57998 113.675 4.61998 113.055 4.81998C112.375 5.03998 111.445 5.34999 110.555 4.64999C109.665 3.94999 109.735 2.97998 109.785 2.25998C109.835 1.60998 109.815 1.38999 109.625 1.23999L110.605 0Z" fill="#21D6D8"/>
<path d="M8.01465 93.46L15.7846 82.05L10.8246 79.9399L8.01465 93.46Z" fill="#FFCC00"/>
<path d="M42.7744 119.03C45.1344 118.67 47.8843 117.37 48.3843 114.75C48.9943 111.54 46.1143 108.64 43.9743 106.72C43.4143 106.22 42.8343 105.75 42.2343 105.27C41.9243 105.02 41.6044 104.77 41.3044 104.51C41.2944 104.49 40.9643 104.25 40.9543 104.2C41.2043 104.5 41.2344 104.52 41.0244 104.24C40.9444 104.13 40.8844 104.03 40.8344 103.91C40.1144 102.53 40.4243 101.19 41.3143 100.03C42.0743 99.0301 43.0744 98.1801 43.5544 96.9901C44.0544 95.7401 43.9343 94.2901 43.4643 93.0301C42.8543 91.3901 41.6443 90.0201 40.4443 88.8001C39.1543 87.4901 37.6943 86.4301 36.1743 85.3901C36.0243 85.2901 36.2143 85.6201 36.1943 85.5601C36.2943 85.7901 36.5743 86.0601 36.7143 86.2101C37.0843 86.6301 37.4743 87.0901 37.9343 87.4101C38.5443 87.8301 39.1544 88.2401 39.7444 88.6901C39.9944 88.8901 40.2544 89.0901 40.4944 89.3001C40.5944 89.3801 40.7143 89.4801 40.8143 89.5801C40.5943 89.3501 40.8743 89.6901 40.9143 89.7501C41.6343 90.8101 42.0543 92.1701 41.9843 93.4601C41.9143 94.6901 41.3444 95.6801 40.5844 96.6001C39.8844 97.4401 39.0343 98.2301 38.6843 99.3101C38.2843 100.52 38.7343 101.73 39.4343 102.74C40.2943 104.01 41.4143 105.15 42.5643 106.14C43.4743 106.93 44.8043 107.75 45.4643 108.59C46.2943 109.68 46.7544 111.24 46.5244 112.59C46.0844 115.28 43.2944 116.61 40.8944 116.98C40.8643 116.99 41.6543 118.01 41.7343 118.09C41.9043 118.29 42.4844 119.07 42.7744 119.03Z" fill="#BDD400"/>
<path d="M39.6646 17.8L41.6146 25.39C41.6746 25.63 41.6346 25.89 41.4946 26.1C41.3546 26.31 41.1346 26.45 40.8846 26.48C40.6346 26.51 40.3845 26.4401 40.1945 26.2801C40.0045 26.1201 39.8946 25.88 39.8846 25.63L39.6646 17.8Z" fill="#FF6E00"/>
<path d="M46.4947 66.6101C46.7447 67.4001 47.3247 68.2801 48.2547 68.1701C48.5947 68.1301 48.8447 67.9401 49.0547 67.6701C49.3847 67.2601 49.6547 66.78 49.8747 66.29C50.0647 65.87 50.2147 65.4301 50.3847 65.0001C50.4647 64.7901 50.5447 64.5701 50.6347 64.3601C50.6847 64.2301 50.7347 64.1101 50.7847 63.9801C50.8047 63.9201 50.8347 63.85 50.8647 63.79C50.5147 64.25 50.4347 64.42 50.6247 64.26C51.0247 64.06 51.3647 64.0301 51.8047 64.1501C52.2247 64.2701 52.6347 64.5001 52.9747 64.7801C53.2747 65.0301 53.5447 65.3401 53.6847 65.7101C53.8447 66.1501 53.7647 66.58 53.6747 67.01C53.5047 67.8 53.5347 68.53 54.0547 69.19C55.0647 70.47 56.8347 70.3201 57.9047 69.2401C58.5747 68.5701 59.1447 67.5901 59.3747 66.6501C59.6047 65.7301 59.4547 64.74 59.0447 63.88C59.0347 63.86 58.6547 64.4101 58.6147 64.4601C58.5547 64.5701 58.2447 64.9701 58.3147 65.1201C58.6547 65.8201 58.8147 66.6101 58.7147 67.3901C58.6947 67.5701 58.6547 67.76 58.6047 67.94C58.5747 68.03 58.3947 68.3901 58.6147 68.0201C58.8347 67.6701 58.6447 67.94 58.5847 68.01C58.3447 68.27 58.0447 68.4901 57.7247 68.6401C56.4447 69.2601 54.8347 68.64 54.3747 67.2301C54.1247 66.4501 54.5447 65.7501 54.5047 64.9801C54.4647 64.2501 53.9647 63.6801 53.3747 63.3101C52.8147 62.9501 51.9947 62.6101 51.3647 62.9801C51.0647 63.1601 50.8647 63.5001 50.6747 63.8001C50.4147 64.2201 50.2047 64.6601 50.0247 65.1201C49.8447 65.5801 49.6647 66.0501 49.4847 66.5201C49.4547 66.6001 49.4247 66.6901 49.3847 66.7701C49.3447 66.8801 49.1147 67.3601 49.3647 66.9001C49.5647 66.5401 49.4547 66.74 49.3147 66.82C49.2047 66.88 49.0847 66.9101 48.9647 66.9201C48.0347 67.0301 47.4547 66.1501 47.2047 65.3601C47.2047 65.3601 46.8147 65.88 46.7847 65.94C46.7247 66.09 46.4447 66.4401 46.4947 66.6101Z" fill="#FF5E88"/>
<path d="M96.6646 61.76L101.075 69.3L103.875 66.69L96.6646 61.76Z" fill="#FFCC00"/>
<path d="M10.4635 56.0239L1.97803 59.113L5.06719 67.5985L13.5527 64.5094L10.4635 56.0239Z" fill="#FE8C47"/>
<path d="M73.9646 87.2401C74.4246 87.2001 74.8946 87.0901 75.3246 86.9001C75.4746 86.8301 75.6246 86.7501 75.7846 86.6701C75.8546 86.6301 75.9246 86.5901 76.0046 86.5501C76.0446 86.5301 76.0846 86.5201 76.1246 86.5001C75.7546 86.7101 75.6046 86.5501 75.8846 86.6001C76.7046 86.7301 76.9647 87.7701 76.9547 88.4801C76.9547 88.9001 76.8946 89.3201 76.9146 89.7401C76.9246 90.1301 76.9746 90.61 77.2546 90.91C77.5246 91.19 77.9046 91.1401 78.2646 91.0801C78.6746 91.0001 79.0947 90.8901 79.4247 90.6401C79.7547 90.3901 79.9546 90.0401 80.1846 89.7101C80.3146 89.5201 80.4646 89.3201 80.6546 89.1701C80.7346 89.1001 80.8246 89.0601 80.9146 89.0001C80.6146 89.2001 80.4546 89.0601 80.6646 89.0901C80.7346 89.1001 80.8046 89.1001 80.8746 89.1201C81.7946 89.3101 82.3346 90.2401 82.6846 91.0301C83.0546 91.8401 83.2747 92.7201 83.3347 93.6201C83.3847 94.4501 83.2647 95.3901 82.5847 95.9601C82.4947 96.0301 82.4047 96.1 82.3047 96.16C82.2647 96.18 82.2047 96.2001 82.1747 96.2201C82.2947 96.1901 82.4146 96.16 82.5346 96.13C82.5046 96.13 82.4846 96.13 82.4446 96.13C82.1846 96.08 81.9546 96.0001 81.7347 95.8401C81.3547 95.5701 81.0746 95.1601 80.8846 94.7301C80.7146 94.3401 80.6346 93.8801 80.7546 93.4601C80.8146 93.2501 80.9347 93.06 81.0847 92.91C81.1547 92.84 81.2247 92.7801 81.3047 92.7401C81.3447 92.7201 81.3947 92.7001 81.4247 92.6801C81.2647 92.7201 81.1147 92.7601 80.9547 92.8001C80.9947 92.8001 81.0346 92.8101 81.0746 92.8201C81.2546 92.8501 81.4947 92.7601 81.6747 92.7201C81.7547 92.7001 81.8947 92.69 81.9547 92.63C81.9647 92.62 82.0547 92.5901 81.9947 92.5801C81.5247 92.5001 80.9447 92.6501 80.5247 92.8501C80.1847 93.0101 79.9146 93.31 79.7946 93.66C79.5046 94.53 80.0946 95.6001 80.7946 96.0901C81.1646 96.3501 81.5646 96.4101 82.0146 96.3401C82.5046 96.2601 83.0447 96.1401 83.4547 95.8301C84.2247 95.2301 84.3547 94.2001 84.2747 93.2901C84.1947 92.2701 83.8947 91.27 83.4247 90.38C82.9547 89.51 82.2346 88.74 81.1546 88.88C80.6646 88.94 80.0746 89.0501 79.6846 89.3901C79.2846 89.7301 79.0847 90.2201 78.7347 90.6001C78.5947 90.7501 78.4346 90.8601 78.2646 90.9701C78.0546 91.1001 78.1646 90.7601 78.6646 90.9001C78.6246 90.8901 78.5746 90.9 78.5346 90.88C78.4046 90.85 78.2947 90.79 78.2047 90.69C77.8947 90.36 77.8546 89.8101 77.8546 89.3701C77.8646 88.4201 78.1147 87.1201 77.1747 86.5201C76.7147 86.2301 76.1146 86.3901 75.6246 86.5301C75.4046 86.5901 75.1947 86.6801 74.9947 86.7801C74.8947 86.8301 74.7947 86.89 74.7047 86.94C74.6547 86.97 74.6047 87.0001 74.5547 87.0201C74.3347 87.1301 74.2246 87.0601 74.7946 87.0101C74.5746 87.0301 74.3446 87.0801 74.1346 87.1401C74.0846 87.1401 73.7846 87.2501 73.9646 87.2401Z" fill="#FFCC00"/>
<path d="M51.7844 115.11L54.2844 114.65L54.4844 115.72L53.2344 115.95L53.8744 117.75L52.0044 118.09L52.6444 119.89L50.7644 120.24L51.4044 122.04L49.5244 122.38L50.1644 124.18L48.2844 124.53L48.9244 126.33L46.4144 126.79L46.2144 125.72L47.4644 125.49L46.8244 123.69L48.7044 123.34L48.0644 121.54L49.9444 121.19L49.3044 119.4L51.1844 119.05L50.5444 117.25L52.4244 116.91L51.7844 115.11Z" fill="#FF5E88"/>
<path d="M100.415 45.7902C100.205 45.6602 100.025 45.4802 99.9146 45.2602C99.8546 45.1502 99.8246 45.0402 99.7946 44.9302C99.7846 44.8702 99.7746 44.8002 99.7746 44.7402C99.7746 44.7002 99.7746 44.6602 99.7846 44.6102C99.7846 44.5802 99.7946 44.5602 99.8046 44.5302C99.7246 44.6302 99.6546 44.7202 99.5846 44.8202C99.6246 44.8202 99.7046 44.7702 99.7546 44.7602C99.8046 44.7502 99.8546 44.7502 99.9146 44.7502C100.025 44.7502 100.135 44.7702 100.235 44.7902C100.485 44.8402 100.735 44.8902 101.005 44.8802C101.245 44.8802 101.495 44.8402 101.715 44.7202C101.955 44.5902 102.145 44.3802 102.315 44.1602C102.475 43.9502 102.645 43.7202 102.675 43.4402C102.695 43.2302 102.625 43.0202 102.525 42.8402C102.385 42.5902 102.185 42.3802 101.995 42.1702C101.845 41.9902 101.525 41.6302 101.635 41.3802C101.535 41.5202 101.445 41.6502 101.345 41.7902C101.355 41.7802 101.365 41.7702 101.375 41.7502C101.335 41.7902 101.305 41.8302 101.265 41.8602C101.395 41.7702 101.585 41.8102 101.725 41.8302C101.885 41.8502 102.035 41.8902 102.185 41.9502C102.235 41.9702 102.395 41.7402 102.425 41.7002C102.435 41.6802 102.625 41.4102 102.605 41.4102C102.445 41.3502 102.285 41.3102 102.115 41.2802C101.985 41.2602 101.815 41.2302 101.695 41.3002C101.545 41.3802 101.415 41.5802 101.325 41.7202C101.235 41.8502 101.175 41.9602 101.215 42.1102C101.385 42.7002 102.005 43.0202 102.205 43.6002C102.245 43.7302 102.265 43.8702 102.255 44.0102C102.245 44.0802 102.205 44.1502 102.195 44.2202C102.215 44.0602 102.415 43.9802 102.285 44.0802C102.245 44.1102 102.195 44.1402 102.155 44.1702C101.875 44.3302 101.555 44.3602 101.245 44.3402C100.955 44.3202 100.685 44.2302 100.395 44.2202C100.095 44.2102 99.9146 44.3302 99.7346 44.5602C99.6046 44.7202 99.4546 44.9002 99.4046 45.1002C99.3646 45.2402 99.3846 45.4002 99.4246 45.5502C99.5146 45.8802 99.7346 46.1602 100.025 46.3402C100.055 46.3702 100.425 45.8002 100.415 45.7902Z" fill="#C0079E"/>
<path d="M91.4443 24.5201L105.054 26.1101L104.434 20.1301L91.4443 24.5201Z" fill="#FFCC00"/>
</svg>
