<svg width="169" height="142" viewBox="0 0 169 142" fill="none" xmlns="http://www.w3.org/2000/svg">
<path d="M64.25 106.377C64.78 106.647 64.69 107.367 64.35 107.737C63.94 108.187 63.31 108.267 62.73 108.327C62.11 108.397 61.5 108.447 60.88 108.537C60.66 108.567 60.37 108.637 60.29 108.877C60.23 109.057 60.32 109.237 60.41 109.387C60.5 109.547 60.61 109.697 60.66 109.867C60.73 110.107 60.64 110.347 60.48 110.517C60.15 110.877 59.64 110.857 59.2 110.707C58.19 110.357 56.99 109.827 55.94 110.217C55.44 110.407 55.02 110.797 54.97 111.357C54.92 111.907 55.21 112.437 55.47 112.907C55.52 112.997 55.77 113.047 55.86 113.067C55.96 113.097 56.05 113.127 56.15 113.147C56.16 113.147 56.28 113.157 56.28 113.157C56.04 112.727 55.79 112.257 55.78 111.757C55.77 111.247 56.06 110.827 56.5 110.587C57.57 110.007 58.65 110.677 59.71 110.957C60.18 111.087 60.75 111.197 61.17 110.887C61.33 110.767 61.46 110.587 61.5 110.387C61.53 110.157 61.42 109.957 61.31 109.767C61.22 109.617 61.11 109.467 61.09 109.297C61.06 108.997 61.34 108.857 61.59 108.807C62.22 108.697 62.87 108.657 63.5 108.587C64.11 108.517 64.79 108.427 65.2 107.927C65.56 107.487 65.49 106.827 64.95 106.547C64.78 106.457 64.59 106.407 64.4 106.367C64.37 106.357 64.1 106.297 64.25 106.377Z" fill="#FF6E00"/>
<path d="M125.21 103.457L124.98 100.317L122.37 98.5471L125.29 97.3571L126.17 94.3271L128.2 96.7372L131.36 96.6371L129.69 99.3171L130.76 102.287L127.7 101.527L125.21 103.457Z" fill="#BDD400"/>
<path d="M149.83 39.6372L151.83 35.0672C151.89 34.9172 152.02 34.8072 152.17 34.7572C152.32 34.7072 152.49 34.7273 152.62 34.8073C152.76 34.8873 152.86 35.0172 152.89 35.1772C152.92 35.3372 152.89 35.4972 152.79 35.6272L149.83 39.6372Z" fill="#FF6E00"/>
<path d="M39.58 61.0472L38.3 65.0272L36.77 64.5372L37.68 61.7072L34.73 59.6972L35.82 56.2972L32.86 54.2872L33.95 50.8872L31 48.8672L32.27 44.8972L33.8 45.3872L32.89 48.2172L35.85 50.2272L34.76 53.6372L37.71 55.6372L36.62 59.0472L39.58 61.0472Z" fill="#C0079E"/>
<path d="M77.6301 121.217C77.1601 121.837 77.5901 122.567 78.0401 123.027C78.3201 123.317 78.6501 123.427 79.0401 123.497C79.3501 123.557 79.6401 123.597 79.9401 123.457C80.4801 123.217 80.7901 122.667 81.2801 122.337C81.4101 122.247 81.5501 122.197 81.7101 122.147C81.7401 122.137 81.7701 122.147 81.7901 122.137C81.3201 122.307 81.3501 121.967 81.4801 122.107C81.5501 122.177 81.6301 122.237 81.6901 122.327C81.9001 122.617 81.9501 122.977 81.9401 123.327C81.9101 123.997 81.6501 124.767 82.0401 125.377C82.1901 125.617 82.4301 125.767 82.6901 125.857C83.0501 125.987 83.4601 126.077 83.8401 126.067C84.5301 126.037 84.9001 125.417 85.3701 125.007C85.5001 124.897 85.6301 124.797 85.7801 124.727C85.8501 124.687 85.9201 124.667 86.0001 124.647C86.0301 124.637 86.0601 124.637 86.0901 124.627C86.2601 124.587 85.5201 124.407 85.7901 124.567C86.1001 124.747 86.3101 125.097 86.4101 125.427C86.5201 125.797 86.5001 126.167 86.2401 126.467C85.9701 126.767 85.7201 127.017 85.7201 127.457C85.7301 128.377 86.8001 128.637 87.5301 128.657C87.7001 128.657 87.4101 128.567 87.3901 128.567C87.2001 128.517 87.0001 128.467 86.8001 128.467C86.8301 128.467 87.3101 128.637 87.0701 128.507C87.0401 128.487 87.0101 128.467 86.9901 128.447C86.9101 128.397 86.8401 128.327 86.7801 128.257C86.6901 128.137 86.6301 127.997 86.5901 127.847C86.5301 127.557 86.6101 127.237 86.7901 126.997C87.0001 126.717 87.2901 126.527 87.3301 126.147C87.3601 125.837 87.2501 125.517 87.1001 125.257C86.7601 124.657 86.0501 124.427 85.3801 124.437C84.7601 124.447 84.3601 124.987 83.9601 125.387C83.7301 125.617 83.4601 125.827 83.1201 125.867C83.0801 125.877 83.0501 125.867 83.0101 125.877C83.3301 125.797 83.4401 126.017 83.2701 125.917C83.2201 125.887 83.1701 125.857 83.1201 125.817C82.9801 125.717 82.8801 125.577 82.8101 125.417C82.5301 124.807 82.7701 124.117 82.7901 123.477C82.8101 122.817 82.5301 122.267 81.8801 122.087C81.5601 121.997 81.1801 121.897 80.8501 121.967C80.6001 122.027 80.3701 122.187 80.1701 122.357C79.9301 122.567 79.7401 122.807 79.5001 123.007C79.3801 123.117 79.2401 123.207 79.0901 123.267C79.0101 123.307 78.9401 123.317 78.8601 123.337C78.8401 123.347 78.8001 123.337 78.7801 123.347C78.8501 123.297 79.3101 123.537 79.0601 123.347C78.5101 122.927 77.9601 122.057 78.4701 121.387C78.4901 121.367 78.0801 121.257 78.0501 121.257C78.0001 121.257 77.6901 121.157 77.6301 121.217Z" fill="#FE8C47"/>
<path d="M105.34 69.2572C105.8 68.9672 106.33 69.3772 106.45 69.8172C106.61 70.3472 106.37 70.8772 106.15 71.3672C105.91 71.8772 105.67 72.3872 105.45 72.9072C105.37 73.0972 105.29 73.3472 105.44 73.5272C105.55 73.6572 105.73 73.6672 105.89 73.6672C106.05 73.6672 106.23 73.6572 106.39 73.6972C106.61 73.7572 106.75 73.9372 106.82 74.1372C106.95 74.5672 106.69 74.9572 106.37 75.2272C105.62 75.8472 104.64 76.5372 104.45 77.5472C104.36 78.0272 104.47 78.5372 104.88 78.8372C105.29 79.1372 105.84 79.1572 106.33 79.1772C106.43 79.1772 106.58 79.0072 106.64 78.9472C106.71 78.8872 106.78 78.8172 106.84 78.7572C106.85 78.7472 106.91 78.6572 106.9 78.6572C106.45 78.6472 105.96 78.6172 105.56 78.3872C105.16 78.1572 104.97 77.7272 104.99 77.2772C105.03 76.1672 106.07 75.6372 106.78 74.9472C107.1 74.6372 107.46 74.2472 107.41 73.7672C107.39 73.5872 107.31 73.3972 107.17 73.2772C107.01 73.1472 106.79 73.1372 106.59 73.1372C106.43 73.1372 106.26 73.1472 106.12 73.0872C105.87 72.9672 105.89 72.6872 105.98 72.4672C106.19 71.9272 106.46 71.3972 106.7 70.8672C106.93 70.3572 107.19 69.7772 106.98 69.2272C106.8 68.7372 106.25 68.4772 105.78 68.7772C105.63 68.8672 105.5 68.9972 105.38 69.1172C105.38 69.1472 105.21 69.3272 105.34 69.2572Z" fill="#FF6E00"/>
<path d="M163.635 90.2313L158.539 95.5132L163.82 100.61L168.917 95.3282L163.635 90.2313Z" fill="#FE8C47"/>
<path d="M48.5399 20.0973C47.5199 20.4173 46.4499 20.4573 45.4199 20.1773C44.9199 20.0473 44.4499 19.8473 44.0099 19.5873C43.7799 19.4373 43.5499 19.2873 43.3499 19.1073C43.2099 18.9873 43.0899 18.8573 42.9799 18.7073C42.9099 18.6173 42.8399 18.5273 42.7799 18.4173C42.8799 18.9373 42.9699 19.4573 43.0799 19.9773C43.1999 19.8273 43.2499 19.4373 43.3599 19.2673C43.4799 19.0673 43.6199 18.9073 43.7699 18.7273C44.0799 18.3773 44.4499 18.0873 44.8099 17.8073C45.6899 17.1273 46.5699 16.4673 47.3099 15.6373C47.9999 14.8573 48.5699 13.9573 48.8299 12.9273C49.1299 11.7773 48.9899 10.5673 48.7799 9.41727C48.5699 8.28727 48.3199 7.06728 47.5199 6.20728C46.8899 5.53728 46.0399 5.14727 45.1599 4.94727C43.9599 4.66727 42.7199 4.72726 41.4999 4.68726C40.4999 4.65726 38.4299 4.65726 37.9199 3.56726C38.0799 4.26726 38.2399 4.95727 38.3899 5.66727C38.3799 5.59727 38.3799 5.52728 38.3599 5.45728C38.3699 5.67728 38.3899 5.90727 38.3999 6.13727C38.4999 5.45727 39.1399 4.97727 39.6299 4.57727C40.1499 4.13727 40.7299 3.76728 41.3299 3.45728C41.5299 3.34728 41.2399 2.16728 41.2199 1.98728C41.1999 1.87728 40.8899 0.517263 40.8099 0.567263C40.1599 0.907263 39.5599 1.29728 38.9999 1.76728C38.5599 2.13728 37.9899 2.57727 37.8399 3.16727C37.6499 3.87727 37.9499 4.86727 38.0999 5.54727C38.2499 6.20727 38.3999 6.71725 39.0399 7.02725C41.4099 8.17725 44.2199 7.10728 46.6499 8.14728C47.1899 8.37728 47.6899 8.71727 48.0799 9.16727C48.2799 9.41727 48.3799 9.73726 48.5799 9.96726C48.1399 9.42726 48.4499 8.55725 48.3999 9.27725C48.3799 9.50725 48.3499 9.72727 48.2999 9.94727C48.0099 11.2873 47.1799 12.4173 46.2199 13.3473C45.3299 14.2073 44.2399 14.8373 43.3799 15.7273C42.4899 16.6373 42.3799 17.5773 42.5699 18.8273C42.6999 19.6873 42.8499 20.7073 43.3499 21.4573C43.7099 21.9773 44.2699 22.3873 44.8299 22.6673C46.1499 23.3673 47.6699 23.4573 49.0699 23.0273C49.3699 22.8973 48.6399 20.0673 48.5399 20.0973Z" fill="#C0079E"/>
<path d="M14.1299 98.9573L14.4899 102.387L17.4099 104.207L14.2699 105.617L13.4299 108.957L11.1199 106.397L7.68994 106.637L9.39993 103.657L8.11993 100.457L11.4899 101.167L14.1299 98.9573Z" fill="#BDD400"/>
<path d="M79.65 60.3472L70.79 66.6272L74.33 69.8172L79.65 60.3472Z" fill="#FFCC00"/>
<path d="M102.91 141.797L110.68 130.387L105.72 128.277L102.91 141.797Z" fill="#FFCC00"/>
<path d="M62.5977 36.3324L58.5771 46.2812L68.526 50.3018L72.5465 40.3529L62.5977 36.3324Z" fill="#FE8C47"/>
<path d="M134.56 66.1372L136.51 73.7272C136.57 73.9672 136.53 74.2272 136.39 74.4372C136.25 74.6472 136.03 74.7872 135.78 74.8172C135.53 74.8472 135.28 74.7772 135.09 74.6172C134.9 74.4572 134.79 74.2172 134.78 73.9672L134.56 66.1372Z" fill="#FF6E00"/>
<path d="M49.6201 74.2473L48.8301 86.3873L54.1101 85.5473L49.6201 74.2473Z" fill="#FFCC00"/>
<path d="M141.39 114.947C141.64 115.737 142.22 116.617 143.15 116.507C143.49 116.467 143.74 116.277 143.95 116.007C144.28 115.597 144.55 115.117 144.77 114.627C144.96 114.207 145.11 113.767 145.28 113.337C145.36 113.127 145.44 112.907 145.53 112.697C145.58 112.567 145.63 112.447 145.68 112.317C145.7 112.257 145.73 112.187 145.76 112.127C145.41 112.587 145.33 112.757 145.52 112.597C145.92 112.397 146.26 112.367 146.7 112.487C147.12 112.607 147.53 112.837 147.87 113.117C148.17 113.367 148.44 113.677 148.58 114.047C148.74 114.487 148.66 114.917 148.57 115.347C148.4 116.137 148.43 116.867 148.95 117.527C149.96 118.807 151.73 118.657 152.8 117.577C153.47 116.907 154.04 115.927 154.27 114.987C154.5 114.067 154.35 113.077 153.94 112.217C153.93 112.197 153.55 112.747 153.51 112.797C153.45 112.907 153.14 113.307 153.21 113.457C153.55 114.157 153.71 114.947 153.61 115.727C153.59 115.907 153.55 116.097 153.5 116.277C153.47 116.367 153.29 116.727 153.51 116.357C153.73 116.007 153.54 116.277 153.48 116.347C153.24 116.607 152.94 116.827 152.62 116.977C151.34 117.597 149.73 116.977 149.27 115.567C149.02 114.787 149.44 114.087 149.4 113.317C149.36 112.587 148.86 112.017 148.27 111.647C147.71 111.287 146.89 110.947 146.26 111.317C145.96 111.497 145.76 111.837 145.57 112.137C145.31 112.557 145.1 112.997 144.92 113.457C144.74 113.917 144.56 114.387 144.38 114.857C144.35 114.937 144.32 115.027 144.28 115.107C144.24 115.217 144.01 115.697 144.26 115.237C144.46 114.877 144.35 115.077 144.21 115.157C144.1 115.217 143.98 115.247 143.86 115.257C142.93 115.367 142.35 114.487 142.1 113.697C142.1 113.697 141.71 114.217 141.68 114.277C141.62 114.427 141.34 114.777 141.39 114.947Z" fill="#FF5E88"/>
<path d="M32.5402 126.207L20.8102 140.697C20.4102 141.187 19.6902 141.267 19.2002 140.867C18.7102 140.467 18.6302 139.747 19.0302 139.257L30.7602 124.767C31.1602 124.277 31.8802 124.197 32.3702 124.597C32.8602 124.997 32.9402 125.717 32.5402 126.207Z" fill="#52DA20"/>
<path d="M105.359 104.361L96.8735 107.45L99.9627 115.936L108.448 112.847L105.359 104.361Z" fill="#FE8C47"/>
<path d="M115.48 51.6472C115.87 51.3872 116.04 50.8872 116.18 50.4572C116.29 50.1072 116.35 49.7472 116.21 49.3972C116.15 49.2372 116.02 49.0272 115.84 48.9972C115.63 48.9572 115.4 49.1972 115.25 49.3272C114.87 49.6672 114.51 50.0672 114.02 50.2372C113.61 50.3772 113.17 50.3272 112.88 49.9972C112.73 49.8372 112.64 49.6272 112.62 49.4072C112.61 49.3572 112.62 49.2972 112.61 49.2472C112.59 48.9372 112.58 49.4872 112.51 49.4572C112.49 49.4472 112.79 49.1572 112.8 49.1372C113.14 48.8772 113.61 48.8672 113.85 48.4672C114.11 48.0372 114.31 47.4572 114.21 46.9472C114.14 46.5772 113.99 45.9772 113.55 45.8972C113.2 45.8372 112.83 46.1072 112.61 46.3572C112.33 46.6772 112.13 47.0972 111.75 47.3072C111.4 47.4972 111.02 47.3872 110.77 47.1072C110.65 46.9672 110.55 46.7872 110.51 46.5972C110.49 46.4972 110.48 46.3872 110.49 46.2772C110.49 46.3172 110.5 46.0972 110.51 46.0972C110.43 46.2772 110.43 46.3072 110.49 46.1772C110.51 46.1472 110.53 46.1072 110.55 46.0772C110.81 45.6372 111.14 45.2572 111.33 44.7772C111.49 44.3872 111.72 43.8672 111.52 43.4572C111.36 43.1272 110.96 42.9572 110.61 42.9672C110.15 42.9772 109.75 43.3072 109.48 43.6672C109.2 44.0472 109.06 44.4972 108.78 44.8772C108.47 45.2972 108.02 45.4172 107.6 45.0872C107.18 44.7472 106.9 44.2072 106.75 43.6872C106.75 43.6772 106.66 43.8272 106.67 43.7972C106.62 43.8972 106.58 43.9972 106.55 44.0972C106.51 44.2172 106.4 44.4172 106.43 44.5372C106.61 45.1772 107.32 46.5672 108.17 46.0172C108.47 45.8272 108.64 45.4872 108.8 45.1872C109 44.7972 109.19 44.4172 109.52 44.1272C109.83 43.8572 110.23 43.7272 110.63 43.8472C111.02 43.9572 111.23 44.2372 111.26 44.6372C111.25 44.6672 111.25 44.6972 111.25 44.7272C111.4 44.3772 111.43 44.2772 111.36 44.4172C111.33 44.4672 111.3 44.5172 111.27 44.5772C111.21 44.6672 111.15 44.7472 111.09 44.8372C110.94 45.0472 110.8 45.2572 110.68 45.4872C110.44 45.9472 110.22 46.4772 110.16 46.9972C110.08 47.7072 110.71 48.5972 111.47 48.1372C112.07 47.7772 112.35 46.6872 113.17 46.7572C113.64 46.7972 113.81 47.4172 113.87 47.8072C113.89 47.9072 113.9 48.0072 113.89 48.0972C113.88 48.4772 114.19 47.6072 114.03 47.7572C113.99 47.7972 113.95 47.8372 113.9 47.8672C113.71 47.9972 113.48 48.0472 113.28 48.1572C112.89 48.3572 112.67 48.7172 112.51 49.1172C112.34 49.5372 112.16 50.0072 112.31 50.4572C112.46 50.9072 112.87 51.1972 113.35 51.1572C113.85 51.1172 114.26 50.7872 114.61 50.4572C114.81 50.2772 115.01 50.0472 115.25 49.9072C115.49 49.7672 115.68 49.9072 115.8 50.1272C115.91 50.3072 115.95 50.5172 115.93 50.7372C115.93 50.7772 115.91 50.8172 115.91 50.8572C115.9 50.4672 116.14 50.3872 115.98 50.5972C115.91 50.6872 115.82 50.7572 115.73 50.8272C115.61 50.9072 115.55 51.2172 115.5 51.3472C115.52 51.3772 115.44 51.6672 115.48 51.6472Z" fill="#21D6D8"/>
<path d="M13.8502 61.6472C14.0502 61.7872 14.2702 61.6372 14.4102 61.4872C14.5002 61.3972 14.5202 61.2872 14.5402 61.1672C14.5502 61.0672 14.5602 60.9772 14.5102 60.8872C14.4202 60.7172 14.2502 60.6372 14.1402 60.4872C14.1102 60.4472 14.0902 60.4072 14.0702 60.3572C14.0702 60.3472 14.0702 60.3372 14.0602 60.3272C14.1202 60.4772 14.0102 60.4672 14.0502 60.4272C14.0702 60.3972 14.0902 60.3772 14.1102 60.3572C14.2002 60.2872 14.3102 60.2672 14.4202 60.2672C14.6302 60.2672 14.8802 60.3372 15.0602 60.2072C15.1302 60.1572 15.1702 60.0771 15.2002 59.9971C15.2302 59.8771 15.2602 59.7472 15.2502 59.6372C15.2302 59.4272 15.0302 59.3172 14.8902 59.1772C14.8502 59.1372 14.8202 59.0972 14.8002 59.0572C14.7902 59.0372 14.7802 59.0172 14.7702 58.9872C14.7702 58.9772 14.7702 58.9672 14.7602 58.9572C14.7402 58.9072 14.7002 59.1372 14.7502 59.0572C14.8002 58.9572 14.9102 58.8871 15.0102 58.8471C15.1202 58.8071 15.2402 58.8072 15.3402 58.8872C15.4402 58.9672 15.5202 59.0371 15.6602 59.0371C15.9502 59.0171 16.0102 58.6772 16.0002 58.4472C16.0002 58.3972 15.9702 58.4871 15.9702 58.4971C15.9602 58.5571 15.9502 58.6171 15.9502 58.6871C15.9502 58.6771 16.0002 58.5272 15.9602 58.6072C15.9502 58.6172 15.9502 58.6272 15.9402 58.6372C15.9202 58.6672 15.9102 58.6872 15.8802 58.7072C15.8402 58.7372 15.8002 58.7572 15.7502 58.7672C15.6602 58.7872 15.5602 58.7771 15.4802 58.7171C15.3902 58.6571 15.3302 58.5671 15.2102 58.5671C15.1102 58.5671 15.0202 58.6071 14.9402 58.6571C14.7602 58.7771 14.7002 58.9972 14.7102 59.2072C14.7202 59.3972 14.9002 59.5172 15.0302 59.6372C15.1102 59.7072 15.1802 59.7872 15.2002 59.8872C15.2002 59.8972 15.2002 59.9072 15.2002 59.9172C15.1702 59.8172 15.2402 59.7772 15.2102 59.8372C15.2002 59.8572 15.1902 59.8772 15.1802 59.8872C15.1502 59.9272 15.1102 59.9672 15.0602 59.9872C14.8702 60.0872 14.6502 60.0171 14.4502 60.0271C14.2402 60.0371 14.0702 60.1272 14.0302 60.3372C14.0102 60.4372 13.9802 60.5572 14.0102 60.6672C14.0302 60.7472 14.0902 60.8172 14.1402 60.8672C14.2102 60.9372 14.2902 60.9971 14.3602 61.0671C14.3902 61.1071 14.4302 61.1471 14.4502 61.1871C14.4602 61.2071 14.4702 61.2371 14.4802 61.2571C14.4802 61.2671 14.4802 61.2771 14.4902 61.2771C14.4702 61.2571 14.5402 61.1072 14.4902 61.1972C14.3702 61.3772 14.1002 61.5672 13.8802 61.4172C13.8802 61.4172 13.8502 61.5372 13.8502 61.5472C13.8502 61.5372 13.8302 61.6372 13.8502 61.6472Z" fill="#FE8C47"/>
<path d="M67.1902 12.0673C66.9002 11.7273 66.4102 11.4173 65.9402 11.5973C65.3602 11.8173 65.1902 12.5673 65.0902 13.1073C65.0702 13.2473 65.0502 13.3873 65.0302 13.5273C65.0202 13.5973 65.0102 13.6773 65.0002 13.7573C65.0002 13.7573 64.9902 13.8373 64.9902 13.8473C65.0102 13.7773 65.0102 13.7673 64.9902 13.8373C64.9802 13.8573 64.9702 13.8773 64.9602 13.8973C64.8102 14.1473 64.5602 14.2373 64.2902 14.2073C64.0502 14.1873 63.8202 14.1073 63.5802 14.1573C63.3302 14.1973 63.1102 14.3673 62.9502 14.5673C62.7502 14.8273 62.6502 15.1573 62.5702 15.4773C62.4902 15.8173 62.4702 16.1573 62.4502 16.5073C62.4502 16.5373 62.4802 16.4773 62.4802 16.4873C62.5102 16.4473 62.5202 16.3773 62.5302 16.3373C62.5602 16.2373 62.5902 16.1273 62.6002 16.0173C62.6102 15.8773 62.6102 15.7373 62.6202 15.5973C62.6302 15.5373 62.6302 15.4773 62.6402 15.4173C62.6402 15.3873 62.6502 15.3673 62.6502 15.3373C62.6402 15.3973 62.6602 15.3173 62.6702 15.3073C62.7702 15.0873 62.9402 14.8773 63.1602 14.7673C63.3602 14.6573 63.5802 14.6473 63.8002 14.6773C64.0002 14.7073 64.2202 14.7573 64.4302 14.7173C64.6602 14.6573 64.8102 14.4673 64.9102 14.2573C65.0302 13.9973 65.1002 13.6973 65.1402 13.4173C65.1702 13.1973 65.1702 12.8973 65.2402 12.7073C65.3302 12.4673 65.5402 12.2373 65.7802 12.1373C66.2502 11.9373 66.7502 12.2573 67.0502 12.5973C67.0502 12.6073 67.1402 12.3673 67.1402 12.3473C67.1602 12.2873 67.2302 12.1173 67.1902 12.0673Z" fill="#BDD400"/>
<path d="M44.99 34.7373L30.18 34.3273C29.71 34.3173 29.26 34.0973 28.96 33.7373C28.66 33.3773 28.52 32.8973 28.58 32.4373C28.65 31.9673 28.91 31.5473 29.3 31.2873C29.69 31.0273 30.18 30.9373 30.64 31.0573L44.99 34.7373Z" fill="#FF6E00"/>
<path d="M89.4799 91.2973C89.2899 91.7273 89.1499 92.1973 89.1099 92.6673C89.0999 92.8373 89.0999 93.0173 89.0899 93.1873C89.0899 93.2673 89.0899 93.3573 89.0899 93.4373C89.0899 93.4773 89.0699 93.5273 89.0799 93.5673C89.0699 93.1273 89.2899 93.0773 89.1099 93.3073C88.5899 93.9773 87.5299 93.6873 86.9099 93.3373C86.5399 93.1273 86.1899 92.8773 85.8099 92.6773C85.4599 92.4973 84.9999 92.3073 84.5999 92.4073C84.2199 92.5073 84.0699 92.8773 83.9599 93.2173C83.8299 93.6173 83.7199 94.0473 83.7699 94.4673C83.8299 94.8773 84.0399 95.2273 84.2199 95.5973C84.3199 95.8073 84.4199 96.0373 84.4699 96.2773C84.4899 96.3873 84.4799 96.4773 84.4899 96.5873C84.4599 96.2173 84.6599 96.1473 84.5299 96.3173C84.4899 96.3773 84.4499 96.4373 84.3999 96.4973C83.7699 97.2173 82.6999 97.2373 81.8099 97.1673C80.9099 97.0973 80.0199 96.8573 79.1899 96.4673C78.4299 96.1073 77.6499 95.5373 77.4799 94.6473C77.4599 94.5373 77.4499 94.4173 77.4499 94.2973C77.4499 94.2573 77.4699 94.1973 77.4599 94.1473C77.4299 94.2673 77.3999 94.3973 77.3699 94.5173C77.3899 94.4873 77.3999 94.4673 77.4099 94.4473C77.5799 94.2373 77.7599 94.0673 78.0199 93.9573C78.4499 93.7573 78.9499 93.7073 79.4199 93.7473C79.8499 93.7873 80.2999 93.9473 80.6099 94.2573C80.7599 94.4173 80.8699 94.6073 80.9299 94.8273C80.9599 94.9173 80.9699 95.0173 80.9799 95.1073C80.9799 95.1473 80.9699 95.2073 80.9799 95.2473C81.0199 95.0873 81.0599 94.9373 81.1099 94.7773C81.0899 94.8173 81.0599 94.8473 81.0299 94.8773C80.9099 95.0273 80.8699 95.2773 80.8299 95.4573C80.8099 95.5373 80.7499 95.6673 80.7699 95.7473C80.7699 95.7573 80.7499 95.8573 80.7899 95.8073C81.0899 95.4373 81.2399 94.8473 81.2799 94.3673C81.3099 93.9873 81.1699 93.5973 80.9199 93.3273C80.2899 92.6473 79.0499 92.6373 78.2699 93.0173C77.8599 93.2173 77.5999 93.5473 77.4499 93.9773C77.2799 94.4473 77.1199 94.9873 77.1999 95.5073C77.3499 96.4873 78.2099 97.1073 79.0499 97.4873C79.9999 97.9173 81.0199 98.1473 82.0499 98.1673C83.0499 98.1773 84.0999 97.9173 84.4999 96.8973C84.6899 96.4273 84.8799 95.8573 84.7699 95.3373C84.6699 94.8173 84.3299 94.3973 84.1599 93.8973C84.0899 93.6973 84.0699 93.4973 84.0599 93.2873C84.0499 93.0373 84.2999 93.2973 83.9299 93.6773C83.9599 93.6473 83.9699 93.6073 83.9999 93.5773C84.0899 93.4673 84.1999 93.4073 84.3299 93.3773C84.7799 93.2673 85.2799 93.5073 85.6699 93.7173C86.5099 94.1873 87.5399 95.0573 88.5399 94.5173C89.0299 94.2573 89.1699 93.6373 89.2899 93.1373C89.3399 92.9073 89.3699 92.6873 89.3799 92.4573C89.3899 92.3473 89.3799 92.2273 89.3899 92.1173C89.3899 92.0573 89.3899 91.9973 89.3899 91.9373C89.3999 91.6873 89.5199 91.6273 89.2799 92.1573C89.3699 91.9473 89.4399 91.7273 89.4899 91.5073C89.5099 91.4473 89.5599 91.1273 89.4799 91.2973Z" fill="#FFCC00"/>
<path d="M20.4102 26.5271C20.3802 25.9971 20.1402 25.3672 19.5702 25.2072C18.8702 25.0072 18.1702 25.5871 17.7102 26.0271C17.5902 26.1371 17.4702 26.2572 17.3502 26.3872C17.2902 26.4472 17.2302 26.5172 17.1602 26.5772C17.1602 26.5772 17.1002 26.6472 17.0802 26.6472C17.1502 26.5972 17.1602 26.5972 17.0902 26.6372C17.0602 26.6472 17.0402 26.6672 17.0102 26.6772C16.6902 26.8072 16.4002 26.7171 16.1602 26.4971C15.9502 26.3071 15.7802 26.0671 15.5302 25.9371C15.2602 25.7971 14.9402 25.7971 14.6502 25.8771C14.2802 25.9771 13.9502 26.2171 13.6602 26.4671C13.3402 26.7271 13.0802 27.0271 12.8202 27.3471C12.7902 27.3771 12.8702 27.3371 12.8602 27.3471C12.9102 27.3271 12.9802 27.2771 13.0102 27.2471C13.1102 27.1771 13.2202 27.0971 13.3002 26.9971C13.4002 26.8671 13.5102 26.7472 13.6202 26.6172C13.6702 26.5672 13.7202 26.5071 13.7702 26.4671C13.7902 26.4471 13.8102 26.4272 13.8402 26.3972C13.7802 26.4372 13.8702 26.3871 13.8802 26.3771C14.1302 26.2371 14.4402 26.1671 14.7202 26.2171C14.9902 26.2571 15.2002 26.3972 15.3902 26.5872C15.5602 26.7572 15.7202 26.9672 15.9502 27.0572C16.2102 27.1672 16.4902 27.0972 16.7202 26.9572C17.0202 26.7872 17.2902 26.5672 17.5302 26.3272C17.7202 26.1472 17.9302 25.8672 18.1302 25.7372C18.3902 25.5772 18.7402 25.5072 19.0402 25.5772C19.6302 25.7272 19.8702 26.3671 19.9002 26.9071C19.9002 26.9171 20.1402 26.7571 20.1602 26.7471C20.2302 26.6971 20.4202 26.5871 20.4102 26.5271Z" fill="#BDD400"/>
<path d="M24.96 86.9972C25.28 86.8672 25.53 87.0472 25.71 87.1672C25.87 87.2872 25.93 87.3172 26 87.2872C26.07 87.2572 26.09 87.1972 26.14 87.0072C26.19 86.7972 26.26 86.4972 26.58 86.3772C26.9 86.2572 27.15 86.4273 27.33 86.5573C27.49 86.6673 27.5499 86.7072 27.6199 86.6772C27.6899 86.6472 27.7199 86.5872 27.7599 86.3972C27.8099 86.1872 27.87 85.8872 28.2 85.7672C28.52 85.6472 28.77 85.8172 28.95 85.9472C29.11 86.0572 29.17 86.0972 29.24 86.0672C29.31 86.0372 29.34 85.9772 29.38 85.7872C29.43 85.5772 29.49 85.2772 29.82 85.1572C30.14 85.0272 30.39 85.2072 30.57 85.3272C30.73 85.4372 30.79 85.4772 30.86 85.4472L31.0399 85.8972C30.7199 86.0172 30.4699 85.8472 30.2899 85.7172C30.1299 85.6072 30.07 85.5672 30 85.5972C29.93 85.6272 29.9 85.6872 29.86 85.8772C29.81 86.0872 29.75 86.3872 29.42 86.5072C29.1 86.6372 28.85 86.4572 28.67 86.3372C28.51 86.2172 28.45 86.1872 28.38 86.2172C28.31 86.2472 28.28 86.3072 28.24 86.4972C28.19 86.7072 28.13 87.0072 27.8 87.1272C27.48 87.2572 27.23 87.0772 27.05 86.9572C26.89 86.8372 26.8299 86.8073 26.7599 86.8372C26.6899 86.8672 26.6599 86.9272 26.6199 87.1172C26.5699 87.3272 26.5099 87.6272 26.1799 87.7472C25.8599 87.8772 25.6099 87.6972 25.4299 87.5772C25.2699 87.4572 25.21 87.4272 25.14 87.4572L24.96 86.9972Z" fill="#21D6D8"/>
<path d="M16.71 10.6571C16.61 10.7071 16.51 10.7371 16.4 10.7371C16.39 10.7371 16.38 10.7371 16.37 10.7371C16.34 10.7371 16.41 10.7471 16.41 10.7471C16.39 10.7371 16.36 10.7371 16.34 10.7271C16.29 10.7071 16.24 10.6871 16.19 10.6571C15.98 10.5371 15.82 10.3471 15.7 10.1471C15.46 9.74713 15.32 9.27712 15.18 8.82712C15.04 8.38712 14.9 7.9371 14.68 7.5271C14.57 7.3171 14.45 7.1171 14.3 6.9371C14.22 6.8471 14.13 6.75712 14.02 6.70712C13.9 6.65712 13.76 6.63711 13.63 6.62711C13.19 6.59711 12.97 7.01712 12.64 7.23712C12.54 7.30712 12.45 7.32712 12.34 7.35712C12.29 7.36712 12.43 7.36711 12.43 7.37711C12.43 7.37711 12.39 7.36712 12.39 7.35712C12.36 7.34712 12.34 7.32711 12.32 7.31711C12.27 7.27711 12.22 7.2371 12.18 7.1871C12.02 6.9971 11.95 6.7571 11.89 6.5271C11.82 6.2871 11.76 6.03712 11.64 5.82712C11.59 5.74712 11.53 5.65713 11.44 5.61713C11.33 5.56713 11.19 5.54712 11.06 5.54712C10.82 5.54712 10.71 5.84711 10.63 6.03711C10.57 6.16711 10.53 6.29712 10.49 6.42712C10.45 6.56712 10.43 6.70711 10.39 6.84711C10.36 6.96711 10.31 7.07711 10.23 7.16711C10.2 7.20711 10.16 7.23712 10.11 7.26712C10.08 7.28712 10.05 7.29713 10.02 7.30713C10.01 7.30713 10 7.31711 9.99 7.31711C9.98 7.31711 9.97 7.31711 9.96 7.31711C10.01 7.32711 10.05 7.33713 10.1 7.33713C10.05 7.29713 9.97998 7.27712 9.92998 7.23712C9.87998 7.19712 9.82999 7.14712 9.77999 7.10712C9.67999 7.00712 9.58998 6.90712 9.50998 6.79712C9.33998 6.60712 9.15999 6.42711 8.90999 6.34711C8.69999 6.28711 8.43 6.23712 8.21 6.32712C8.12 6.36712 8.04999 6.41711 7.99999 6.50711C7.98999 6.51711 8.13998 6.54712 8.14998 6.54712C8.16998 6.54712 8.28999 6.57713 8.30999 6.55713C8.36999 6.46713 8.44999 6.39713 8.54999 6.36713C8.59999 6.35713 8.64999 6.34713 8.69999 6.33713C8.76999 6.32713 8.64999 6.32712 8.65999 6.32712C8.66999 6.32712 8.69999 6.34711 8.69999 6.34711C8.73999 6.35711 8.77999 6.3771 8.80999 6.4071C9.03999 6.5471 9.2 6.7671 9.37999 6.9671C9.46 7.0571 9.54998 7.1471 9.64998 7.2171C9.74998 7.2971 9.86999 7.32712 9.99999 7.35712C10.12 7.37712 10.25 7.39711 10.37 7.34711C10.46 7.30711 10.54 7.2371 10.59 7.1571C10.67 7.0471 10.7 6.9071 10.73 6.7771C10.76 6.6471 10.79 6.50711 10.84 6.37711C10.88 6.24711 10.93 6.11712 11 5.98712C11.05 5.87712 11.1 5.75712 11.19 5.67712C11.21 5.65712 11.24 5.63713 11.27 5.61713C11.28 5.61713 11.29 5.61712 11.3 5.60712H11.31C11.26 5.59712 11.21 5.59713 11.16 5.58713C11.17 5.60713 11.2 5.61711 11.22 5.62711C11.25 5.64711 11.27 5.67712 11.3 5.70712C11.37 5.79712 11.41 5.91712 11.45 6.01712C11.54 6.24712 11.59 6.48711 11.67 6.72711C11.74 6.93711 11.86 7.16711 12.04 7.28711C12.14 7.35711 12.26 7.3871 12.38 7.4071C12.5 7.4271 12.62 7.44711 12.74 7.41711C13.15 7.31711 13.33 6.84711 13.72 6.72711C13.74 6.71711 13.77 6.71712 13.79 6.70712C13.8 6.70712 13.82 6.70711 13.83 6.69711C13.89 6.68711 13.81 6.7471 13.75 6.6871C13.77 6.7071 13.8 6.71711 13.82 6.72711C13.85 6.74711 13.88 6.76712 13.9 6.79712C13.99 6.87712 14.07 6.98713 14.14 7.08713C14.27 7.27713 14.38 7.48711 14.48 7.69711C14.67 8.12711 14.81 8.57712 14.95 9.01712C15.1 9.45712 15.25 9.93713 15.54 10.3071C15.67 10.4771 15.84 10.6171 16.03 10.6971C16.24 10.7871 16.5 10.8271 16.73 10.8171C16.83 10.8071 16.93 10.7871 17.02 10.7371C17.04 10.7271 16.92 10.6971 16.91 10.6971C16.87 10.6871 16.83 10.6771 16.79 10.6771C16.76 10.6571 16.72 10.6471 16.71 10.6571Z" fill="#BDD400"/>
<path d="M20.2498 74.5671L3.2798 80.5471C2.7398 80.7371 2.1398 80.6871 1.6398 80.4071C1.1398 80.1271 0.769804 79.6572 0.639804 79.0872C0.509804 78.5272 0.629811 77.9371 0.959811 77.4671C1.28981 76.9971 1.80981 76.6871 2.37981 76.6271L20.2498 74.5671Z" fill="#FF6E00"/>
</svg>
