<svg width="40" height="40" viewBox="0 0 40 40" fill="none" xmlns="http://www.w3.org/2000/svg">
<rect x="0.5" y="0.5" width="39" height="39" rx="19.5" stroke="#0C0804"/>
<path d="M20.2598 11.5C20.8272 11.5032 22.2468 11.517 23.7557 11.5776L24.2912 11.6009C25.8096 11.6721 27.3269 11.7954 28.0803 12.0047C29.0844 12.2874 29.8728 13.1098 30.1396 14.1532C30.5646 15.8108 30.6177 19.0432 30.6241 19.8263L30.6251 19.9878V20.1727C30.6177 20.9558 30.5646 24.1892 30.1396 25.8457C29.8697 26.8923 29.0802 27.7158 28.0803 27.9942C27.3269 28.2035 25.8096 28.3268 24.2912 28.398L23.7557 28.4224C22.2468 28.4819 20.8272 28.4968 20.2598 28.4989L20.0101 28.5H19.7392C18.5385 28.4926 13.5168 28.4384 11.9187 27.9942C10.9156 27.7116 10.1261 26.8891 9.85941 25.8457C9.43438 24.1881 9.38125 20.9558 9.37488 20.1727V19.8263C9.38125 19.0432 9.43438 15.8098 9.85941 14.1532C10.1293 13.1066 10.9188 12.2831 11.9197 12.0058C13.5168 11.5606 18.5395 11.5064 19.7402 11.5H20.2598ZM17.8743 16.2815V23.7195L24.2497 20.0005L17.8743 16.2815Z" fill="black"/>
</svg>
